<ttFont>
          <CharString index="0">
            -103 callsubr
            114 -79 callsubr
            return
          </CharString>
          <CharString index="1">
            hlineto
            -106 callgsubr
            return
          </CharString>
          <CharString index="2">
            -105 callgsubr
            endchar
          </CharString>
          <CharString index="3">
            11 16 1 6 15 vhcurveto
            -11 18 -4 51 36 return
          </CharString>
          <CharString index="4">
            -104 callsubr
            103 5 return
          </CharString>
          <CharString index="5">
            12 vvcurveto
            85 -90 0 -36 vhcurveto
            return
          </CharString>
          <CharString index="6">
            552 -100 callsubr
            return
          </CharString>
          <CharString index="7">
            -97 callgsubr
            14 116 vvcurveto
            39 -12 33 -18 26 vhcurveto
            return
          </CharString>
          <CharString index="8">
            -104 callgsubr
            264 -94 callsubr
            return
          </CharString>
          <CharString index="9">
            284 callsubr
            -39 vhcurveto
            -47 -30 -43 -39 -52 hhcurveto
            -34 -30 26 37 50 39 37 51 10 hvcurveto
            2 10 10 1 11 hhcurveto
            1 5 0 4 2 vvcurveto
            47 -36 43 -57 return
          </CharString>
          <CharString index="10">
            hlineto
            -98 callsubr
            return
          </CharString>
          <CharString index="11">
            -75 -54 -52 -69 -81 54 -42 56 9 18 3 9 12 hvcurveto
            -15 13 -11 31 30 vvcurveto
            35 15 32 38 32 16 -31 -34 -115 -108 -91 -128 -77 -77 35 69 -40 vhcurveto
            100 7 53 63 80 vvcurveto
            66 -32 59 -39 43 vhcurveto
            return
          </CharString>
          <CharString index="12">
            103 callsubr
            18 vhcurveto
            return
          </CharString>
          <CharString index="13">
            -49 callgsubr
            47 29 41 42 52 hhcurveto
            return
          </CharString>
          <CharString index="14">
            hhcurveto
            56 20 39 32 17 -4 18 -6 13 hvcurveto
            -3 -10 -12 -1 -10 hhcurveto
            -80 -36 50 61 -23 hvcurveto
            return
          </CharString>
          <CharString index="15">
            -104 callgsubr
            -64 callsubr
            return
          </CharString>
          <CharString index="16">
            hhcurveto
            -82 callgsubr
            return
          </CharString>
          <CharString index="17">
            -116 106 -107 110 43 26 12 19 21 vhcurveto
            -86 callsubr
            return
          </CharString>
          <CharString index="18">
            -92 callsubr
            30 37 return
          </CharString>
          <CharString index="19">
            -60 callgsubr
            -59 50 -48 62 -23 hvcurveto
            32 callsubr
            return
          </CharString>
          <CharString index="20">
            -89 callsubr
            rrcurveto
            return
          </CharString>
          <CharString index="21">
            -5 -17 -2 -17 -18 vvcurveto
            -54 24 -53 73 -32 callsubr
            return
          </CharString>
          <CharString index="22">
            -29 callsubr
            -67 151 -106 171 107 65 59 84 97 -82 84 -98 vhcurveto
            -45 -56 -9 -43 hhcurveto
            -22 -22 9 22 38 65 2 290 callsubr
            40 49 29 -13 32 -25 26 hvcurveto
            return
          </CharString>
          <CharString index="23">
            rmoveto
            -25 -22 -25 -13 -27 hhcurveto
            -33 -23 14 35 42 32 39 98 5 hvcurveto
            157 131 rmoveto
            133 -95 47 -115 -115 -107 -39 -86 -39 31 -36 65 37 31 13 23 22 vhcurveto
            -10 11 -6 14 18 vvcurveto
            32 23 20 29 29 24 -20 -43 vhcurveto
            -114 vlineto
            -190 -3 -110 -66 -100 vvcurveto
            -84 61 -46 90 69 53 31 35 33 vhcurveto
            -44 12 29 -22 51 hhcurveto
            48 43 27 31 22 hvcurveto
            -34 11 -20 27 42 vvcurveto
            endchar
          </CharString>
          <CharString index="24">
            -101 callgsubr
            -76 callsubr
            return
          </CharString>
          <CharString index="25">
            117 -101 callgsubr
            return
          </CharString>
          <CharString index="26">
            -31 -20 -22 -29 -37 34 -34 37 31 20 23 28 37 -36 34 -35 hvcurveto
            return
          </CharString>
          <CharString index="27">
            -32 callsubr
            58 2 60 1 62 vhcurveto
            47 29 41 42 52 146 callsubr
            return
          </CharString>
          <CharString index="28">
            109 vvcurveto
            37 return
          </CharString>
          <CharString index="29">
            96 -74 154 -128 -70 -41 -57 -66 -88 72 -63 52 16 14 6 12 9 vhcurveto
            -28 19 -19 43 31 vvcurveto
            32 14 25 28 33 17 -43 -39 -100 -65 -61 -78 -1 vhcurveto
            return
          </CharString>
          <CharString index="30">
            -104 callgsubr
            104 312 callgsubr
            -49 -28 -34 -38 -13 vhcurveto
            47 -13 -25 36 -38 hhcurveto
            -40 -19 -30 -32 -45 return
          </CharString>
          <CharString index="31">
            301 -9 callgsubr
            -91 -50 -45 -72 -103 88 -87 101 hvcurveto
            -85 callsubr
            return
          </CharString>
          <CharString index="32">
            67 callsubr
            32 callgsubr
            return
          </CharString>
          <CharString index="33">
            251 callgsubr
            -41 -36 vvcurveto
            -25 -25 -31 -17 -28 hhcurveto
            -57 -11 36 55 hvcurveto
            18 2 21 22 vvcurveto
            37 -1 56 -37 28 vhcurveto
            return
          </CharString>
          <CharString index="34">
            hhcurveto
            -96 callsubr
            -314 117 rmoveto
            -77 callsubr
            return
          </CharString>
          <CharString index="35">
            rmoveto
            28 22 23 3 23 -8 rrcurveto
            58 30 -29 61 -61 hhcurveto
            -52 -32 -27 -69 -41 hvcurveto
            -55 -94 17 -32 39 1 29 23 rlinecurve
            return
          </CharString>
          <CharString index="36">
            -102 callgsubr
            166 -103 callgsubr
          </CharString>
          <CharString index="37">
            3 6 4 return
          </CharString>
          <CharString index="38">
            -104 callgsubr
            -61 callgsubr
            return
          </CharString>
          <CharString index="39">
            hlineto
            -104 callgsubr
            return
          </CharString>
          <CharString index="40">
            -65 callsubr
            14 return
          </CharString>
          <CharString index="41">
            -47 callsubr
            59 vhcurveto
            27 40 37 34 47 7 302 callsubr
            91 callsubr
            return
          </CharString>
          <CharString index="42">
            46 callgsubr
            hhcurveto
            return
          </CharString>
          <CharString index="43">
            32 callgsubr
            56 2 47 23 return
          </CharString>
          <CharString index="44">
            -3 -6 -2 -13 -8 vvcurveto
            -70 55 -16 41 -3 vhcurveto
            -1 -1 rlineto
            15 -23 2 -45 -36 vvcurveto
            -29 0 -25 -1 -22 vhcurveto
            -15 -20 -30 -13 -37 hhcurveto
            -34 -27 10 14 -23 hvcurveto
            22 22 20 33 49 34 callsubr
            -23 -17 -31 -39 -24 hvcurveto
            8 -18 -21 6 -25 hhcurveto
            -40 -36 -22 -40 -59 64 -24 48 25 25 4 8 21 hvcurveto
            8 -4 22 -22 -34 vvcurveto
            -54 -44 -28 -49 -98 -71 86 77 -39 vhcurveto
            -13 -4 -29 -9 -36 vvcurveto
            -56 120 -175 166 108 54 66 77 16 -3 17 -4 16 vhcurveto
            -10 25 29 -6 30 hhcurveto
            8 11 1 3 12 hvcurveto
            -6 -38 -4 -38 -33 vvcurveto
            -82 28 -62 116 callsubr
            -3 56 -38 28 vhcurveto
            return
          </CharString>
          <CharString index="45">
            -65 -98 callgsubr
            return
          </CharString>
          <CharString index="46">
            -28 callgsubr
            -154 -5 -70 -78 vvcurveto
            -43 2 -109 104 -107 callgsubr
            -38 -53 callgsubr
          </CharString>
          <CharString index="47">
            5 0 5 hhcurveto
            43 26 -14 -6 10 hvcurveto
            10 12 5 23 17 vvcurveto
            57 -62 33 -71 return
          </CharString>
          <CharString index="48">
            36 36 7 19 hhcurveto
            22 13 -12 -18 -35 -67 -26 222 callgsubr
            -57 39 -45 62 -29 hvcurveto
            -98 31 57 -128 114 hhcurveto
            47 40 30 45 26 -12 24 -19 16 hvcurveto
            -16 -19 -24 -5 -18 hhcurveto
            -53 -39 39 43 -28 hvcurveto
            -5 27 29 -3 30 hhcurveto
            101 71 55 88 return
          </CharString>
          <CharString index="49">
            vvcurveto
            -142 161 -113 125 105 81 54 91 99 -91 76 -88 -60 -45 -39 -53 -53 42 -31 40 7 10 1 3 7 vhcurveto
            11 1 14 3 10 vhcurveto
            30 8 17 13 17 hhcurveto
            16 13 -13 -22 -38 -38 -57 -84 -70 -65 45 69 hvcurveto
            162 275 -27 124 vvcurveto
            35 -20 24 -18 15 vhcurveto
            201 -103 callgsubr
          </CharString>
          <CharString index="50">
            -91 callgsubr
            57 -58 33 -62 return
          </CharString>
          <CharString index="51">
            -65 callgsubr
            56 2 return
          </CharString>
          <CharString index="52">
            -54 callsubr
            hhcurveto
            return
          </CharString>
          <CharString index="53">
            -78 callsubr
            34 -13 -30 59 -54 return
          </CharString>
          <CharString index="54">
            rmoveto
            91 11 37 42 38 hhcurveto
            32 23 -35 -42 -32 -14 -8 -22 -3 hvcurveto
            77 -84 rmoveto
            83 3 32 28 74 vvcurveto
            90 -79 92 -119 -150 -108 -130 -170 -154 94 -91 158 106 85 69 61 18 -9 18 -14 186 callgsubr
            -68 -52 38 106 -5 hvcurveto
            endchar
          </CharString>
          <CharString index="55">
            -38 callgsubr
            -217 117 rmoveto
            33 callsubr
            return
          </CharString>
          <CharString index="56">
            -71 callgsubr
            31 hlineto
            return
          </CharString>
          <CharString index="57">
            17 callgsubr
            -78 61 175 -62 75 callsubr
            -70 115 -237 169 225 callgsubr
            return
          </CharString>
          <CharString index="58">
            -28 -27 -18 -38 -48 237 callsubr
            -89 -93 47 85 70 66 42 56 34 18 -17 -22 -28 -28 -25 -49 -7 hvcurveto
            -51 7 44 -25 42 hhcurveto
            51 41 38 55 79 -91 99 -122 -28 -28 -5 -10 -25 hvcurveto
            -6 12 -3 11 12 184 callgsubr
            30 28 -1 31 hhcurveto
            74 35 25 callsubr
          </CharString>
          <CharString index="59">
            vvcurveto
            -140 160 -91 109 18 17 2 3 16 vhcurveto
            3 -9 0 -8 -7 vvcurveto
            -42 -33 -25 -42 -7 vhcurveto
            -46 8 39 -31 40 hhcurveto
            64 28 44 49 38 -17 37 -30 31 hvcurveto
            29 20 18 29 41 vvcurveto
            50 -39 46 -46 -42 -33 -31 -46 -10 2 -10 3 -9 vhcurveto
            -8 -15 -19 -4 -26 hhcurveto
            -54 -41 36 47 return
          </CharString>
          <CharString index="60">
            29 -22 15 -39 -12 callgsubr
            68 -21 -50 50 -83 hhcurveto
            -43 -35 -12 -21 -28 295 callgsubr
            15 15 callsubr
            56 2 60 1 return
          </CharString>
          <CharString index="61">
            -69 callsubr
            96 hlineto
            return
          </CharString>
          <CharString index="62">
            vvcurveto
            -54 24 -53 73 -80 callsubr
            return
          </CharString>
          <CharString index="63">
            72 callgsubr
            72 -8 41 -1 vhcurveto
            0 vlineto
            return
          </CharString>
          <CharString index="64">
            rmoveto
            -166 91 -108 324 callgsubr
            92 108 166 vhcurveto
            365 vlineto
            67 callgsubr
            -394 vlineto
            -91 -62 -43 -83 -81 -63 43 91 vhcurveto
            388 vlineto
            78 callgsubr
            return
          </CharString>
          <CharString index="65">
            -44 callsubr
            9 -14 3 -12 2 -32 rrcurveto
            1 -24 0 -36 -55 vvcurveto
            -92 126 -126 118 return
          </CharString>
          <CharString index="66">
            rmoveto
            -43 callgsubr
            return
          </CharString>
          <CharString index="67">
            hhcurveto
            -92 -81 -41 -117 -37 callgsubr
            56 34 return
          </CharString>
          <CharString index="68">
            hlineto
            -73 callgsubr
            -154 -5 -71 -78 -23 callgsubr
            return
          </CharString>
          <CharString index="69">
            rmoveto
            -73 callgsubr
            -28 0 -25 -22 vvcurveto
            -24 -43 -47 -10 -45 hhcurveto
            -15 57 callgsubr
            return
          </CharString>
          <CharString index="70">
            vvcurveto
            39 -12 33 -18 26 vhcurveto
            return
          </CharString>
          <CharString index="71">
            552 -38 callsubr
            return
          </CharString>
          <CharString index="72">
            vvcurveto
            -107 106 -101 137 -4 vhcurveto
            -71 -29 -90 -29 -78 -8 rrcurveto
            -64 1 49 -32 52 hhcurveto
            68 112 58 75 72 hvcurveto
            12 -15 5 -19 -15 vvcurveto
            -29 -18 -27 -36 -8 vhcurveto
            -35 16 35 -19 36 hhcurveto
            51 33 38 50 55 -42 47 -51 29 hvcurveto
            17 28 10 28 28 vvcurveto
            47 -29 47 -52 -42 -33 -31 -46 -16 4 -15 7 -14 vhcurveto
            -3 -12 -12 -1 -15 hhcurveto
            -59 -59 28 63 hvcurveto
            128 262 -25 125 -11 callgsubr
          </CharString>
          <CharString index="73">
            -57 callgsubr
            -27 2 -32 -35 -154 -5 -75 -84 vvcurveto
            -43 2 -109 104 -104 callsubr
            134 5 97 118 vvcurveto
            return
          </CharString>
          <CharString index="74">
            71 -4 -31 33 -64 hhcurveto
            -40 -30 -18 -25 -22 hvcurveto
            23 -12 11 -23 -35 vvcurveto
            -313 0 callgsubr
            return
          </CharString>
          <CharString index="75">
            -104 callsubr
            vvcurveto
            return
          </CharString>
          <CharString index="76">
            302 60 callsubr
            return
          </CharString>
          <CharString index="77">
            108 callsubr
            -526 -7 callgsubr
            return
          </CharString>
          <CharString index="78">
            55 55 7 30 hhcurveto
            26 11 -11 -15 -35 -60 -26 -82 -96 -87 36 56 -52 hvcurveto
            -11 -4 -16 -8 -23 vvcurveto
            return
          </CharString>
          <CharString index="79">
            -24 callsubr
            -39 -3 -47 -13 -54 vvcurveto
            return
          </CharString>
          <CharString index="80">
            rmoveto
            -36 -26 35 102 -6 hvcurveto
            102 -6 24 34 36 hhcurveto
            36 25 -34 -102 6 hvcurveto
            -102 6 -23 -35 -36 hhcurveto
            124 -272 rmoveto
            19 7 -10 -12 -32 -51 -24 -111 -108 -48 24 68 -2 hvcurveto
            -49 -48 -28 -54 -54 50 -68 179 185 111 84 117 81 -43 54 -103 hvcurveto
            -137 hlineto
            -55 -25 6 33 15 10 10 14 6 hvcurveto
            -7 23 25 -4 26 hhcurveto
            120 102 78 126 50 -16 42 -26 32 hvcurveto
            27 8 21 15 23 hhcurveto
            16 18 -6 -11 15 hvcurveto
            19 11 13 29 30 vvcurveto
            39 -29 41 -52 -53 -43 -45 -87 -5 vhcurveto
            23 -37 -45 13 -49 hhcurveto
            -120 -103 -77 -126 -73 34 -57 53 -35 hvcurveto
            -48 -24 -34 -33 -56 vvcurveto
            -94 97 -37 93 vhcurveto
            endchar
          </CharString>
          <CharString index="81">
            -98 callgsubr
            -31 callsubr
            return
          </CharString>
          <CharString index="82">
            -101 callsubr
            -307 254 callgsubr
            -52 -48 -30 -44 -29 vhcurveto
            -65 -100 8 -150 -141 hhcurveto
            -40 -33 25 35 25 12 18 17 11 hvcurveto
            -3 13 14 231 callsubr
            return
          </CharString>
          <CharString index="83">
            19 callgsubr
            -14 -1 -15 vhcurveto
            return
          </CharString>
          <CharString index="84">
            rmoveto
            -46 callsubr
            return
          </CharString>
          <CharString index="85">
            109 callsubr
            -440 415 -101 callgsubr
            215 callsubr
            -75 -237 2 -183 vvcurveto
            -116 137 -112 122 113 101 67 120 79 -57 88 -107 6 vhcurveto
            28 20 20 24 34 vvcurveto
            32 -20 25 -23 18 vhcurveto
            237 -103 callgsubr
          </CharString>
          <CharString index="86">
            -68 callsubr
            -81 callgsubr
            return
          </CharString>
          <CharString index="87">
            -104 callgsubr
            104 hlineto
            29 callgsubr
            return
          </CharString>
          <CharString index="88">
            -89 callgsubr
            14 return
          </CharString>
          <CharString index="89">
            9 callsubr
            -32 -17 -28 -43 return
          </CharString>
          <CharString index="90">
            -30 -18 -25 -22 vhcurveto
            23 -12 11 -23 return
          </CharString>
          <CharString index="91">
            -31 38 -69 -39 -17 callsubr
            return
          </CharString>
          <CharString index="92">
            hlineto
            -57 callsubr
            return
          </CharString>
          <CharString index="93">
            -70 callsubr
            12 -102 callsubr
            -244 85 callsubr
            17 vhcurveto
            217 callgsubr
            return
          </CharString>
          <CharString index="94">
            174 callsubr
            72 -64 41 -40 rrcurveto
            -32 -31 -41 -19 -35 hhcurveto
            return
          </CharString>
          <CharString index="95">
            rmoveto
            74 callsubr
            525 vlineto
            76 callsubr
            return
          </CharString>
          <CharString index="96">
            rmoveto
            17 -17 3 -42 -24 callgsubr
            return
          </CharString>
          <CharString index="97">
            -3 -6 -2 -13 -8 vvcurveto
            -77 67 -11 41 -2 vhcurveto
            0 vlineto
            9 return
          </CharString>
          <CharString index="98">
            669 101 callgsubr
            -62 -1 -49 -1 -40 vhcurveto
            -56 -33 -69 -43 -69 89 callsubr
            -23 324 callsubr
            8 8 vvcurveto
            62 38 41 62 vhcurveto
            10 -106 callsubr
            return
          </CharString>
          <CharString index="99">
            -16 callgsubr
            80 53 69 73 117 return
          </CharString>
          <CharString index="100">
            vvcurveto
            -53 24 -51 81 callsubr
            -38 -53 callgsubr
          </CharString>
          <CharString index="101">
            rmoveto
            226 callsubr
            -39 -38 -7 -18 -29 hvcurveto
            31 -27 -42 25 -52 hhcurveto
            -40 -34 -14 -22 -27 hvcurveto
            2 10 1 11 11 vvcurveto
            30 -7 31 -22 19 vhcurveto
            484 128 callgsubr
            -608 112 rmoveto
            -74 callsubr
            366 245 callsubr
            -577 vlineto
            -84 callgsubr
            58 2 60 1 62 vhcurveto
            47 29 41 42 52 hhcurveto
            14 12 -3 -8 11 hvcurveto
            -10 -21 -5 -25 -30 179 callgsubr
            102 hlineto
            -2 -77 -2 -50 -54 vvcurveto
            -43 2 -109 104 -102 callgsubr
            163 -103 callgsubr
          </CharString>
          <CharString index="102">
            10 16 16 5 16 hhcurveto
            65 30 -92 -65 14 hvcurveto
            60 -52 -91 73 -89 hhcurveto
            -52 -47 -30 -56 -46 42 -37 44 hvcurveto
            32 8 31 20 34 hhcurveto
            return
          </CharString>
          <CharString index="103">
            hhcurveto
            -119 -62 -69 -72 -63 46 -52 54 12 14 3 6 9 hvcurveto
            -4 10 -2 12 9 vvcurveto
            64 57 40 75 135 68 -83 -98 33 vhcurveto
            -127 -68 callsubr
            31 hlineto
            3 -29 1 -29 -25 -165 -5 -76 -83 vvcurveto
            -43 2 -109 104 -104 callsubr
            109 5 123 116 vvcurveto
            return
          </CharString>
          <CharString index="104">
            92 callgsubr
            -39 0 -34 -1 -30 vhcurveto
            -47 -22 -50 -39 -43 2 callsubr
            return
          </CharString>
          <CharString index="105">
            hhcurveto
            -77 -58 -53 -79 -60 40 -64 58 11 11 2 6 9 hvcurveto
            -11 17 -5 19 19 vvcurveto
            42 27 39 49 68 39 -61 -120 17 vhcurveto
            -144 -68 callsubr
            33 hlineto
            1 -26 1 -28 -29 -165 -5 -76 -83 vvcurveto
            -43 2 -109 104 -104 callsubr
            109 5 123 116 vvcurveto
            return
          </CharString>
          <CharString index="106">
            rmoveto
            383 346 rlineto
            48 46 24 36 53 vvcurveto
            81 -72 51 -90 vhcurveto
            -274 hlineto
            -50 -45 3 11 -38 hvcurveto
            -14 -18 -10 -24 -26 vvcurveto
            -56 40 -44 122 62 109 7 20 107 vhcurveto
            -380 -343 rlineto
            -49 -44 -23 -37 -53 vvcurveto
            -82 72 -50 90 vhcurveto
            284 hlineto
            123 39 44 56 26 -10 30 -15 18 hvcurveto
            -35 -18 -37 -8 -51 -4 rrcurveto
            endchar
          </CharString>
          <CharString index="107">
            110 callgsubr
            242 callsubr
            -40 -2 -50 -12 -56 233 callsubr
            39 58 9 vhcurveto
            return
          </CharString>
          <CharString index="108">
            hhcurveto
            -39 -34 16 callsubr
            return
          </CharString>
          <CharString index="109">
            hhcurveto
            -57 -11 36 55 -21 callgsubr
            return
          </CharString>
          <CharString index="110">
            rmoveto
            -18 callsubr
            vhcurveto
            -107 -7 255 -166 hhcurveto
            -31 -26 -10 -18 -21 hvcurveto
            1 10 1 10 11 vvcurveto
            30 -7 31 -22 19 vhcurveto
            642 hlineto
            13 -22 2 -42 -36 vvcurveto
            -766 100 rmoveto
            251 callgsubr
            -42 -35 111 callgsubr
            61 1 62 vhcurveto
            39 27 32 42 41 91 17 -275 188 hhcurveto
            67 50 187 callsubr
            hvcurveto
            -74 callgsubr
          </CharString>
          <CharString index="111">
            -142 -141 -75 -116 -78 -61 37 58 31 17 22 22 14 vhcurveto
            -4 16 17 -3 17 hhcurveto
            42 41 22 41 43 -44 29 -53 return
          </CharString>
          <CharString index="112">
            80 -31 39 176 callsubr
            -24 -22 vhcurveto
            23 -14 297 callgsubr
            -563 vlineto
            -58 callgsubr
            return
          </CharString>
          <CharString index="113">
            -116 106 -107 110 43 26 12 19 21 vhcurveto
            -85 callgsubr
          </CharString>
          <CharString index="114">
            vvcurveto
            62 -29 59 -37 44 vhcurveto
            return
          </CharString>
          <CharString index="115">
            -17 callgsubr
            88 callsubr
            return
          </CharString>
          <CharString index="116">
            154 callsubr
            48 197 callsubr
            16 -20 10 -22 -21 vvcurveto
            return
          </CharString>
          <CharString index="117">
            rmoveto
            148 callsubr
            75 72 68 43 26 hhcurveto
            42 119 -114 0 hvcurveto
            -170 47 -39 callgsubr
            return
          </CharString>
          <CharString index="118">
            rmoveto
            -58 callgsubr
            223 vlineto
            61 14 29 21 30 hhcurveto
            27 23 -19 -35 -7 -2 -7 -2 -9 hvcurveto
            -1 10 8 -1 8 hhcurveto
            66 29 42 59 66 -48 38 -60 -64 -42 -32 -64 -27 hvcurveto
            65 -6 -31 31 -61 213 callsubr
            endchar
          </CharString>
          <CharString index="119">
            -44 -42 -18 -31 -32 hvcurveto
            36 -42 -53 21 -49 hhcurveto
            return
          </CharString>
          <CharString index="120">
            -78 669 rmoveto
            -3 -6 -2 -13 -8 vvcurveto
            -90 90 0 36 vhcurveto
            31 hlineto
            2 -27 2 -32 42 callgsubr
            return
          </CharString>
          <CharString index="121">
            rmoveto
            82 -32 35 -107 -121 -41 -14 -49 -11 5 -29 13 -19 vhcurveto
            2 42 27 0 25 hhcurveto
            32 -47 hlineto
            -81 -44 -40 -87 -127 -73 103 161 2 vhcurveto
            172 3 74 113 123 hhcurveto
            68 43 -47 -79 -8 hvcurveto
            -15 24 27 -6 24 hhcurveto
            58 54 35 50 83 -116 67 -142 -263 -137 -174 -231 -243 176 -109 144 83 59 30 47 35 hvcurveto
            -54 vlineto
            -80 30 -39 69 40 29 18 25 22 vhcurveto
            307 callsubr
            endchar
          </CharString>
          <CharString index="122">
            -19 callgsubr
            -495 -82 callsubr
            264 -100 callgsubr
            return
          </CharString>
          <CharString index="123">
            21 36 51 callsubr
            return
          </CharString>
          <CharString index="124">
            26 13 19 17 12 hvcurveto
            -3 13 13 -1 13 hhcurveto
            41 41 22 38 return
          </CharString>
          <CharString index="125">
            rmoveto
            81 -31 38 -68 -40 -30 -18 -25 -22 vhcurveto
            65 callgsubr
            return
          </CharString>
          <CharString index="126">
            57 411 28 callsubr
            -291 117 rmoveto
            8 callsubr
            return
          </CharString>
          <CharString index="127">
            -72 -46 41 60 -30 hvcurveto
            107 3 100 61 147 vvcurveto
            return
          </CharString>
          <CharString index="128">
            15 7 callsubr
            return
          </CharString>
          <CharString index="129">
            128 643 598 rmoveto
            85 -109 63 -160 -153 -130 -76 -130 vhcurveto
            -205 412 -12 -143 vvcurveto
            -59 -49 -35 -86 -82 -50 34 36 22 9 20 15 14 vhcurveto
            17 -21 -29 15 -36 hhcurveto
            -46 -50 -33 -59 -97 130 -66 160 156 136 87 132 hvcurveto
            225 -412 24 117 vvcurveto
            88 callgsubr
            hvcurveto
            return
          </CharString>
          <CharString index="130">
            75 callgsubr
            -72 -51 -51 -65 -58 36 -55 57 9 8 2 2 4 vhcurveto
            36 callsubr
            return
          </CharString>
          <CharString index="131">
            vvcurveto
            -60 23 -57 72 -107 callgsubr
            return
          </CharString>
          <CharString index="132">
            287 callgsubr
            37 46 callsubr
          </CharString>
          <CharString index="133">
            208 callgsubr
            88 19 -225 205 hhcurveto
            38 32 11 21 25 hvcurveto
            -5 -16 -3 -17 -17 vvcurveto
            -54 27 -55 73 -105 callsubr
          </CharString>
          <CharString index="134">
            vvcurveto
            -86 131 -127 126 22 callgsubr
            vhcurveto
            55 callgsubr
            -37 28 vhcurveto
            170 -103 callgsubr
          </CharString>
          <CharString index="135">
            92 callgsubr
            -60 -1 -48 -1 -40 vhcurveto
            -58 -31 -69 -44 -71 -3 callgsubr
            return
          </CharString>
          <CharString index="136">
            -101 callgsubr
            908 hlineto
            13 -22 2 -42 -36 vvcurveto
            -321 hlineto
            17 callgsubr
            -79 63 279 callsubr
            -321 hlineto
            94 callsubr
            130 hlineto
            -97 37 99 -146 133 hhcurveto
            67 50 187 callsubr
            hvcurveto
            -74 callgsubr
          </CharString>
          <CharString index="137">
            rmoveto
            -92 338 rlineto
            77 -20 -32 36 -58 hhcurveto
            -38 -30 -16 -27 -28 hvcurveto
            23 -18 8 -23 13 -42 95 -304 rcurveline
            23 -73 50 -44 55 3 -26 -76 rcurveline
            -38 -13 -29 -18 -29 hhcurveto
            -19 -19 9 13 -16 hvcurveto
            -10 -16 -8 -20 -22 vvcurveto
            -54 46 -36 64 69 53 38 98 36 vhcurveto
            191 517 rlineto
            97 36 -49 52 -66 hhcurveto
            -23 -25 -7 -11 -17 hvcurveto
            15 -24 -1 -29 -14 -41 rrcurveto
            endchar
          </CharString>
          <CharString index="138">
            rmoveto
            -73 callgsubr
            vvcurveto
            -48 0 -40 -1 -35 vhcurveto
            -30 -29 -33 -15 -29 hhcurveto
            -35 -26 26 64 hvcurveto
            18 1 21 22 vvcurveto
            37 0 56 -37 28 vhcurveto
            485 hmoveto
            -106 callgsubr
            -577 hlineto
            132 callgsubr
            58 2 60 1 62 vhcurveto
            47 29 41 42 52 hhcurveto
            34 30 -22 -50 hvcurveto
            31 -16 26 21 36 vvcurveto
            54 -60 79 -93 -40 -34 -14 -22 -27 vhcurveto
            2 10 1 12 11 vvcurveto
            30 -8 30 -21 19 vhcurveto
            endchar
          </CharString>
          <CharString index="139">
            -97 36 64 -134 30 callgsubr
            return
          </CharString>
          <CharString index="140">
            -44 callsubr
            34 callgsubr
            return
          </CharString>
          <CharString index="141">
            vvcurveto
            114 -96 91 -114 -57 -69 -26 -59 -25 14 -27 27 -18 vhcurveto
            28 34 56 20 43 hhcurveto
            38 29 -15 -33 return
          </CharString>
          <CharString index="142">
            15 110 167 rmoveto
            -125 50 -42 132 vhcurveto
            150 hlineto
            84 39 50 53 21 -7 20 -17 12 hvcurveto
            -26 -24 -33 -14 -51 hhcurveto
            -103 hlineto
            313 callgsubr
            441 154 callgsubr
            return
          </CharString>
          <CharString index="143">
            -7 12 -3 15 16 vvcurveto
            37 23 40 37 30 12 -24 -21 return
          </CharString>
          <CharString index="144">
            -88 callsubr
            21 251 -61 callsubr
          </CharString>
          <CharString index="145">
            -68 callsubr
            261 hlineto
            13 -9 5 -11 -11 vvcurveto
            -19 -20 -9 -31 vhcurveto
            -27 -19 1 -20 243 callsubr
            36 36 7 19 hhcurveto
            22 13 -10 -16 -36 -67 -25 222 callgsubr
            -56 40 -45 60 -29 hvcurveto
            -98 31 57 -129 115 hhcurveto
            47 40 30 45 26 -12 24 -19 16 hvcurveto
            -16 -19 -24 -5 -18 hhcurveto
            -53 -40 39 43 -27 hvcurveto
            -5 27 29 -3 30 hhcurveto
            101 71 55 88 104 -89 77 -91 hvcurveto
            -28 -36 -9 -27 hhcurveto
            -21 -25 7 24 40 71 0 31 hvcurveto
            19 23 -1 21 hhcurveto
            74 35 40 49 29 -12 32 -25 26 hvcurveto
            171 -106 callsubr
            return
          </CharString>
          <CharString index="146">
            hhcurveto
            12 callsubr
            return
          </CharString>
          <CharString index="147">
            rmoveto
            8 hlineto
            122 28 42 34 7 -2 7 -5 6 hvcurveto
            -151 24 hlineto
            81 -16 callsubr
            -35 vvcurveto
            -30 vlineto
            -16 -19 1 2 -16 hvcurveto
            -13 -9 -8 -17 -19 vvcurveto
            -23 20 -30 52 -1 vhcurveto
            -288 vlineto
            -105 71 -45 99 96 73 60 52 161 callgsubr
            endchar
          </CharString>
          <CharString index="148">
            rmoveto
            -74 callsubr
            485 hmoveto
            -106 callgsubr
            -577 hlineto
            -84 callgsubr
            58 2 60 1 62 vhcurveto
            47 29 41 42 52 hhcurveto
            34 30 -22 -50 hvcurveto
            31 -16 26 21 36 vvcurveto
            54 -60 79 -93 -40 -34 -14 -22 -27 vhcurveto
            2 10 1 11 11 vvcurveto
            30 -7 31 -22 19 vhcurveto
            endchar
          </CharString>
          <CharString index="149">
            -52 95 callgsubr
            19 -5 return
          </CharString>
          <CharString index="150">
            -101 callgsubr
            445 hlineto
            13 -20 2 -36 -34 vvcurveto
            -321 hlineto
            -3 -6 -2 -13 -8 vvcurveto
            -65 48 -17 77 callgsubr
            161 hlineto
            -38 -1 -34 -1 -30 vhcurveto
            -62 -49 -149 -94 -109 -23 rrcurveto
            -48 3 41 -41 63 hhcurveto
            39 91 40 108 99 252 callgsubr
            -15 vvcurveto
            -49 31 -42 64 -71 callsubr
          </CharString>
          <CharString index="151">
            vvcurveto
            26 -16 24 -19 16 vhcurveto
            213 -103 callgsubr
          </CharString>
          <CharString index="152">
            hhcurveto
            128 callsubr
            return
          </CharString>
          <CharString index="153">
            -32 29 hvcurveto
            182 -103 callgsubr
          </CharString>
          <CharString index="154">
            20 -34 hhcurveto
            -34 -21 -30 -30 -52 41 -35 46 -21 hvcurveto
            -82 31 55 -120 108 hhcurveto
            56 20 39 32 17 -5 19 -7 14 hvcurveto
            -5 -16 -15 0 -15 hhcurveto
            -55 -44 20 46 -31 hvcurveto
            -1 303 callgsubr
            87 70 55 87 return
          </CharString>
          <CharString index="155">
            -7 -96 131 -91 hhcurveto
            -36 -27 -14 -21 -17 hvcurveto
            35 314 callsubr
            -340 123 callsubr
            203 hlineto
            -49 24 52 -48 51 hhcurveto
            295 callsubr
            hvcurveto
            return
          </CharString>
          <CharString index="156">
            22 -50 hhcurveto
            -99 -63 -68 -102 -143 130 -142 66 113 callgsubr
            hvcurveto
            -95 callgsubr
            return
          </CharString>
          <CharString index="157">
            -21 callgsubr
            -216 117 rmoveto
            104 callgsubr
            return
          </CharString>
          <CharString index="158">
            45 callgsubr
            -26 return
          </CharString>
          <CharString index="159">
            hlineto
            29 callgsubr
            -93 -155 -21 -62 27 callsubr
          </CharString>
          <CharString index="160">
            rmoveto
            106 callgsubr
            return
          </CharString>
          <CharString index="161">
            rrcurveto
            102 -293 rmoveto
            -13 callsubr
            -320 410 rmoveto
            -42 callsubr
            return
          </CharString>
          <CharString index="162">
            552 66 callgsubr
            return
          </CharString>
          <CharString index="163">
            rmoveto
            81 -16 callsubr
            -35 vvcurveto
            return
          </CharString>
          <CharString index="164">
            149 callsubr
            -25 0 -38 -66 vvcurveto
            return
          </CharString>
          <CharString index="165">
            -48 callsubr
            63 59 33 62 35 hvcurveto
            -25 56 65 -15 67 hhcurveto
            35 33 4 9 29 hvcurveto
            -10 -63 -1 -38 -46 vvcurveto
            -43 2 -109 104 -107 callgsubr
            -38 -53 callgsubr
          </CharString>
          <CharString index="166">
            -63 callgsubr
            -41 return
          </CharString>
          <CharString index="167">
            hlineto
            -91 callgsubr
            return
          </CharString>
          <CharString index="168">
            -47 64 -28 72 70 vvcurveto
            return
          </CharString>
          <CharString index="169">
            552 rmoveto
            69 callgsubr
            return
          </CharString>
          <CharString index="170">
            98 callsubr
            vhcurveto
            113 27 -205 169 hhcurveto
            43 26 12 19 21 hvcurveto
            -86 callsubr
            return
          </CharString>
          <CharString index="171">
            40 27 19 28 vhcurveto
            41 49 -57 68 hhcurveto
            65 58 46 65 32 -17 23 -29 2 hvcurveto
            -39 -28 -19 -27 vhcurveto
            return
          </CharString>
          <CharString index="172">
            7 callsubr
            -703 -82 callsubr
            491 hlineto
            29 -22 15 -39 -12 callgsubr
            92 -30 -86 6 -174 hhcurveto
            -121 -64 -43 -85 -93 callgsubr
            hvcurveto
            98 hlineto
            16 14 1 3 11 hvcurveto
            13 -45 37 -33 43 -19 rrcurveto
            -90 callgsubr
            56 2 return
          </CharString>
          <CharString index="173">
            81 6 callgsubr
            -35 vvcurveto
            return
          </CharString>
          <CharString index="174">
            -367 -82 callsubr
            return
          </CharString>
          <CharString index="175">
            -72 rmoveto
            73 callgsubr
            return
          </CharString>
          <CharString index="176">
            rmoveto
            -48 -21 -40 -41 -30 vhcurveto
            -21 5 14 -8 14 hhcurveto
            57 110 89 124 70 -48 42 -60 -54 -31 -34 -34 -12 hvcurveto
            47 -20 20 -45 -45 vvcurveto
            return
          </CharString>
          <CharString index="177">
            -30 -18 -26 -22 hvcurveto
            23 -12 297 callgsubr
            return
          </CharString>
          <CharString index="178">
            40 27 30 37 49 -46 44 -47 -40 -27 -29 -38 -49 44 -44 49 hvcurveto
            return
          </CharString>
          <CharString index="179">
            278 callsubr
            -94 -26 -30 -40 vhcurveto
            68 -63 -64 0 -96 106 callsubr
            return
          </CharString>
          <CharString index="180">
            -29 39 callsubr
            return
          </CharString>
          <CharString index="181">
            -22 callgsubr
            411 vlineto
            220 -369 rlineto
            -113 69 55 -43 73 hhcurveto
            43 33 12 17 18 hvcurveto
            -15 22 -4 27 36 vvcurveto
            return
          </CharString>
          <CharString index="182">
            vhcurveto
            -20 -1 -26 -11 -39 vvcurveto
            return
          </CharString>
          <CharString index="183">
            108 callsubr
            -434 vlineto
            -276 458 rlineto
            63 -38 -44 25 -59 hhcurveto
            -57 -30 -18 -25 -21 hvcurveto
            115 callgsubr
            return
          </CharString>
          <CharString index="184">
            -59 -32 -39 -43 -41 26 -41 48 -12 hvcurveto
            28 14 25 13 23 hhcurveto
            return
          </CharString>
          <CharString index="185">
            171 callsubr
            3 -34 1 -8 vhcurveto
            return
          </CharString>
          <CharString index="186">
            219 callsubr
            27 1 4 21 hvcurveto
            -11 -19 -5 -22 -21 vvcurveto
            -24 6 -24 11 -22 vhcurveto
            12 -52 -59 7 -58 hhcurveto
            -121 -64 -43 -85 -93 callgsubr
            hvcurveto
            117 hlineto
            23 18 2 3 15 hvcurveto
            -3 -12 -2 -13 -13 vvcurveto
            -87 102 -102 132 return
          </CharString>
          <CharString index="187">
            rmoveto
            130 65 48 47 30 -33 20 -37 -20 -22 -4 -4 -13 hvcurveto
            -63 -26 -24 -44 -43 -26 24 63 vhcurveto
            4 -13 -22 4 -20 hhcurveto
            -38 -32 -20 -30 -47 65 -48 129 hvcurveto
            return
          </CharString>
          <CharString index="188">
            73 -107 callgsubr
            return
          </CharString>
          <CharString index="189">
            hhcurveto
            -40 -34 -14 -22 -26 hvcurveto
            94 callgsubr
            return
          </CharString>
          <CharString index="190">
            1 101 callsubr
            return
          </CharString>
          <CharString index="191">
            -567 -68 callsubr
            264 149 callgsubr
            return
          </CharString>
          <CharString index="192">
            187 callgsubr
            -65 52 -24 49 15 17 4 6 return
          </CharString>
          <CharString index="193">
            -90 callgsubr
            56 2 47 23 30 37 rrcurveto
            -25 38 61 -19 55 hhcurveto
            8 8 1 1 7 hvcurveto
            -64 43 73 -54 82 hhcurveto
            39 38 12 24 28 hvcurveto
            -5 -16 -3 -18 -18 vvcurveto
            -54 27 -55 73 -105 callsubr
          </CharString>
          <CharString index="194">
            rmoveto
            -52 -45 -135 -98 -145 -34 186 callsubr
            93 186 142 72 26 -18 19 -23 9 hvcurveto
            endchar
          </CharString>
          <CharString index="195">
            -8 96 callgsubr
            return
          </CharString>
          <CharString index="196">
            1 callsubr
            -27 -6 -12 return
          </CharString>
          <CharString index="197">
            160 -71 callgsubr
            363 hlineto
            -73 callgsubr
            vvcurveto
            -2 vlineto
            -34 -5 -31 -17 -25 -24 rrcurveto
            36 -44 -55 21 -53 hhcurveto
            -82 -72 -48 -110 -126 111 -167 58 18 13 11 12 7 hvcurveto
            -47 70 -29 83 65 vvcurveto
            62 26 45 60 18 18 -5 -7 13 vhcurveto
            -7 -14 -13 -32 -39 vvcurveto
            -47 24 -54 50 50 16 49 31 16 -2 15 -3 14 vhcurveto
            46 20 39 20 33 hhcurveto
            33 29 -21 -38 hvcurveto
            return
          </CharString>
          <CharString index="198">
            -3 vvcurveto
            -55 42 -41 50 -22 vhcurveto
            -90 callgsubr
            return
          </CharString>
          <CharString index="199">
            1 -36 rrcurveto
            21 -26 -31 14 -42 -73 callsubr
            return
          </CharString>
          <CharString index="200">
            30 26 15 33 40 20 -21 -26 1 vhcurveto
            -8 -1 -10 -3 -10 vhcurveto
            -16 21 25 -8 24 hhcurveto
            40 32 24 48 -2 hvcurveto
            return
          </CharString>
          <CharString index="201">
            -76 callgsubr
            -42 49 -11 12 vhcurveto
            return
          </CharString>
          <CharString index="202">
            vlineto
            90 callgsubr
            return
          </CharString>
          <CharString index="203">
            294 callsubr
            1 12 29 vvcurveto
            return
          </CharString>
          <CharString index="204">
            -104 callgsubr
            264 -100 callgsubr
            55 2 58 1 return
          </CharString>
          <CharString index="205">
            -101 callgsubr
            568 -97 callsubr
            -66 -48 -47 -57 -14 vhcurveto
            35 -39 -50 28 -53 hhcurveto
            -87 -75 -46 -112 -37 callgsubr
            53 31 32 48 return
          </CharString>
          <CharString index="206">
            -82 -109 -5 -78 294 callgsubr
            -62 48 -21 47 7 6 1 1 7 vhcurveto
            -6 -16 -4 -19 -21 vvcurveto
            -116 106 -148 54 279 callgsubr
            21 callgsubr
            return
          </CharString>
          <CharString index="207">
            -101 callgsubr
            13 hlineto
            8 -10 4 -18 2 return
          </CharString>
          <CharString index="208">
            12 130 callsubr
            return
          </CharString>
          <CharString index="209">
            -101 callgsubr
            -81 callgsubr
            return
          </CharString>
          <CharString index="210">
            -95 callgsubr
            18 -4 return
          </CharString>
          <CharString index="211">
            rmoveto
            15 -17 3 -20 -67 vvcurveto
            -63 -1 -50 -1 -44 vhcurveto
            -78 -35 -80 -36 -59 hhcurveto
            -15 -12 6 14 hvcurveto
            37 105 17 81 vvcurveto
            62 -60 97 -118 return
          </CharString>
          <CharString index="212">
            200 194 50 49 35 11 33 5 rlinecurve
            62 -3 -42 46 -60 hhcurveto
            -73 -45 -40 -133 -93 hvcurveto
            -131 -186 rlineto
            241 vlineto
            -30 callsubr
            232 vlineto
            183 -233 rlineto
            -82 65 39 -31 58 hhcurveto
            55 53 46 71 hvcurveto
            -36 -3 -31 16 -37 37 rrcurveto
            endchar
          </CharString>
          <CharString index="213">
            hhcurveto
            -97 hlineto
            17 callgsubr
            return
          </CharString>
          <CharString index="214">
            372 127 rmoveto
            -24 -16 -28 -15 -29 hhcurveto
            -67 -40 54 120 120 53 66 63 25 24 -9 -17 15 hvcurveto
            157 243 280 callgsubr
            -145 vlineto
            5 -23 -26 3 -23 hhcurveto
            -170 -100 -131 -159 -160 100 -95 128 44 50 21 33 30 hvcurveto
            -36 14 28 -18 46 hhcurveto
            41 29 18 25 22 hvcurveto
            307 callsubr
            return
          </CharString>
          <CharString index="215">
            80 -32 105 callgsubr
            -21 vhcurveto
            115 callgsubr
            return
          </CharString>
          <CharString index="216">
            rmoveto
            -56 -59 -61 -82 -45 -51 24 60 71 64 34 63 32 vhcurveto
            62 -8 48 -40 -56 vvcurveto
            return
          </CharString>
          <CharString index="217">
            -149 50 146 -78 110 hhcurveto
            return
          </CharString>
          <CharString index="218">
            97 314 669 199 callgsubr
            -59 vlineto
            311 callgsubr
            136 -9 -92 114 callsubr
            -36 0 -29 -1 -24 vhcurveto
            216 callgsubr
            -51 72 -78 69 38 20 32 49 10 vhcurveto
            return
          </CharString>
          <CharString index="219">
            43 -2 109 -104 -11 -16 -1 -6 -15 vhcurveto
            -73 callgsubr
            -252 -5 -58 -108 vvcurveto
            -43 2 -109 104 -104 callsubr
            131 5 146 140 vvcurveto
            return
          </CharString>
          <CharString index="220">
            254 callsubr
            73 66 44 67 39 vhcurveto
            -54 44 66 -43 72 hhcurveto
            39 38 12 24 28 hvcurveto
            -5 -16 -3 -18 -18 vvcurveto
            -54 27 -55 73 -105 callsubr
          </CharString>
          <CharString index="221">
            135 -92 124 callsubr
            return
          </CharString>
          <CharString index="222">
            -43 callgsubr
            -7 -89 vvcurveto
            -68 -1 -52 -1 -43 vhcurveto
            -52 11 -54 18 -48 22 rrcurveto
            36 37 24 44 49 vvcurveto
            111 -98 95 -100 -84 -65 -58 -84 return
          </CharString>
          <CharString index="223">
            78 -107 callsubr
            return
          </CharString>
          <CharString index="224">
            rmoveto
            45 30 22 32 12 -4 9 -4 5 hvcurveto
            -314 hlineto
            -46 -30 -22 -32 -12 5 -9 3 -5 hvcurveto
            return
          </CharString>
          <CharString index="225">
            vvcurveto
            -58 80 -48 51 39 30 24 40 return
          </CharString>
          <CharString index="226">
            -30 callgsubr
            -108 hmoveto
            144 callsubr
            return
          </CharString>
          <CharString index="227">
            -39 70 callsubr
            return
          </CharString>
          <CharString index="228">
            rmoveto
            -68 callgsubr
            return
          </CharString>
          <CharString index="229">
            18 -8 18 -15 6 vhcurveto
            64 callgsubr
            return
          </CharString>
          <CharString index="230">
            hlineto
            -69 callsubr
            return
          </CharString>
          <CharString index="231">
            hhcurveto
            -69 -36 -52 -57 -58 35 -61 58 -33 callgsubr
            return
          </CharString>
          <CharString index="232">
            23 -27 19 -48 -47 vvcurveto
            return
          </CharString>
          <CharString index="233">
            669 85 callgsubr
            return
          </CharString>
          <CharString index="234">
            vlineto
            37 -2 56 -37 28 vhcurveto
            return
          </CharString>
          <CharString index="235">
            -465 hlineto
            -92 callsubr
            return
          </CharString>
          <CharString index="236">
            104 rmoveto
            20 20 2 3 18 hvcurveto
            -81 -7 -69 -42 -77 hhcurveto
            -43 -38 19 37 31 32 32 83 hvcurveto
            25 18 -1 18 hhcurveto
            return
          </CharString>
          <CharString index="237">
            12 -19 callgsubr
            return
          </CharString>
          <CharString index="238">
            -26 -1 -23 -24 vvcurveto
            -35 2 -88 84 9 12 1 4 13 vhcurveto
            -10 15 -3 41 30 16 1 19 17 vvcurveto
            152 -162 113 -130 -51 -48 -10 -21 -40 vhcurveto
            -10 15 -6 16 16 184 callgsubr
            70 65 -1 72 hhcurveto
            73 36 287 callgsubr
            37 -32 29 hvcurveto
            182 hlineto
            -70 callsubr
            14 12 vvcurveto
            85 return
          </CharString>
          <CharString index="239">
            157 callsubr
            296 159 169 callsubr
            -21 vlineto
            -35 -52 -66 -17 -64 hhcurveto
            -11 hlineto
            259 callsubr
            return
          </CharString>
          <CharString index="240">
            56 102 callgsubr
            return
          </CharString>
          <CharString index="241">
            -68 callsubr
            32 callgsubr
            4 return
          </CharString>
          <CharString index="242">
            -89 callgsubr
            10 return
          </CharString>
          <CharString index="243">
            7 -3 -13 14 -18 hhcurveto
            -70 -170 -176 -75 -74 170 -176 70 18 13 14 7 3 hvcurveto
            -96 127 -33 52 50 vvcurveto
            51 33 51 96 128 vhcurveto
            return
          </CharString>
          <CharString index="244">
            214 callsubr
            21 251 callsubr
            return
          </CharString>
          <CharString index="245">
            -104 -112 70 -98 hhcurveto
            -73 -61 -51 -71 -36 16 -24 27 -8 hvcurveto
            34 3 22 22 38 90 106 -69 117 hhcurveto
            73 61 50 71 32 -15 24 -28 12 hvcurveto
            return
          </CharString>
          <CharString index="246">
            43 -122 94 -59 89 -18 -74 -11 -76 0 -76 8 rrcurveto
            -78 -17 57 -39 78 hhcurveto
            return
          </CharString>
          <CharString index="247">
            -60 45 -45 52 -23 return
          </CharString>
          <CharString index="248">
            56 -54 37 -81 -77 -55 -26 -38 -14 8 -15 13 -4 vhcurveto
            15 22 20 7 27 hhcurveto
            33 29 -16 -27 hvcurveto
            -53 -109 -7 -41 vvcurveto
            -6 2 -7 6 -5 vhcurveto
            1 7 14 1 8 hhcurveto
            83 31 -38 -28 -27 -26 -21 -44 -43 -39 15 56 -21 hvcurveto
            -11 -44 -30 -44 -53 62 -34 76 78 106 71 73 return
          </CharString>
          <CharString index="249">
            vvcurveto
            -18 -5 -16 -8 -13 vhcurveto
            -80 54 -90 57 -77 20 rrcurveto
            return
          </CharString>
          <CharString index="250">
            rmoveto
            -30 26 -26 30 24 16 18 22 30 -28 26 -28 315 callsubr
            vhcurveto
            endchar
          </CharString>
          <CharString index="251">
            7 -11 4 -11 2 -22 return
          </CharString>
          <CharString index="252">
            669 151 callgsubr
            return
          </CharString>
          <CharString index="253">
            hhcurveto
            34 30 -25 -38 return
          </CharString>
          <CharString index="254">
            -6 -75 155 callsubr
            -71 -75 -43 -98 return
          </CharString>
          <CharString index="255">
            22 9 12 16 19 vvcurveto
            56 -152 126 -69 -62 -136 -85 -70 -31 19 -30 39 -14 vhcurveto
            return
          </CharString>
          <CharString index="256">
            144 callgsubr
            2 return
          </CharString>
          <CharString index="257">
            hhcurveto
            295 callsubr
            hvcurveto
            161 hlineto
            -2 -47 -1 -37 -39 -99 callgsubr
          </CharString>
          <CharString index="258">
            -61 -79 32 -80 hhcurveto
            -103 -56 -50 -79 -93 callgsubr
            hvcurveto
            164 48 -155 101 hhcurveto
            295 callsubr
            hvcurveto
            return
          </CharString>
          <CharString index="259">
            110 152 -75 callgsubr
            return
          </CharString>
          <CharString index="260">
            -101 531 -44 callgsubr
            -472 -68 callsubr
            return
          </CharString>
          <CharString index="261">
            -3 -6 -2 -13 -8 vvcurveto
            -66 return
          </CharString>
          <CharString index="262">
            -26 callsubr
            57 -58 33 -62 return
          </CharString>
          <CharString index="263">
            10 13 5 21 16 vvcurveto
            57 -58 33 -62 -71 -75 -43 -98 -93 108 -137 130 return
          </CharString>
          <CharString index="264">
            125 callgsubr
            20 -11 24 28 vvcurveto
            return
          </CharString>
          <CharString index="265">
            hvcurveto
            92 224 -9 108 vvcurveto
            32 -19 26 -20 17 vhcurveto
            216 -103 callgsubr
          </CharString>
          <CharString index="266">
            -44 -19 -52 -16 -51 -9 297 callsubr
            -41 63 hhcurveto
            36 91 28 102 91 hvcurveto
            -4 -16 -2 -16 -17 vvcurveto
            -54 24 -53 73 -32 callsubr
            58 2 60 1 62 vhcurveto
            47 29 41 42 52 hhcurveto
            34 30 return
          </CharString>
          <CharString index="267">
            -32 -32 -8 -27 hhcurveto
            -21 -25 6 24 37 71 0 31 hvcurveto
            22 27 -1 25 hhcurveto
            74 35 40 49 29 -12 32 -25 26 hvcurveto
            return
          </CharString>
          <CharString index="268">
            rrcurveto
            -52 3 42 -44 64 hhcurveto
            return
          </CharString>
          <CharString index="269">
            15 228 callsubr
            return
          </CharString>
          <CharString index="270">
            74 callgsubr
            72 88 -96 -40 37 hvcurveto
            40 12 3 32 37 return
          </CharString>
          <CharString index="271">
            hhcurveto
            -45 -36 24 40 228 callgsubr
            35 hlineto
            -14 callsubr
            -88 101 -122 130 return
          </CharString>
          <CharString index="272">
            hlineto
            -50 callsubr
            65 -40 48 -12 13 vhcurveto
            return
          </CharString>
          <CharString index="273">
            63 -22 -57 33 -61 hhcurveto
            -98 -54 -76 -80 -101 90 -121 115 72 38 44 52 27 hvcurveto
            -63 22 57 -33 61 hhcurveto
            return
          </CharString>
          <CharString index="274">
            25 callgsubr
            -45 -1 -35 -31 vvcurveto
            -25 -22 -35 -17 -51 -58 -49 23 -54 160 callsubr
            return
          </CharString>
          <CharString index="275">
            -101 callgsubr
            191 hlineto
            6 -8 3 -10 -6 -62 -227 8 -138 vvcurveto
            return
          </CharString>
          <CharString index="276">
            -28 callgsubr
            vvcurveto
            return
          </CharString>
          <CharString index="277">
            52 26 23 28 8 -3 13 -4 8 return
          </CharString>
          <CharString index="278">
            -73 callgsubr
            vvcurveto
            -32 return
          </CharString>
          <CharString index="279">
            21 12 22 29 14 hvcurveto
            -245 579 209 callgsubr
            -44 -18 -36 -36 -57 vvcurveto
            return
          </CharString>
          <CharString index="280">
            -101 callgsubr
            298 195 callgsubr
            return
          </CharString>
          <CharString index="281">
            96 callsubr
            18 -2 20 -8 20 vhcurveto
            71 -59 return
          </CharString>
          <CharString index="282">
            vvcurveto
            101 -111 90 -95 -72 -72 -44 -90 -53 30 return
          </CharString>
          <CharString index="283">
            -68 -40 -30 -18 return
          </CharString>
          <CharString index="284">
            -55 3 35 -56 55 hhcurveto
            110 callgsubr
            -1 -32 -1 -26 vhcurveto
            1 -75 -86 0 -109 291 callgsubr
            return
          </CharString>
          <CharString index="285">
            12 32 24 6 38 hhcurveto
            142 84 -111 -162 -162 -84 -109 -142 -72 -22 24 38 hvcurveto
            return
          </CharString>
          <CharString index="286">
            281 -101 callgsubr
            return
          </CharString>
          <CharString index="287">
            12 -10 23 36 vvcurveto
            return
          </CharString>
          <CharString index="288">
            hlineto
            -41 2 -102 98 10 15 1 6 14 vhcurveto
            -10 17 -4 47 35 131 5 146 140 vvcurveto
            35 -2 50 -34 27 vhcurveto
            164 -103 callgsubr
          </CharString>
          <CharString index="289">
            vvcurveto
            -66 29 -50 71 -107 callgsubr
            -38 -53 callgsubr
          </CharString>
          <CharString index="290">
            -2 14 13 204 callgsubr
            return
          </CharString>
          <CharString index="291">
            -1 75 -1 79 -9 77 rrcurveto
            -3 26 39 -2 52 hhcurveto
            196 callsubr
            -140 -74 -3 -4 -38 hvcurveto
            4 47 0 62 41 vvcurveto
            38 0 46 16 24 vhcurveto
            endchar
          </CharString>
          <CharString index="292">
            hlineto
            -24 callsubr
            return
          </CharString>
          <CharString index="293">
            rrcurveto
            -50 3 37 -41 54 hhcurveto
            return
          </CharString>
          <CharString index="294">
            43 73 66 -42 49 -11 12 return
          </CharString>
          <CharString index="295">
            rmoveto
            0 58 212 callgsubr
            return
          </CharString>
          <CharString index="296">
            -95 111 -111 98 52 22 32 35 36 -23 40 -40 15 vhcurveto
            236 callgsubr
            return
          </CharString>
          <CharString index="297">
            -574 -151 624 rmoveto
            23 22 12 30 45 -113 239 -149 246 callgsubr
            return
          </CharString>
          <CharString index="298">
            84 410 918 rmoveto
            6 -16 -16 1 -12 hhcurveto
            -108 -2 -114 -43 -24 2 -43 5 -37 hvcurveto
            1 -24 -37 2 -47 hhcurveto
            312 callsubr
            4 -16 4 -7 hvcurveto
            return
          </CharString>
          <CharString index="299">
            -103 callsubr
            134 -79 callsubr
            -2 56 -38 -53 callgsubr
          </CharString>
          <CharString index="300">
            rmoveto
            -28 -36 20 43 60 60 33 64 23 18 -3 -4 17 hvcurveto
            -73 -32 -21 -76 -65 hhcurveto
            return
          </CharString>
          <CharString index="301">
            205 416 rmoveto
            312 callsubr
            5 -16 3 -7 hvcurveto
            return
          </CharString>
          <CharString index="302">
            rrcurveto
            152 -8 -95 129 -90 hhcurveto
            return
          </CharString>
          <CharString index="303">
            42 103 0 103 10 -2 14 -4 7 hvcurveto
            return
          </CharString>
          <CharString index="304">
            -17 40 -5 vhcurveto
            return
          </CharString>
          <CharString index="305">
            218 callsubr
            -6 6 -16 7 vhcurveto
            return
          </CharString>
          <CharString index="306">
            -50 -27 -35 -39 -45 43 callgsubr
            hvcurveto
            64 84 20 21 vvcurveto
            return
          </CharString>
          <CharString index="307">
            rmoveto
            -21 -11 -7 -17 -16 vvcurveto
            -62 106 -80 130 68 107 37 81 42 -37 31 -33 2 vhcurveto
            -63 -30 -62 -27 -59 hhcurveto
            -63 -58 27 56 -41 hvcurveto
            endchar
          </CharString>
          <CharString index="308">
            hlineto
            8 -9 4 -11 -11 return
          </CharString>
          <CharString index="309">
            72 -25 46 -53 -48 -29 -46 -72 -90 48 -128 30 32 45 128 90 vhcurveto
            return
          </CharString>
          <CharString index="310">
            313 callsubr
            9 -2 15 -4 7 hvcurveto
            return
          </CharString>
          <CharString index="311">
            -40 -30 -18 -25 -22 return
          </CharString>
          <CharString index="312">
            207 callgsubr
            hvcurveto
            return
          </CharString>
          <CharString index="313">
            295 55 callsubr
            return
          </CharString>
          <CharString index="314">
            hlineto
            -55 3 35 -56 55 hhcurveto
            110 callgsubr
            242 callsubr
            return
          </CharString>
          <CharString index="315">
            29 9 28 24 33 hhcurveto
            20 12 -13 -16 -36 -38 -32 -67 -70 -90 44 84 -73 hvcurveto
            -6 -2 -21 -11 -29 vvcurveto
            -61 159 -131 149 return
          </CharString>
          <CharString index="316">
            290 callsubr
            39 46 27 -13 30 -24 24 hvcurveto
            180 -103 callgsubr
          </CharString>
          <CharString index="317">
            235 362 rmoveto
            41 20 36 24 35 hhcurveto
            51 51 -54 -111 -112 return
          </CharString>
          <CharString index="318">
            hvcurveto
            3 13 2 14 14 -19 callgsubr
            return
          </CharString>
          <CharString index="319">
            64 45 29 37 31 vhcurveto
            -3 -21 -1 -20 -14 vvcurveto
            -48 return
          </CharString>
          <CharString index="320">
            hhcurveto
            204 callsubr
            hvcurveto
            23 -12 11 -23 -35 vvcurveto
            return
          </CharString>
          <CharString index="321">
            vlineto
            130 callgsubr
            return
          </CharString>
          <CharString index="322">
            198 hlineto
            7 -9 3 -10 -10 return
          </CharString>
          <CharString index="323">
            252 callsubr
            -35 return
          </CharString>
          <CharString index="324">
            295 552 rmoveto
            7 -12 10 -45 -60 vvcurveto
            -57 -15 -64 -52 -66 -1 71 46 20 0 26 -7 24 vhcurveto
            -5 20 -10 18 -17 13 rrcurveto
            return
          </CharString>
          <CharString index="325">
            43 callgsubr
            hvcurveto
            64 84 20 21 vvcurveto
            5 return
          </CharString>
          <CharString index="326">
            vhcurveto
            10 -106 callsubr
            -528 -68 callsubr
            262 hlineto
            11 return
          </CharString>
          <CharString index="327">
            348 552 rmoveto
            -55 3 35 -56 55 hhcurveto
            -33 callgsubr
            return
          </CharString>
          <CharString index="328">
            45 -32 35 -48 -56 -56 -53 -59 -44 33 -36 48 59 52 53 59 vhcurveto
            return
          </CharString>
          <CharString index="329">
            102 callgsubr
            hvcurveto
            21 callgsubr
            return
          </CharString>
          <CharString index="330">
            -73 callgsubr
            vvcurveto
            -18 return
          </CharString>
          <CharString index="331">
            hhcurveto
            9 8 2 2 4 hvcurveto
            return
          </CharString>
          <CharString index="332">
            vvcurveto
            -48 -34 -27 -45 -7 -8 1 1 -8 vhcurveto
            49 return
          </CharString>
          <CharString index="333">
            6 -52 -49 4 -44 hhcurveto
            return
          </CharString>
          <CharString index="334">
            0 6 239 callsubr
            return
          </CharString>
          <CharString index="335">
            14 2 4 13 return
          </CharString>
          <CharString index="336">
            -44 callgsubr
            -465 -68 callsubr
            return
          </CharString>
          <CharString index="337">
            45 -46 30 -54 return
          </CharString>
          <CharString index="338">
            -1 13 hhcurveto
            41 41 22 38 230 callsubr
            -26 -26 -6 -11 return
          </CharString>
          <CharString index="339">
            128 callgsubr
            -5 vlineto
            return
          </CharString>
          <CharString index="340">
            vvcurveto
            263 callsubr
            return
          </CharString>
          <CharString index="341">
            rmoveto
            -35 -86 0 -82 -11 4 -13 3 -6 hvcurveto
            404 hlineto
            35 86 0 86 8 -2 12 -3 6 hvcurveto
            endchar
          </CharString>
          <CharString index="342">
            452 rmoveto
            -18 callsubr
            return
          </CharString>
          <CharString index="343">
            hlineto
            24 76 11 34 18 23 27 12 rlinecurve
            25 -14 -25 18 -39 hhcurveto
            -69 -31 -38 -80 -25 hvcurveto
            -22 -70 rlineto
            return
          </CharString>
          <CharString index="344">
            vvcurveto
            -135 135 -113 152 170 callsubr
            vhcurveto
            234 callgsubr
            return
          </CharString>
          <CharString index="345">
            60 58 8 33 hhcurveto
            21 9 -8 -13 -26 -62 -23 -84 -98 -88 29 45 -53 hvcurveto
            -7 -4 -16 -9 -24 vvcurveto
            return
          </CharString>
          <CharString index="346">
            hhcurveto
            104 hlineto
            29 callgsubr
            -93 -155 -21 -62 vvcurveto
            return
          </CharString>
          <CharString index="347">
            221 -101 callgsubr
            return
          </CharString>
          <CharString index="348">
            321 -101 callgsubr
            return
          </CharString>
          <CharString index="349">
            0 -32 -1 -26 vhcurveto
            return
          </CharString>
          <CharString index="350">
            hhcurveto
            -91 -50 -45 -72 -103 88 -87 101 hvcurveto
            return
          </CharString>
          <CharString index="351">
            82 19 36 31 16 -4 14 -4 8 hvcurveto
            return
          </CharString>
          <CharString index="352">
            117 rmoveto
            0 return
          </CharString>
          <CharString index="353">
            230 callgsubr
            -14 0 -15 -1 -15 vhcurveto
            -91 -6 11 -41 -43 -65 rrcurveto
            -64 -43 return
          </CharString>
          <CharString index="354">
            22 -4 27 18 vvcurveto
            39 20 23 32 38 15 215 callgsubr
            47 -40 63 -71 return
          </CharString>
          <CharString index="355">
            66 371 266 callsubr
            return
          </CharString>
          <CharString index="356">
            hhcurveto
            20 16 -14 -21 -33 -39 -48 -85 -70 -65 45 71 return
          </CharString>
          <CharString index="357">
            274 callgsubr
            -23 return
          </CharString>
          <CharString index="358">
            vhcurveto
            -23 12 -9 23 36 vvcurveto
            return
          </CharString>
          <CharString index="359">
            9 -13 4 -14 1 return
          </CharString>
          <CharString index="360" raw="1">
            1ef75306 0b  
          </CharString>
          <CharString index="361">
            -20 -4 -20 -20 276 callgsubr
            return
          </CharString>
          <CharString index="362">
            25 21 25 13 -6 8 -6 6 hvcurveto
            -9 -12 -20 -1 -13 hhcurveto
            -21 198 hlineto
            45 -18 24 return
          </CharString>
          <CharString index="363">
            240 callsubr
            230 callgsubr
            return
          </CharString>
          <CharString index="364">
            -293 rmoveto
            174 callsubr
            return
          </CharString>
          <CharString index="365">
            vvcurveto
            -50 26 -41 55 8 13 1 5 12 vhcurveto
            -9 14 -3 41 29 63 3 30 80 vvcurveto
            return
          </CharString>
          <CharString index="366">
            36 30 26 39 56 175 callsubr
            -56 49 -47 vhcurveto
            return
          </CharString>
          <CharString index="367">
            vlineto
            32 -1 24 -5 25 -11 rrcurveto
            300 callsubr
          </CharString>
          <CharString index="368">
            vhcurveto
            -62 -49 -151 -96 -110 -23 rrcurveto
            -51 3 return
          </CharString>
          <CharString index="369">
            277 callsubr
            1 return
          </CharString>
          <CharString index="370">
            205 callgsubr
            40 20 return
          </CharString>
          <CharString index="371">
            59 -39 37 -57 return
          </CharString>
          <CharString index="372">
            796 rmoveto
            315 callsubr
            -30 26 -26 30 24 16 18 22 30 -28 26 -28 hvcurveto
            return
          </CharString>
          <CharString index="373">
            669 -28 callgsubr
            return
          </CharString>
          <CharString index="374">
            rrcurveto
            1 -22 0 return
          </CharString>
          <CharString index="375">
            300 callgsubr
            -41 18 -33 68 -3 vhcurveto
            return
          </CharString>
          <CharString index="376">
            vhcurveto
            19 -15 -23 9 -19 hhcurveto
            -27 -25 -18 -38 -69 64 -48 58 52 52 35 80 return
          </CharString>
          <CharString index="377">
            vvcurveto
            36 22 49 68 40 31 -16 -21 24 vhcurveto
            return
          </CharString>
          <CharString index="378">
            504 rmoveto
            36 21 35 37 34 16 -27 -28 return
          </CharString>
          <CharString index="379">
            250 431 224 callgsubr
            return
          </CharString>
          <CharString index="380">
            vvcurveto
            37 -1 56 -38 28 vhcurveto
            return
          </CharString>
          <CharString index="381">
            hvcurveto
            23 10 25 17 29 hhcurveto
            return
          </CharString>
          <CharString index="382">
            245 callsubr
            -336 306 callsubr
            return
          </CharString>
          <CharString index="383">
            rmoveto
            24 16 18 22 30 -28 26 -28 315 callsubr
            -30 26 -26 30 hvcurveto
            return
          </CharString>
          <CharString index="384">
            hlineto
            144 callgsubr
            return
          </CharString>
          <CharString index="385">
            273 callgsubr
            -74 return
          </CharString>
          <CharString index="386">
            175 -62 vhcurveto
            return
          </CharString>
          <CharString index="387">
            421 rmoveto
            80 -21 -30 33 -65 hhcurveto
            -39 -29 -17 -33 -25 hvcurveto
            20 -13 return
          </CharString>
          <CharString index="388">
            273 callgsubr
            -75 -100 -28 -39 -40 vhcurveto
            -33 2 -38 3 return
          </CharString>
          <CharString index="389">
            rmoveto
            -3 -13 -13 -1 -14 hhcurveto
            -52 -44 34 47 24 10 18 17 14 hvcurveto
            return
          </CharString>
          <CharString index="390">
            -78 -37 -84 -42 -63 hhcurveto
            -45 -36 24 40 228 callgsubr
            endchar
          </CharString>
          <CharString index="391">
            -73 callgsubr
            vvcurveto
            -56 -1 -45 -1 return
          </CharString>
          <CharString index="392">
            hhcurveto
            -99 -41 -51 -61 return
          </CharString>
          <CharString index="393">
            vvcurveto
            69 -59 60 -103 -80 -81 -44 -59 -42 41 -20 39 39 22 14 return
          </CharString>
          <CharString index="394">
            -16 14 18 vvcurveto
            16 12 19 27 36 21 -24 -49 -99 -120 return
          </CharString>
          <CharString index="395">
            11 8 6 15 16 vvcurveto
            43 -43 59 -97 -90 -66 -67 -82 vhcurveto
            return
          </CharString>
          <CharString index="396">
            -101 callgsubr
            473 hlineto
            return
          </CharString>
          <CharString index="397">
            37 hvcurveto
            32 37 -1 36 hhcurveto
            74 35 return
          </CharString>
          <CharString index="398">
            435 rmoveto
            226 callsubr
            return
          </CharString>
          <CharString index="399">
            315 callgsubr
            -41 49 -12 12 return
          </CharString>
          <CharString index="400">
            285 callsubr
            -42 21 return
          </CharString>
          <CharString index="401">
            -57 -11 36 55 hvcurveto
            24 return
          </CharString>
          <CharString index="402">
            40 20 39 58 9 return
          </CharString>
          <CharString index="403">
            19 34 7 -1 8 -3 8 vhcurveto
            -2 -13 -14 -1 -13 hhcurveto
            return
          </CharString>
          <CharString index="404">
            rrcurveto
            -51 3 41 return
          </CharString>
          <CharString index="405">
            94 -94 76 -82 -59 -32 -37 -39 -35 25 -36 46 -4 return
          </CharString>
          <CharString index="406">
            -45 -39 -28 -49 -45 39 -44 56 34 23 16 24 10 return
          </CharString>
          <CharString index="407">
            13 16 12 23 19 vvcurveto
            43 -20 34 -76 vhcurveto
            endchar
          </CharString>
          <CharString index="408">
            0 64 4 -1 10 -4 4 hvcurveto
            return
          </CharString>
          <CharString index="409">
            rrcurveto
            -1 -3 0 -4 return
          </CharString>
          <CharString index="410">
            50 -37 41 -51 5 vhcurveto
            -76 -18 -65 -42 -73 hhcurveto
            return
          </CharString>
          <CharString index="411">
            -291 185 250 callgsubr
            return
          </CharString>
          <CharString index="412">
            hlineto
            16 -10 9 -16 -13 vvcurveto
            -15 -11 -13 -27 vhcurveto
            return
          </CharString>
          <CharString index="413">
            vlineto
            -104 callgsubr
            return
          </CharString>
          <CharString index="414">
            -23 180 callsubr
            return
          </CharString>
          <CharString index="415">
            26 16 36 46 vvcurveto
            37 -13 35 -20 30 vhcurveto
            return
          </CharString>
          <CharString index="416">
            hlineto
            216 callsubr
            rrcurveto
            1 -13 0 return
          </CharString>
          <CharString index="417">
            -8 -15 5 -13 hhcurveto
            -86 -12 -78 -48 -6 2 return
          </CharString>
          <CharString index="418">
            hlineto
            4 -7 3 -8 -9 vvcurveto
            return
          </CharString>
          <CharString index="419">
            -42 -103 0 -98 -13 return
          </CharString>
          <CharString index="420">
            hlineto
            42 103 0 103 return
          </CharString>
          <CharString index="421">
            -27 -57 0 -27 hhcurveto
            return
          </CharString>
          <CharString index="422">
            -24 -16 -17 -23 return
          </CharString>
          <CharString index="423">
            0 292 128 callgsubr
            return
          </CharString>
          <CharString index="424">
            -80 118 callsubr
            return
          </CharString>
          <CharString index="425">
            hlineto
            278 callgsubr
            vvcurveto
            return
          </CharString>
          <CharString index="426">
            25 26 -18 19 -26 -25 -19 -19 -26 vhcurveto
            return
          </CharString>
          <CharString index="427">
            1 233 callgsubr
            return
          </CharString>
          <CharString index="428">
            19 callgsubr
            -15 -1 return
          </CharString>
          <CharString index="429">
            33 -36 48 58 53 53 59 vhcurveto
            endchar
          </CharString>
          <CharString index="430">
            12 -33 11 -47 vhcurveto
            endchar
          </CharString>
          <CharString index="431">
            hvcurveto
            -2 8 -1 return
          </CharString>
        <CharString name=".notdef">
          182 160 hmoveto
          436 701 -436 hlineto
          81 -76 rmoveto
          275 -549 -275 hlineto
          endchar
        </CharString>
        <CharString name="A">
          168 279 236 -72 callgsubr
        </CharString>
        <CharString name="AE">
          501 325 293 rmoveto
          151 313 rlineto
          -313 vlineto
          204 -165 rmoveto
          -32 -14 15 30 hvcurveto
          156 127 vlineto
          50 40 0 -12 36 hvcurveto
          19 15 13 22 308 callgsubr
          21 242 callgsubr
          150 223 hlineto
          50 41 -5 -14 35 hvcurveto
          19 16 13 21 308 callgsubr
          29 -108 vhcurveto
          -372 hlineto
          -87 -38 -32 -70 -36 hvcurveto
          -263 -514 -24 -46 -12 -15 -24 -12 rlinecurve
          -30 17 43 -23 44 hhcurveto
          42 33 20 60 29 hvcurveto
          43 90 rlineto
          213 -19 hlineto
          -91 57 -54 128 vhcurveto
          226 hlineto
          89 39 42 53 29 -13 28 -19 16 hvcurveto
          -26 -36 -40 -14 -50 hhcurveto
          endchar
        </CharString>
        <CharString name="Aacute">
          168 453 862 -72 callsubr
          -93 -564 -72 callgsubr
        </CharString>
        <CharString name="Abreve">
          168 371 812 80 callsubr
          -92 -576 -72 callgsubr
        </CharString>
        <CharString name="Acircumflex">
          168 371 882 -26 callgsubr
          3 -564 -72 callgsubr
        </CharString>
        <CharString name="Adieresis">
          168 460 802 rmoveto
          50 46 46 50 -5 callgsubr
          hvcurveto
          -204 hmoveto
          50 46 46 50 -5 callgsubr
          hvcurveto
          23 -566 -72 callgsubr
        </CharString>
        <CharString name="Agrave">
          168 366 800 -1 callgsubr
          -6 -626 -72 callgsubr
        </CharString>
        <CharString name="Amacron">
          168 495 827 117 callsubr
          99 -591 -72 callgsubr
        </CharString>
        <CharString name="Aogonek">
          168 279 236 rmoveto
          87 290 92 -290 rlineto
          16 386 rmoveto
          80 -30 -19 44 -73 hhcurveto
          -44 -34 -20 -28 -18 hvcurveto
          18 -13 12 -15 9 -26 -205 -529 rcurveline
          -18 -45 -12 -20 -24 -10 rrcurveto
          -30 12 44 -21 42 hhcurveto
          42 36 24 74 22 hvcurveto
          16 53 rlineto
          238 hlineto
          17 -54 13 -40 15 -25 20 -15 rlinecurve
          -40 -25 -26 -35 -39 218 callsubr
          -5 5 -13 6 vhcurveto
          -28 16 -19 29 -16 44 rrcurveto
          endchar
        </CharString>
        <CharString name="Aring">
          168 365 951 107 callgsubr
          -152 rmoveto
          62 52 31 63 64 -52 31 -62 -62 -52 -31 -64 -63 52 -31 62 hvcurveto
          -92 -563 -72 callgsubr
        </CharString>
        <CharString name="Atilde">
          168 235 813 rmoveto
          64 callsubr
          143 callgsubr
          44 -577 -72 callgsubr
        </CharString>
        <CharString name="B">
          211 432 320 rmoveto
          87 52 -37 -69 -63 -52 -43 -87 hvcurveto
          -105 hlineto
          -52 -13 16 42 hvcurveto
          154 vlineto
          137 309 rmoveto
          89 36 -50 -51 -59 -36 -43 -89 1 hvcurveto
          -137 1 rlineto
          201 vlineto
          -100 107 rmoveto
          304 callgsubr
          -457 vlineto
          -127 48 -39 152 vhcurveto
          128 hlineto
          209 92 105 100 92 -77 75 -113 16 hvcurveto
          86 19 56 54 79 vvcurveto
          100 -85 96 -201 vhcurveto
          endchar
        </CharString>
        <CharString name="C">
          164 670 599 rmoveto
          201 callgsubr
          -236 123 -136 210 159 118 100 75 44 -28 15 -7 3 vhcurveto
          109 callgsubr
          hvcurveto
          endchar
        </CharString>
        <CharString name="CR">
          -294 endchar
        </CharString>
        <CharString name="Cacute">
          164 670 599 rmoveto
          201 callgsubr
          -236 123 -136 210 159 118 100 75 44 -28 15 -7 3 vhcurveto
          109 callgsubr
          hvcurveto
          -218 263 -72 callsubr
          endchar
        </CharString>
        <CharString name="Ccaron">
          164 550 964 -64 callgsubr
          160 -631 rmoveto
          109 callgsubr
          201 callgsubr
          -236 123 -136 210 159 118 100 75 44 -28 15 -7 3 hvcurveto
          endchar
        </CharString>
        <CharString name="Ccedilla">
          164 296 68 callsubr
          11 51 rlineto
          153 6 111 96 73 vvcurveto
          44 -28 15 -7 3 vhcurveto
          109 callgsubr
          201 callgsubr
          -203 91 -128 158 -33 hvcurveto
          endchar
        </CharString>
        <CharString name="D">
          229 104 169 rmoveto
          146 callgsubr
          158 38 rmoveto
          178 callsubr
          endchar
        </CharString>
        <CharString name="Dcaron">
          229 582 958 -64 callgsubr
          -247 -229 rmoveto
          178 callsubr
          -158 11 rmoveto
          146 callgsubr
          endchar
        </CharString>
        <CharString name="E">
          142 337 128 -77 callgsubr
        </CharString>
        <CharString name="Eacute">
          142 465 862 -72 callsubr
          -47 -672 -77 callgsubr
        </CharString>
        <CharString name="Ecaron">
          142 563 964 -64 callgsubr
          -153 -729 -77 callgsubr
        </CharString>
        <CharString name="Ecircumflex">
          142 383 882 -26 callgsubr
          49 -672 -77 callgsubr
        </CharString>
        <CharString name="Edieresis">
          142 472 802 rmoveto
          50 46 46 50 -5 callgsubr
          hvcurveto
          -204 hmoveto
          50 46 46 50 -5 callgsubr
          hvcurveto
          69 -674 -77 callgsubr
        </CharString>
        <CharString name="Edotaccent">
          142 370 812 rmoveto
          49 45 44 49 175 callgsubr
          hvcurveto
          -33 -684 -77 callgsubr
        </CharString>
        <CharString name="Egrave">
          142 378 800 -1 callgsubr
          40 -734 -77 callgsubr
        </CharString>
        <CharString name="Emacron">
          142 507 827 117 callsubr
          145 -699 -77 callgsubr
        </CharString>
        <CharString name="Eogonek">
          142 337 128 rmoveto
          313 callgsubr
          130 127 vlineto
          50 40 0 -12 36 hvcurveto
          19 15 13 22 308 callgsubr
          21 242 callgsubr
          150 223 hlineto
          50 41 -5 -14 35 hvcurveto
          19 16 13 21 308 callgsubr
          29 -108 vhcurveto
          -334 hlineto
          120 callsubr
          -444 vlineto
          -125 61 -54 132 vhcurveto
          124 hlineto
          -39 -26 -25 -34 -38 43 callgsubr
          56 63 22 17 19 hvcurveto
          29 17 13 27 31 vvcurveto
          29 -13 28 -19 16 vhcurveto
          -26 -36 -40 -14 -50 hhcurveto
          endchar
        </CharString>
        <CharString name="Eth">
          265 262 329 rmoveto
          94 hlineto
          27 63 0 63 5 -1 10 -3 3 hvcurveto
          -180 212 hlineto
          178 callsubr
          -158 252 rmoveto
          -19 hlineto
          -26 -64 0 -60 -8 3 -10 2 -3 hvcurveto
          104 -160 hlineto
          146 callgsubr
          endchar
        </CharString>
        <CharString name="Euro">
          205 445 252 rmoveto
          27 63 301 callsubr
          -224 hlineto
          14 -1 14 15 vvcurveto
          11 0 11 1 10 vhcurveto
          139 hlineto
          27 63 0 64 5 -1 9 -4 4 hvcurveto
          -212 hlineto
          106 25 62 61 69 hhcurveto
          66 24 -47 -55 -8 hvcurveto
          -15 24 27 -6 24 hhcurveto
          58 54 22 59 79 -117 51 -138 -174 -113 -98 -157 -38 hvcurveto
          -25 hlineto
          245 callgsubr
          97 hlineto
          -1 -16 -1 -16 -16 vvcurveto
          -9 0 -9 1 -9 vhcurveto
          -11 hlineto
          245 callgsubr
          104 hlineto
          -168 32 108 -95 165 hhcurveto
          160 117 100 75 44 -27 15 -8 3 hvcurveto
          -46 -38 -83 -56 -86 hhcurveto
          -79 -68 31 97 -29 hvcurveto
          endchar
        </CharString>
        <CharString name="F">
          96 175 736 rmoveto
          120 callsubr
          -515 137 callsubr
          231 127 vlineto
          50 40 0 -10 36 hvcurveto
          19 13 13 19 24 vvcurveto
          44 -39 18 242 callgsubr
          177 223 hlineto
          50 41 -5 -14 35 hvcurveto
          19 16 13 21 29 vvcurveto
          41 -27 29 -108 vhcurveto
          endchar
        </CharString>
        <CharString name="G">
          216 716 280 14 callsubr
        </CharString>
        <CharString name="Gbreve">
          216 445 812 80 callsubr
          271 -532 14 callsubr
        </CharString>
        <CharString name="H">
          278 743 628 rmoveto
          78 callgsubr
          -209 -318 203 vlineto
          -30 callsubr
          220 318 -215 137 callsubr
          endchar
        </CharString>
        <CharString name="I">
          -197 268 628 rmoveto
          -30 callsubr
          endchar
        </CharString>
        <CharString name="Iacute">
          -197 270 862 -72 callsubr
          79 -172 rmoveto
          -30 callsubr
          endchar
        </CharString>
        <CharString name="Icircumflex">
          -197 268 628 rmoveto
          -30 callsubr
          27 812 114 callgsubr
        </CharString>
        <CharString name="Idieresis">
          -197 373 898 rmoveto
          -5 callgsubr
          50 46 46 50 vhcurveto
          -204 hmoveto
          -5 callgsubr
          50 46 46 50 vhcurveto
          99 -270 rmoveto
          -30 callsubr
          endchar
        </CharString>
        <CharString name="Idotaccent">
          -197 269 905 rmoveto
          175 callgsubr
          49 45 44 49 vhcurveto
          -1 -277 rmoveto
          -30 callsubr
          endchar
        </CharString>
        <CharString name="Igrave">
          -197 183 800 -1 callgsubr
          166 -234 rmoveto
          -30 callsubr
          endchar
        </CharString>
        <CharString name="Imacron">
          -197 65 907 71 callgsubr
          -111 -279 rmoveto
          -30 callsubr
          endchar
        </CharString>
        <CharString name="Iogonek">
          -197 268 628 rmoveto
          108 callsubr
          -526 vlineto
          -57 15 -37 35 -16 vhcurveto
          -51 -26 -34 -39 -45 198 callsubr
          -23 12 -9 23 36 vvcurveto
          endchar
        </CharString>
        <CharString name="J">
          -106 403 628 rmoveto
          67 callgsubr
          -444 vlineto
          -51 -37 -25 -47 -46 -36 16 32 -37 vhcurveto
          -14 -13 -11 -23 -25 vvcurveto
          -61 68 -51 104 123 90 67 141 vhcurveto
          endchar
        </CharString>
        <CharString name="K">
          195 397 379 rmoveto
          105 callsubr
        </CharString>
        <CharString name="L">
          35 callsubr
          endchar
        </CharString>
        <CharString name="Lacute">
          35 callsubr
          160 228 -72 callsubr
          endchar
        </CharString>
        <CharString name="Lcaron">
          35 callsubr
          392 35 rmoveto
          264 callsubr
          196 callgsubr
          vhcurveto
          -32 callgsubr
          hvcurveto
          endchar
        </CharString>
        <CharString name="Lslash">
          16 331 116 rmoveto
          313 callgsubr
          234 vlineto
          87 42 24 12 50 24 -27 58 rlinecurve
          -2 5 -5 8 -5 1 -122 -58 rcurveline
          115 154 callgsubr
          -196 vlineto
          -41 -20 -24 -12 -58 -26 25 -55 rlinecurve
          4 -7 14 -7 4 -3 76 37 rcurveline
          -178 vlineto
          -125 50 -42 132 vhcurveto
          150 hlineto
          84 39 50 53 21 -7 20 -17 12 hvcurveto
          -26 -24 -33 -14 -51 hhcurveto
          endchar
        </CharString>
        <CharString name="M">
          396 863 630 rmoveto
          -3 35 4 32 16 27 rrcurveto
          12 -28 -40 10 -42 hhcurveto
          -106 -56 -30 -146 -40 hvcurveto
          -78 -282 -80 287 rlineto
          114 -31 -32 57 -101 hhcurveto
          -65 -62 -19 -20 -37 hvcurveto
          16 -22 6 -33 -2 -33 -40 -511 rcurveline
          -2 -34 -10 -27 -20 -19 rrcurveto
          -24 23 31 -15 37 hhcurveto
          54 22 36 73 5 hvcurveto
          29 504 181 -555 8 -27 8 -19 41 -1 rlinecurve
          41 14 19 27 9 hvcurveto
          175 555 28 -506 rlineto
          -82 4 40 -20 54 hhcurveto
          36 19 6 11 24 hvcurveto
          -11 20 -8 50 -1 32 rrcurveto
          endchar
        </CharString>
        <CharString name="N">
          282 110 108 -12 callsubr
          endchar
        </CharString>
        <CharString name="NULL">
          -574 endchar
        </CharString>
        <CharString name="Nacute">
          282 110 108 -12 callsubr
          400 228 -72 callsubr
          endchar
        </CharString>
        <CharString name="Ncaron">
          282 608 964 -64 callgsubr
          225 -229 rmoveto
          76 callsubr
          -526 vlineto
          74 callsubr
          endchar
        </CharString>
        <CharString name="Ntilde">
          282 527 925 rmoveto
          143 callgsubr
          64 callsubr
          -417 -817 -12 callsubr
          endchar
        </CharString>
        <CharString name="O">
          220 414 88 136 callgsubr
        </CharString>
        <CharString name="OE">
          565 538 126 rmoveto
          -18 -33 -39 -10 -52 hhcurveto
          -124 -40 117 134 -9 hvcurveto
          173 -9 78 115 123 hhcurveto
          42 34 -8 -15 29 hvcurveto
          222 -486 rmoveto
          -42 -21 22 49 hvcurveto
          130 127 vlineto
          51 39 0 -12 36 hvcurveto
          20 15 13 22 29 vvcurveto
          53 -40 21 242 callgsubr
          150 223 hlineto
          51 41 -5 -14 34 hvcurveto
          20 16 13 21 29 vvcurveto
          53 -40 29 -108 vhcurveto
          -513 hlineto
          -227 -125 -158 -210 -210 98 -158 267 hvcurveto
          519 hlineto
          89 40 42 53 29 -13 28 -20 16 hvcurveto
          -26 -36 -39 -14 -51 hhcurveto
          endchar
        </CharString>
        <CharString name="Oacute">
          220 414 88 -46 callgsubr
          -249 494 -72 callsubr
          endchar
        </CharString>
        <CharString name="Ocircumflex">
          220 397 882 -26 callgsubr
          112 -712 rmoveto
          -124 -52 127 153 -9 hvcurveto
          154 -9 36 126 123 hhcurveto
          126 52 -126 -154 8 hvcurveto
          -153 10 -36 -127 -125 hhcurveto
          -17 658 rmoveto
          -233 -98 -168 -210 -210 98 -169 233 240 91 169 324 callgsubr
          -90 168 -241 hvcurveto
          endchar
        </CharString>
        <CharString name="Odieresis">
          220 414 88 -46 callgsubr
          -146 530 rmoveto
          -5 callgsubr
          50 46 46 50 vhcurveto
          -204 hmoveto
          -5 callgsubr
          50 46 46 50 vhcurveto
          endchar
        </CharString>
        <CharString name="Ograve">
          220 392 800 -1 callgsubr
          103 -774 136 callgsubr
        </CharString>
        <CharString name="Ohungarumlaut">
          220 414 88 -46 callgsubr
          -302 440 59 callgsubr
          endchar
        </CharString>
        <CharString name="Omacron">
          220 414 88 -46 callgsubr
          -454 539 71 callgsubr
          endchar
        </CharString>
        <CharString name="Oslash">
          258 553 463 rmoveto
          7 -29 3 -32 2 -33 rrcurveto
          -153 10 -36 -127 -125 hhcurveto
          -61 -43 31 49 -30 hvcurveto
          -28 64 rmoveto
          -13 40 -7 47 -3 49 rrcurveto
          154 -9 36 126 123 hhcurveto
          76 48 -45 -70 29 hvcurveto
          109 117 rmoveto
          60 -53 -79 36 -112 hhcurveto
          -233 -98 -168 -210 -101 23 -91 49 -68 hvcurveto
          -22 -23 -18 -19 -27 -29 -29 -15 rlinecurve
          -23 5 18 -11 17 hhcurveto
          22 21 12 30 27 hvcurveto
          29 31 rlineto
          -45 52 71 -27 93 hhcurveto
          240 91 169 210 86 -15 79 -35 64 hvcurveto
          48 51 18 19 28 29 28 16 rlinecurve
          23 -4 -18 10 322 callgsubr
        </CharString>
        <CharString name="Otilde">
          220 496 925 rmoveto
          143 callgsubr
          64 callsubr
          -82 -837 136 callgsubr
        </CharString>
        <CharString name="P">
          56 293 643 rmoveto
          93 51 -56 -88 -87 -51 -58 -93 hvcurveto
          -57 289 hlineto
          -100 93 rmoveto
          304 callgsubr
          -515 vlineto
          -58 callgsubr
          159 88 vlineto
          149 146 72 165 166 -146 72 -149 -1 hvcurveto
          endchar
        </CharString>
        <CharString name="Q">
          270 756 415 rmoveto
          210 -138 121 -184 -220 -144 -168 -225 -174 104 -73 101 74 38 47 48 8 -1 8 -2 8 vhcurveto
          -5 -5 -1 -5 hhcurveto
          -83 -59 63 125 140 61 91 110 111 84 -114 -138 -145 -73 -116 -152 -71 hvcurveto
          -54 -25 -10 -12 -20 vvcurveto
          -73 140 -137 170 155 31 132 59 -58 vhcurveto
          -23 -33 -39 -10 -41 hhcurveto
          -81 -67 14 34 -55 hvcurveto
          222 62 108 170 185 vvcurveto
          endchar
        </CharString>
        <CharString name="R">
          102 236 624 -15 callgsubr
        </CharString>
        <CharString name="Racute">
          102 410 862 -72 callsubr
          -93 -176 -15 callgsubr
        </CharString>
        <CharString name="Rcaron">
          102 508 964 -64 callgsubr
          -199 -233 -15 callgsubr
        </CharString>
        <CharString name="S">
          22 callsubr
          endchar
        </CharString>
        <CharString name="Sacute">
          22 callsubr
          -209 264 -72 callsubr
          endchar
        </CharString>
        <CharString name="Scaron">
          128 532 964 -64 callgsubr
          -211 -283 rmoveto
          88 callgsubr
          85 -109 63 -160 -153 -130 -76 -130 hvcurveto
          -205 412 -12 -143 vvcurveto
          -59 -49 -35 -86 -82 -50 34 36 22 9 20 15 14 vhcurveto
          17 -21 -29 15 -36 hhcurveto
          -46 -50 -33 -59 -97 130 -66 160 156 136 87 132 hvcurveto
          225 -412 24 117 vvcurveto
          endchar
        </CharString>
        <CharString name="T">
          75 167 736 76 callgsubr
        </CharString>
        <CharString name="Tcaron">
          75 505 928 -64 callgsubr
          -265 -85 76 callgsubr
        </CharString>
        <CharString name="Thorn">
          105 268 504 rmoveto
          13 33 33 6 37 hhcurveto
          79 58 -45 -77 -77 -58 -46 -79 -37 -33 6 13 -33 hvcurveto
          331 vmoveto
          -30 callsubr
          101 vlineto
          -16 36 52 -10 51 hhcurveto
          141 119 87 136 135 -119 88 -141 -51 -52 -10 -16 -36 hvcurveto
          endchar
        </CharString>
        <CharString name="U">
          183 94 263 68 callgsubr
        </CharString>
        <CharString name="Uacute">
          183 94 263 -43 callsubr
          379 228 -72 callsubr
          endchar
        </CharString>
        <CharString name="Ucircumflex">
          183 391 882 -26 callgsubr
          244 -560 rmoveto
          -91 -62 -43 -83 -81 -63 43 91 vhcurveto
          388 vlineto
          78 callgsubr
          -371 vlineto
          -166 91 -108 324 callgsubr
          92 108 166 vhcurveto
          365 vlineto
          67 callgsubr
          endchar
        </CharString>
        <CharString name="Udieresis">
          183 94 263 -43 callsubr
          482 264 rmoveto
          -5 callgsubr
          50 46 46 50 vhcurveto
          -204 hmoveto
          -5 callgsubr
          50 46 46 50 vhcurveto
          endchar
        </CharString>
        <CharString name="Ugrave">
          183 386 800 -1 callgsubr
          -211 -599 68 callgsubr
        </CharString>
        <CharString name="Uhungarumlaut">
          183 420 808 59 callgsubr
          -212 -652 68 callgsubr
        </CharString>
        <CharString name="Umacron">
          183 268 907 71 callgsubr
          -488 -644 68 callgsubr
        </CharString>
        <CharString name="Uogonek">
          183 540 240 rmoveto
          -91 -62 -43 -83 -81 -63 43 91 vhcurveto
          388 vlineto
          78 callgsubr
          -371 vlineto
          -150 74 -102 169 -19 vhcurveto
          -51 -26 -35 -40 -45 43 callgsubr
          55 63 23 17 19 hvcurveto
          140 29 63 98 137 vvcurveto
          365 vlineto
          67 callgsubr
          endchar
        </CharString>
        <CharString name="Uring">
          183 94 263 -43 callsubr
          291 317 107 callgsubr
          37 rmoveto
          -62 -52 -31 -64 -63 52 -31 62 62 52 31 63 64 -52 31 -62 hvcurveto
          endchar
        </CharString>
        <CharString name="V">
          167 216 626 rmoveto
          95 -27 -43 25 321 callgsubr
          8 -29 14 -43 164 -496 rcurveline
          -95 32 33 -36 70 hhcurveto
          150 219 370 222 105 -49 61 -73 -33 -42 -16 -19 -23 hvcurveto
          27 -53 8 -46 -80 vvcurveto
          -133 -60 -180 -97 -113 vhcurveto
          endchar
        </CharString>
        <CharString name="W">
          459 602 650 rmoveto
          70 -17 -35 26 -56 hhcurveto
          -40 -29 -13 -29 -28 hvcurveto
          26 -16 10 -29 12 -43 21 -77 rcurveline
          -28 -164 -32 -127 -62 -109 -98 487 rcurveline
          94 -19 -51 26 321 callgsubr
          11 -29 11 -43 126 -496 rcurveline
          -99 25 33 -32 70 hhcurveto
          77 80 132 172 53 hvcurveto
          46 -173 rlineto
          -94 25 38 -37 47 hhcurveto
          126 199 384 196 125 -69 52 -73 -31 -50 -19 -14 -19 hvcurveto
          45 -38 22 -62 -80 vvcurveto
          -105 -38 -138 -75 -155 vhcurveto
          endchar
        </CharString>
        <CharString name="X">
          100 425 373 rmoveto
          171 235 rlineto
          29 21 18 9 31 hhcurveto
          65 -40 36 -48 -68 -36 -48 -122 -64 vhcurveto
          -53 -99 -121 190 rlineto
          60 -38 -34 18 -46 hhcurveto
          -57 -37 -36 -57 -14 hvcurveto
          30 32 -13 -57 36 hvcurveto
          142 -223 -170 -234 rlineto
          -29 -21 -18 -9 -31 hhcurveto
          -65 40 -34 48 68 36 46 122 64 vhcurveto
          52 98 120 -188 rlineto
          -62 40 32 -16 47 hhcurveto
          56 37 36 58 15 hvcurveto
          -30 -33 13 56 -36 hvcurveto
          endchar
        </CharString>
        <CharString name="Y">
          81 610 576 41 callgsubr
        </CharString>
        <CharString name="Yacute">
          81 410 862 -72 callsubr
          281 -224 41 callgsubr
        </CharString>
        <CharString name="Ydieresis">
          81 417 802 rmoveto
          50 46 46 50 -5 callgsubr
          hvcurveto
          -204 hmoveto
          50 46 46 50 -5 callgsubr
          hvcurveto
          397 -226 41 callgsubr
        </CharString>
        <CharString name="Z">
          103 180 123 -1 callsubr
        </CharString>
        <CharString name="Zacute">
          103 420 862 -72 callsubr
          -159 -677 -1 callsubr
        </CharString>
        <CharString name="Zcaron">
          103 518 964 -64 callgsubr
          -265 -734 -1 callsubr
        </CharString>
        <CharString name="Zdotaccent">
          103 325 812 rmoveto
          49 45 44 49 175 callgsubr
          hvcurveto
          -145 -689 -1 callsubr
        </CharString>
        <CharString name="a">
          -5 340 126 -84 callsubr
        </CharString>
        <CharString name="aacute">
          -5 378 56 callgsubr
          43 -461 -84 callsubr
        </CharString>
        <CharString name="abreve">
          -5 296 599 80 callsubr
          44 -473 -84 callsubr
        </CharString>
        <CharString name="acircumflex">
          -5 296 669 -26 callgsubr
          139 -461 -84 callsubr
        </CharString>
        <CharString name="acute">
          -298 178 56 callgsubr
          endchar
        </CharString>
        <CharString name="adieresis">
          -5 385 589 rmoveto
          50 46 46 50 -5 callgsubr
          hvcurveto
          -204 hmoveto
          50 46 46 50 -5 callgsubr
          hvcurveto
          159 -463 -84 callsubr
        </CharString>
        <CharString name="ae">
          252 266 88 rmoveto
          -33 -23 14 35 42 32 39 98 5 hvcurveto
          1 -32 5 -29 9 -26 rrcurveto
          -31 -25 -34 -17 -30 hhcurveto
          233 231 rmoveto
          90 11 36 42 38 hhcurveto
          33 17 -38 -39 -32 -15 -8 -21 -3 hvcurveto
          82 -84 rmoveto
          83 3 33 28 74 vvcurveto
          90 -80 92 -118 -61 -53 -21 -36 -43 vhcurveto
          38 -38 -47 19 -76 hhcurveto
          -102 -113 -50 -78 -47 31 -36 65 37 31 13 23 22 hvcurveto
          -10 12 -6 18 13 vvcurveto
          28 22 20 29 33 21 -19 -48 vhcurveto
          -95 vlineto
          -190 -3 -110 -66 -100 vvcurveto
          -84 70 -46 104 75 59 31 48 45 vhcurveto
          -51 43 68 -28 88 239 callgsubr
        </CharString>
        <CharString name="agrave">
          -5 291 587 -1 callgsubr
          130 -523 -84 callsubr
        </CharString>
        <CharString name="amacron">
          -5 420 614 117 callsubr
          235 -488 -84 callsubr
        </CharString>
        <CharString name="ampersand">
          206 247 350 rmoveto
          108 16 89 41 -36 hvcurveto
          -81 -56 46 63 46 28 26 34 39 25 -29 -73 hvcurveto
          80 -25 62 47 59 vvcurveto
          57 -78 51 -92 -103 -115 -95 -130 -70 29 -61 62 -27 vhcurveto
          -62 -36 -47 -50 -77 vvcurveto
          -128 121 -85 163 172 127 120 149 41 -9 30 -16 32 vhcurveto
          8 hlineto
          113 53 43 71 70 -71 59 -97 -44 hvcurveto
          -66 11 -15 -46 -103 hhcurveto
          -87 3 -62 -37 24 hvcurveto
          60 35 -29 -60 -78 -80 -49 -96 -96 -80 49 78 36 12 28 31 26 hvcurveto
          endchar
        </CharString>
        <CharString name="ampersand.alt">
          226 346 109 rmoveto
          -87 -55 44 68 39 15 33 52 34 hvcurveto
          19 -20 21 -22 24 -25 50 -52 42 -42 35 -34 rrcurveto
          -15 -36 -41 -8 -39 hhcurveto
          11 535 rmoveto
          31 29 -23 -49 -43 -19 -42 -46 -33 hvcurveto
          -39 50 -16 36 27 vvcurveto
          51 30 26 30 vhcurveto
          428 -491 rmoveto
          -16 -16 -21 -11 -24 hhcurveto
          -17 -22 7 27 -37 hvcurveto
          48 57 29 64 59 vvcurveto
          55 -34 36 -51 -29 -28 -14 -19 -21 vhcurveto
          24 -24 12 -28 -42 vvcurveto
          -31 -9 -28 -14 -24 vhcurveto
          -28 26 -33 31 -40 40 -27 27 -23 24 -20 22 rrcurveto
          94 42 82 53 86 vvcurveto
          71 -78 76 -145 -109 -114 -62 -104 -54 22 -42 61 -70 vhcurveto
          -127 -66 -45 -63 -78 vvcurveto
          -106 88 -83 175 82 81 29 44 68 vhcurveto
          -61 75 42 -12 54 hhcurveto
          62 35 48 50 22 -7 23 -15 19 hvcurveto
          endchar
        </CharString>
        <CharString name="aogonek">
          -5 340 126 rmoveto
          -25 -22 -25 -13 -27 hhcurveto
          -33 -23 14 35 42 32 39 98 5 hvcurveto
          208 -175 rmoveto
          -32 12 -19 26 41 vvcurveto
          227 vlineto
          133 -95 47 -115 -115 -107 -39 -86 -39 31 -36 65 37 31 13 23 22 vhcurveto
          -10 11 -6 14 18 vvcurveto
          32 23 20 29 29 24 -20 -43 vhcurveto
          -114 vlineto
          -190 -3 -110 -66 -100 vvcurveto
          -84 61 -46 90 69 53 31 35 33 vhcurveto
          7 -26 13 -18 19 -11 rrcurveto
          -37 -25 -24 -34 -37 198 callsubr
          endchar
        </CharString>
        <CharString name="apostrophemod">
          -309 87 752 69 callsubr
          endchar
        </CharString>
        <CharString name="approxequal">
          139 528 290 rmoveto
          138 callsubr
          -33 -2 -23 -23 -37 hhcurveto
          250 vmoveto
          138 callsubr
          -33 -2 -23 -23 -37 hhcurveto
          endchar
        </CharString>
        <CharString name="aring">
          -5 290 738 107 callgsubr
          -152 rmoveto
          62 52 31 63 64 -52 31 -62 -62 -52 -31 -64 -63 52 -31 62 hvcurveto
          44 -460 -84 callsubr
        </CharString>
        <CharString name="asciicircum">
          160 443 671 rmoveto
          53 -25 -20 24 -36 hhcurveto
          -36 -28 -24 -47 -27 hvcurveto
          -153 -271 rlineto
          -20 -34 -8 -28 -22 vvcurveto
          -60 53 -27 44 vhcurveto
          175 336 113 -249 rlineto
          -70 33 32 -34 40 hhcurveto
          20 22 9 17 22 hvcurveto
          endchar
        </CharString>
        <CharString name="asciitilde">
          139 590 476 rmoveto
          -33 -2 -23 -23 -37 138 callsubr
          endchar
        </CharString>
        <CharString name="asterisk">
          79 402 847 rmoveto
          46 -25 36 -53 -47 -25 -35 -44 -35 20 -42 18 -33 vhcurveto
          36 -31 -49 40 -40 hhcurveto
          -33 -41 -24 -54 -44 43 -30 57 24 25 3 5 23 hvcurveto
          -51 -22 -63 -42 -51 vvcurveto
          -31 33 -45 43 69 21 89 65 6 vhcurveto
          -65 4 23 -88 67 hhcurveto
          37 42 36 36 53 -63 42 -52 22 hvcurveto
          -5 23 27 -5 24 hhcurveto
          54 45 29 47 51 -34 27 -37 -46 -50 -46 -35 -32 hvcurveto
          20 32 24 45 36 vvcurveto
          endchar
        </CharString>
        <CharString name="at">
          384 522 194 rmoveto
          -21 -22 -22 -11 -26 hhcurveto
          -31 -20 12 29 2 hvcurveto
          3 35 30 31 91 6 rrcurveto
          3 54 rmoveto
          -175 -3 -104 -56 -5 -82 rrcurveto
          -70 -5 54 -38 83 hhcurveto
          65 51 26 31 32 hvcurveto
          -38 13 39 -19 51 hhcurveto
          139 118 107 183 164 -117 161 -234 -285 -196 -209 -248 -216 146 -118 195 137 139 54 44 -40 hvcurveto
          -26 -71 -70 -12 -74 hhcurveto
          -192 -104 96 178 217 144 173 252 7 hvcurveto
          204 6 106 -121 -6 -172 rrcurveto
          -132 -5 -64 -64 -55 hhcurveto
          -22 -10 14 28 2 hvcurveto
          11 190 rlineto
          112 7 -80 38 -105 hhcurveto
          -105 -106 -42 -65 -4 hvcurveto
          -39 -2 26 -30 59 hhcurveto
          35 29 12 18 21 hvcurveto
          -8 10 -5 15 1 11 rrcurveto
          24 2 20 16 26 hhcurveto
          32 18 -16 -40 -3 hvcurveto
          endchar
        </CharString>
        <CharString name="atilde">
          -5 160 600 rmoveto
          64 callsubr
          143 callgsubr
          180 -474 -84 callsubr
        </CharString>
        <CharString name="b">
          34 210 callsubr
          -50 -76 -74 -41 -28 20 61 hvcurveto
          510 vmoveto
          80 -31 39 176 callsubr
          -24 -22 vhcurveto
          23 -14 297 callgsubr
          -516 vlineto
          -131 86 -35 131 168 123 106 187 160 -96 92 -113 -58 -49 -22 -44 -35 vhcurveto
          endchar
        </CharString>
        <CharString name="backslash">
          57 137 1052 rmoveto
          -16 -24 -4 -17 -20 hvcurveto
          17 -12 13 -35 8 -25 217 -617 46 -143 92 -263 rrcurveto
          -27 10 23 -64 56 hhcurveto
          15 20 3 20 23 hvcurveto
          -12 10 -17 37 -10 27 -111 317 -121 360 -122 343 rrcurveto
          27 -9 -23 63 -55 hhcurveto
          endchar
        </CharString>
        <CharString name="bar">
          -197 268 868 rmoveto
          108 callsubr
          -982 -7 callgsubr
          endchar
        </CharString>
        <CharString name="braceleft">
          14 436 1058 rmoveto
          27 -17 -53 13 -28 hhcurveto
          -81 -82 -61 -141 hvcurveto
          -106 30 -110 -87 -123 -85 2 -39 -38 85 1 -122 -88 -30 -109 -107 vvcurveto
          -140 82 -62 81 28 53 14 26 17 vhcurveto
          -65 16 -43 50 79 71 27 158 75 vvcurveto
          135 -99 40 -18 1 vhcurveto
          18 1 99 40 136 74 -27 158 71 vvcurveto
          79 43 51 65 15 vhcurveto
          endchar
        </CharString>
        <CharString name="braceright">
          14 380 896 rmoveto
          141 -81 61 -82 -27 -53 -13 -27 -17 vhcurveto
          65 -15 43 -51 -79 -71 -28 -158 -74 vvcurveto
          -136 100 -40 18 -1 vhcurveto
          -18 -1 -100 -40 -135 -75 28 -158 -71 vvcurveto
          -79 -43 -50 -65 -16 vhcurveto
          -26 17 53 -14 27 hhcurveto
          82 81 62 140 hvcurveto
          107 -30 109 88 122 86 -1 38 39 -86 -2 123 87 30 110 106 vvcurveto
          endchar
        </CharString>
        <CharString name="bracketleft">
          -122 197 -76 rmoveto
          1023 207 vlineto
          3 6 3 12 9 vvcurveto
          77 -80 0 -32 vhcurveto
          -258 -1077 hlineto
          -154 105 0 42 vhcurveto
          217 hlineto
          3 6 3 12 10 vvcurveto
          76 -80 0 -32 vhcurveto
          endchar
        </CharString>
        <CharString name="bracketright">
          -122 256 947 rmoveto
          -1023 -208 vlineto
          309 callgsubr
          258 1078 hlineto
          153 -106 0 -42 vhcurveto
          -217 hlineto
          309 callgsubr
          endchar
        </CharString>
        <CharString name="breve">
          -161 276 736 rmoveto
          -63 -26 -24 -44 -43 -26 24 63 vhcurveto
          4 -13 -22 4 -20 hhcurveto
          -38 -32 -20 -30 -47 65 -48 129 130 65 48 47 30 -33 20 -37 -20 -22 -4 -4 -13 hvcurveto
          endchar
        </CharString>
        <CharString name="brokenbar">
          -197 268 220 rmoveto
          108 callsubr
          -238 -7 callgsubr
          801 vmoveto
          108 callsubr
          -238 -7 callgsubr
          endchar
        </CharString>
        <CharString name="bullet">
          -18 437 442 rmoveto
          75 -54 59 -81 -94 -93 -89 -98 -75 54 -60 81 98 89 89 99 vhcurveto
          endchar
        </CharString>
        <CharString name="c">
          -51 487 415 rmoveto
          232 callgsubr
          -154 89 -97 158 106 85 63 67 122 callsubr
          hvcurveto
          endchar
        </CharString>
        <CharString name="cacute">
          -51 487 415 rmoveto
          232 callgsubr
          -154 89 -97 158 106 85 63 67 122 callsubr
          hvcurveto
          -143 234 -72 callsubr
          endchar
        </CharString>
        <CharString name="caron">
          -190 192 678 rmoveto
          -95 82 rlineto
          12 -13 -16 4 -15 hhcurveto
          -17 -16 -8 -17 -8 hvcurveto
          73 -107 rlineto
          -44 31 24 -30 52 hhcurveto
          52 24 30 44 31 hvcurveto
          73 107 rlineto
          17 -8 -16 8 -17 hhcurveto
          -15 -16 -4 -12 -13 hvcurveto
          endchar
        </CharString>
        <CharString name="ccaron">
          -51 442 751 -64 callgsubr
          94 -483 rmoveto
          64 callgsubr
          232 callgsubr
          -154 89 -97 158 106 85 63 67 18 -8 18 -15 6 hvcurveto
          endchar
        </CharString>
        <CharString name="ccedilla">
          -51 188 68 callsubr
          11 51 rlineto
          104 2 82 62 66 vvcurveto
          122 callsubr
          232 callgsubr
          -121 55 -86 101 -31 hvcurveto
          endchar
        </CharString>
        <CharString name="cedilla">
          -185 232 -62 rmoveto
          16 72 rlineto
          -99 hlineto
          -18 -82 rlineto
          1 callgsubr
          endchar
        </CharString>
        <CharString name="cent">
          -51 390 559 56 callsubr
          -45 vlineto
          -114 -40 -71 -117 -123 vvcurveto
          -120 54 -85 98 -32 vhcurveto
          -39 -7 callgsubr
          38 vlineto
          75 18 53 51 53 vvcurveto
          122 callsubr
          54 -42 37 -55 17 hvcurveto
          endchar
        </CharString>
        <CharString name="circumflex">
          -190 299 702 114 callgsubr
        </CharString>
        <CharString name="colon">
          -176 295 469 194 callgsubr
          52 59 vhcurveto
          -368 vmoveto
          45 -32 35 -48 -57 -55 -53 -58 -45 322 callsubr
        </CharString>
        <CharString name="comma">
          -215 156 -53 rmoveto
          -57 -25 -48 -49 -38 vhcurveto
          -24 6 16 -9 17 hhcurveto
          71 107 109 128 93 -51 53 -60 -51 -36 -40 -42 -15 hvcurveto
          48 -29 22 -42 -54 vvcurveto
          endchar
        </CharString>
        <CharString name="commaaccent">
          -369 195 -143 rmoveto
          264 callsubr
          196 callgsubr
          vhcurveto
          -32 callgsubr
          hvcurveto
          endchar
        </CharString>
        <CharString name="commaaccent.alt">
          -309 245 669 rmoveto
          264 callsubr
          196 callgsubr
          vhcurveto
          -32 callgsubr
          hvcurveto
          endchar
        </CharString>
        <CharString name="copyright">
          295 610 508 rmoveto
          67 -74 38 -74 -144 -95 -125 -134 -136 78 -85 139 94 74 55 59 16 -7 17 -12 4 vhcurveto
          -31 -27 -38 -24 -57 hhcurveto
          -64 -47 47 95 95 40 68 44 26 13 -23 -27 -6 -1 -11 -2 -7 hvcurveto
          -14 16 20 -7 26 hhcurveto
          40 32 24 45 hvcurveto
          -482 -141 rmoveto
          185 117 148 189 191 115 -148 -185 -185 -117 -146 -189 -190 -116 146 185 vhcurveto
          669 hmoveto
          225 -155 156 -208 -207 -155 -156 -225 -224 155 -154 207 208 155 154 224 vhcurveto
          endchar
        </CharString>
        <CharString name="currency">
          146 371 222 rmoveto
          -67 -46 41 109 -7 hvcurveto
          110 -7 38 40 67 hhcurveto
          67 46 -40 -110 7 hvcurveto
          -109 10 -41 -41 -67 hhcurveto
          295 361 rmoveto
          39 -10 -28 20 -35 hhcurveto
          -28 -31 -13 -27 -26 hvcurveto
          -27 -27 rlineto
          17 -35 -41 8 -45 hhcurveto
          -45 -41 -8 -17 -35 hvcurveto
          -27 27 rlineto
          27 -26 -31 13 -28 hhcurveto
          -35 -28 -20 -39 -10 hvcurveto
          94 -92 rlineto
          -18 -33 -10 -39 -47 vvcurveto
          -46 10 -40 17 -32 vhcurveto
          -93 -92 rlineto
          -38 10 28 -21 35 hhcurveto
          28 31 13 27 26 hvcurveto
          26 27 rlineto
          -17 35 42 -8 45 hhcurveto
          45 42 8 17 35 hvcurveto
          26 -27 rlineto
          -27 26 31 -13 28 hhcurveto
          35 28 21 38 10 hvcurveto
          -93 92 rlineto
          17 32 10 40 46 vvcurveto
          47 -10 39 -18 33 vhcurveto
          endchar
        </CharString>
        <CharString name="d">
          27 107 callsubr
          endchar
        </CharString>
        <CharString name="dagger">
          191 callsubr
          136 70 3 3 40 hvcurveto
          -6 -48 0 -48 -101 -188 4 -191 -70 270 callgsubr
          55 -2 149 -1 168 hvcurveto
          184 callsubr
        </CharString>
        <CharString name="daggerdbl">
          191 callsubr
          137 71 2 4 39 hvcurveto
          -7 -61 0 -58 -128 vvcurveto
          -30 1 -56 6 -46 vhcurveto
          2 -24 -36 1 -47 hhcurveto
          312 callsubr
          5 -16 4 -7 hvcurveto
          135 71 3 3 40 hvcurveto
          -5 -39 -1 -38 -65 270 callgsubr
          36 -4 31 -5 30 hvcurveto
          -2 25 39 -1 51 hhcurveto
          42 104 0 103 10 -3 14 -3 7 hvcurveto
          -143 -73 -3 -4 -39 hvcurveto
          5 48 1 61 42 vvcurveto
          184 callsubr
        </CharString>
        <CharString name="danda">
          32 396 522 rmoveto
          112 callsubr
          endchar
        </CharString>
        <CharString name="dcaron">
          197 107 callsubr
          146 680 rmoveto
          196 callgsubr
          hvcurveto
          -32 callgsubr
          264 callsubr
          hvcurveto
          endchar
        </CharString>
        <CharString name="dcroat">
          27 372 127 rmoveto
          -24 -16 -28 -15 -29 hhcurveto
          -67 -40 54 120 120 53 66 63 25 24 -9 -17 15 hvcurveto
          161 173 rmoveto
          45 30 22 32 12 -4 9 -4 5 hvcurveto
          -71 hlineto
          73 -3 -31 36 -65 hhcurveto
          -40 -30 -18 -24 -22 hvcurveto
          22 -13 11 -21 1 -33 rrcurveto
          -86 hlineto
          -46 -30 -22 -32 -12 5 -9 3 -5 hvcurveto
          154 -69 hlineto
          5 -23 -26 3 -23 hhcurveto
          -170 -100 -131 -159 -160 100 -95 128 44 50 21 33 30 hvcurveto
          -36 14 28 -18 46 hhcurveto
          41 29 18 25 22 hvcurveto
          307 callsubr
          492 vlineto
          endchar
        </CharString>
        <CharString name="degree">
          426 263 896 rmoveto
          -108 -77 -70 -106 -106 77 -72 108 108 77 72 106 106 -77 70 -108 hvcurveto
          -255 vmoveto
          -46 -27 33 46 46 27 33 46 45 28 -32 -47 -46 -28 -33 -45 hvcurveto
          endchar
        </CharString>
        <CharString name="dieresis">
          -180 382 685 rmoveto
          -5 callgsubr
          50 46 46 50 vhcurveto
          -204 hmoveto
          -5 callgsubr
          50 46 46 50 vhcurveto
          endchar
        </CharString>
        <CharString name="divide">
          172 199 480 rmoveto
          223 callgsubr
          485 203 callsubr
          -213 -272 rmoveto
          283 callgsubr
          444 vmoveto
          283 callgsubr
          endchar
        </CharString>
        <CharString name="dollar">
          135 451 772 rmoveto
          67 callgsubr
          -39 vlineto
          -116 -22 -87 -70 -107 -205 412 -12 -143 vvcurveto
          -59 -49 -35 -86 -82 -50 34 36 22 9 20 15 14 vhcurveto
          17 -21 -29 15 -36 hhcurveto
          -46 -50 -33 -59 -74 76 -56 108 -23 hvcurveto
          -35 137 callsubr
          33 vlineto
          133 17 108 82 117 225 -412 24 117 vvcurveto
          88 callgsubr
          71 -75 55 -117 17 hvcurveto
          endchar
        </CharString>
        <CharString name="dotaccent">
          -389 173 692 rmoveto
          175 callgsubr
          49 45 44 49 vhcurveto
          endchar
        </CharString>
        <CharString name="dotlessi">
          -267 235 415 138 callgsubr
        </CharString>
        <CharString name="dottedcircle">
          86 139 517 rmoveto
          -26 18 -19 26 26 18 19 26 25 -18 19 -26 -26 -18 -19 -25 vhcurveto
          -82 -110 rmoveto
          -25 20 -19 26 24 20 19 25 25 -20 19 -24 -26 -20 -19 -25 vhcurveto
          -13 -126 rmoveto
          -25 19 -18 25 26 18 18 319 callsubr
          52 -116 rmoveto
          -26 18 -18 26 25 19 18 26 25 -19 19 -25 -26 -18 -19 -25 vhcurveto
          101 -75 rmoveto
          -26 19 -20 26 25 19 20 26 24 -19 20 -25 -26 -19 -20 -24 vhcurveto
          127 -16 rmoveto
          -26 18 -18 26 26 19 18 26 26 -19 18 -26 -26 -18 -18 -26 vhcurveto
          121 53 rmoveto
          -26 19 -18 25 25 20 18 26 25 -20 19 -25 -25 -19 -19 -25 vhcurveto
          73 98 rmoveto
          -25 19 -19 26 24 19 19 25 26 -19 19 -24 -26 -19 -19 -26 vhcurveto
          10 134 rmoveto
          -26 18 -18 26 25 19 18 26 26 -19 18 -25 -26 -18 -18 -26 vhcurveto
          -50 118 rmoveto
          -25 19 -19 25 26 18 19 319 callsubr
          -95 68 rmoveto
          -24 19 -20 26 25 18 20 24 26 -18 19 -25 -26 -19 -19 -26 vhcurveto
          -126 15 rmoveto
          -26 18 -18 26 26 18 18 26 26 -18 18 -26 -26 -18 -18 -26 vhcurveto
          endchar
        </CharString>
        <CharString name="doubledanda">
          193 396 522 rmoveto
          112 callsubr
          250 hmoveto
          112 callsubr
          endchar
        </CharString>
        <CharString name="dvA">
          221 474 669 20 callgsubr
        </CharString>
        <CharString name="dvAA">
          504 474 669 rmoveto
          -63 callsubr
          165 0 20 14 callgsubr
        </CharString>
        <CharString name="dvAI">
          11 476 145 callsubr
          -486 -68 callsubr
          9 hlineto
          15 -25 0 -48 -39 -55 -2 -41 -37 -177 345 -24 -105 vvcurveto
          -27 -21 -18 -40 vhcurveto
          0 18 -78 86 55 32 41 49 vhcurveto
          174 -342 6 161 42 2 40 40 vvcurveto
          37 -2 56 -37 28 vhcurveto
          221 hlineto
          17 -19 18 -31 -54 vvcurveto
          -66 -46 -29 -49 -12 -12 2 3 -11 vhcurveto
          -68 4 53 -44 63 hhcurveto
          93 26 79 61 45 -16 66 -42 55 hvcurveto
          173 -103 callgsubr
        </CharString>
        <CharString name="dvAU">
          504 980 145 callgsubr
          -422 hlineto
          -63 callsubr
          165 0 20 14 callgsubr
        </CharString>
        <CharString name="dvAbbreviationsign">
          -184 204 164 rmoveto
          106 55 81 78 76 -50 73 -104 -105 -56 -81 -79 -75 50 -73 104 hvcurveto
          2 226 rmoveto
          39 20 -38 -38 -33 -17 -34 -38 -39 -20 38 38 34 17 33 38 hvcurveto
          endchar
        </CharString>
        <CharString name="dvAcandra">
          221 652 747 70 callgsubr
          -178 -78 20 callgsubr
        </CharString>
        <CharString name="dvAnusvara">
          -574 -132 745 rmoveto
          71 callsubr
          endchar
        </CharString>
        <CharString name="dvAnusvara.amI">
          -574 128 799 rmoveto
          71 callsubr
          endchar
        </CharString>
        <CharString name="dvAvagraha">
          -76 91 565 rmoveto
          -131 236 -94 -108 vvcurveto
          -46 -33 -22 -47 -60 -62 37 74 -63 vhcurveto
          -19 -6 -9 -14 -17 vvcurveto
          -66 127 -121 127 96 66 56 89 vhcurveto
          152 -224 87 81 vvcurveto
          31 23 8 54 34 46 0 -1 62 vhcurveto
          3 6 3 12 12 vvcurveto
          82 -89 3 -78 -78 -115 -1 -103 vhcurveto
          endchar
        </CharString>
        <CharString name="dvB">
          -217 413 -44 callgsubr
          -369 -68 callsubr
          222 -338 24 callgsubr
          62 23 rmoveto
          -51 callgsubr
          107 91 61 78 38 -21 33 -38 17 vhcurveto
          -21 -44 -34 -31 -37 -20 rrcurveto
          endchar
        </CharString>
        <CharString name="dvBA">
          30 267 215 83 callgsubr
          -236 84 callgsubr
          338 137 callgsubr
          -104 127 51 callgsubr
          -97 113 -142 136 49 47 13 26 33 vhcurveto
          -4 -13 -3 -13 -14 vvcurveto
          -54 27 -55 73 -105 callsubr
        </CharString>
        <CharString name="dvBH">
          -184 400 268 rmoveto
          244 callsubr
          -38 5 -72 6 -75 4 rrcurveto
          152 -8 -95 129 -90 hhcurveto
          -69 -36 -52 -57 -58 35 -61 58 0 callsubr
          endchar
        </CharString>
        <CharString name="dvBHA">
          97 314 126 callsubr
          -69 -36 -52 -57 -58 35 -61 58 0 callsubr
          161 hlineto
          -2 -47 -1 -37 -39 -99 callgsubr
        </CharString>
        <CharString name="dvBH_LA">
          553 315 669 rmoveto
          -3 -6 -2 -13 -8 vvcurveto
          -90 90 0 36 vhcurveto
          124 callgsubr
          -67 -50 -31 -51 -26 hvcurveto
          -37 4 -45 3 -48 2 rrcurveto
          152 -8 -95 129 -90 hhcurveto
          -69 -36 -52 -57 -58 35 -61 58 0 callsubr
          97 hlineto
          7 7 0 1 6 hvcurveto
          -135 12 120 -128 63 hhcurveto
          113 callgsubr
          hvcurveto
          -96 callgsubr
        </CharString>
        <CharString name="dvBH_NA">
          111 callsubr
          162 hlineto
          -1 -55 rlineto
          -55 -22 -251 -74 317 callsubr
          16 -4 17 -8 21 vhcurveto
          131 66 rlineto
          -3 -15 -2 -15 -12 vvcurveto
          -57 40 -36 56 -105 callsubr
        </CharString>
        <CharString name="dvBH_R">
          -184 399 278 rmoveto
          244 callsubr
          -38 5 -71 6 -75 4 rrcurveto
          136 -8 -93 114 callsubr
          vhcurveto
          -36 -1 -29 -24 vvcurveto
          216 callgsubr
          -51 72 -78 69 38 19 31 47 10 vhcurveto
          171 -10 87 callsubr
        </CharString>
        <CharString name="dvBH_RA">
          111 callsubr
          163 -13 hlineto
          -60 -46 -161 -98 -113 -22 161 callsubr
          30 80 17 123 124 hvcurveto
          -3 -15 -3 -16 -17 vvcurveto
          -51 26 -54 73 -105 callsubr
        </CharString>
        <CharString name="dvBH_R_YA">
          417 765 -101 callsubr
          -307 254 callgsubr
          -70 -87 -29 -43 -36 vhcurveto
          -37 3 -47 4 -48 2 rrcurveto
          136 -8 -93 114 callsubr
          vhcurveto
          -36 -1 -29 -24 vvcurveto
          216 callgsubr
          -51 72 -78 69 38 19 31 47 10 vhcurveto
          98 hlineto
          14 12 1 2 11 hvcurveto
          5 -9 6 -9 7 -10 -60 -49 -123 -82 -131 -31 186 callsubr
          86 167 122 76 23 hvcurveto
          -37 47 58 -26 57 hhcurveto
          22 callgsubr
          hvcurveto
          55 callgsubr
          -37 28 vhcurveto
          170 -103 callgsubr
        </CharString>
        <CharString name="dvBH_VA">
          379 310 155 callsubr
          -62 -66 -33 -75 -15 vhcurveto
          -33 3 -37 2 -39 2 rrcurveto
          152 -8 -95 129 -90 hhcurveto
          -69 -36 -52 -57 -58 35 -61 58 0 callsubr
          97 hlineto
          13 11 1 1 10 hvcurveto
          -76 37 84 -76 97 hhcurveto
          39 38 12 24 28 hvcurveto
          -5 -16 -3 -18 -18 vvcurveto
          -54 27 -55 73 -105 callsubr
        </CharString>
        <CharString name="dvBH_YA">
          396 744 -101 callsubr
          -307 254 callgsubr
          -74 -99 -29 -40 -39 vhcurveto
          -31 2 -35 2 -36 2 rrcurveto
          152 -8 -95 129 -90 hhcurveto
          -69 -36 -52 -57 -58 35 -61 58 0 callsubr
          97 hlineto
          8 7 0 1 7 hvcurveto
          -69 46 93 -65 90 hhcurveto
          22 callgsubr
          hvcurveto
          55 callgsubr
          -37 28 vhcurveto
          170 -103 callgsubr
        </CharString>
        <CharString name="dvB_BA">
          385 622 215 83 callgsubr
          -248 -131 91 callgsubr
          693 137 callgsubr
          -104 127 51 callgsubr
          -18 4 -19 7 -19 vhcurveto
          -19 -22 -22 -17 -23 -12 -108 133 rcurveline
          -51 callgsubr
          77 69 32 46 32 vhcurveto
          -45 45 60 -33 66 hhcurveto
          49 47 13 26 33 hvcurveto
          -4 -13 -3 -13 -14 vvcurveto
          -54 27 -55 73 -105 callsubr
        </CharString>
        <CharString name="dvB_BHA">
          427 268 214 rmoveto
          -2 -10 -11 -1 -11 hhcurveto
          -56 -46 27 51 24 10 18 17 14 hvcurveto
          483 324 85 callgsubr
          -35 -27 -14 -21 -18 hvcurveto
          35 -27 -56 0 -27 hhcurveto
          -330 -68 callsubr
          294 207 callsubr
          -27 -2 -30 -8 -18 -25 -33 -46 -31 -44 -44 -27 -107 131 rcurveline
          -51 callgsubr
          89 72 46 57 39 vhcurveto
          -21 24 28 -14 28 150 callsubr
        </CharString>
        <CharString name="dvB_BH_RA">
          444 268 214 rmoveto
          -2 -11 -10 -1 -11 hhcurveto
          -56 -46 27 51 24 10 18 17 14 hvcurveto
          500 324 199 callgsubr
          -59 vlineto
          311 callgsubr
          136 -9 -92 135 -92 hhcurveto
          -35 -26 -13 -20 -18 hvcurveto
          33 -27 -56 0 -26 hhcurveto
          -349 -68 callsubr
          311 hlineto
          -55 3 35 -56 55 hhcurveto
          -33 callgsubr
          -36 0 -29 -1 -24 vhcurveto
          -85 -5 6 -38 -47 -59 -22 -27 -25 -21 -26 192 callgsubr
          95 85 51 75 40 vhcurveto
          -17 22 28 -12 27 hhcurveto
          38 20 32 49 10 hvcurveto
          163 -13 hlineto
          -60 -46 -161 -98 -113 -22 161 callsubr
          30 80 17 123 124 hvcurveto
          -3 -15 -3 -16 -17 vvcurveto
          -51 26 -54 73 -105 callsubr
        </CharString>
        <CharString name="dvB_DA">
          265 268 214 91 callgsubr
          593 hlineto
          4 -7 3 -8 -9 -76 -268 14 -189 vvcurveto
          -8 vlineto
          -14 -14 -16 -11 -17 -9 -108 133 rcurveline
          -51 callgsubr
          57 52 17 28 37 vhcurveto
          -63 53 87 -45 84 hhcurveto
          14 14 1 2 13 hvcurveto
          -79 callgsubr
        </CharString>
        <CharString name="dvB_DHA">
          407 268 213 rmoveto
          -1 -10 -11 -1 -11 hhcurveto
          -56 -46 27 51 24 10 18 17 14 hvcurveto
          551 324 101 callgsubr
          -62 -1 -49 -1 -40 vhcurveto
          -56 -33 -69 -43 -69 hhcurveto
          -39 -34 21 36 17 callsubr
          44 -43 31 -52 -32 -26 -8 -14 -22 316 callgsubr
          9 10 vvcurveto
          62 38 41 62 vhcurveto
          10 -106 callsubr
          -568 -68 callsubr
          307 hlineto
          11 24 1 2 16 hvcurveto
          -9 -20 -4 -20 -20 vvcurveto
          -47 23 -45 36 -33 vhcurveto
          -37 -46 -31 -56 -52 -32 -107 132 rcurveline
          229 callgsubr
          120 -122 132 78 65 38 46 38 vhcurveto
          -49 42 69 -37 80 hhcurveto
          58 43 18 28 33 hvcurveto
          -4 -17 -3 -18 -18 -7 callsubr
        </CharString>
        <CharString name="dvB_DH_VA">
          721 266 216 rmoveto
          -3 -12 -12 -2 -14 hhcurveto
          -52 -42 29 49 24 10 18 17 14 hvcurveto
          544 84 callgsubr
          249 -15 callsubr
          -53 -54 -26 -89 -37 vhcurveto
          -79 -33 -46 -97 -90 hhcurveto
          -36 -30 23 34 45 callgsubr
          -29 -24 -7 -12 -22 hvcurveto
          -3 10 -1 10 11 vvcurveto
          56 40 41 60 vhcurveto
          10 -106 callsubr
          -561 -68 callsubr
          292 hlineto
          21 21 1 3 17 hvcurveto
          -9 -20 -4 -21 -20 vvcurveto
          -45 22 -43 33 -33 vhcurveto
          -39 -43 -33 -52 -44 -34 -100 123 51 callgsubr
          -112 118 -123 126 80 63 46 47 31 vhcurveto
          -53 41 73 -43 85 hhcurveto
          68 66 45 64 32 hvcurveto
          -53 44 65 -42 73 hhcurveto
          39 38 12 24 28 hvcurveto
          -5 -16 -3 -18 -18 vvcurveto
          -54 27 -55 73 -105 callsubr
        </CharString>
        <CharString name="dvB_JA">
          531 268 214 8 callgsubr
        </CharString>
        <CharString name="dvB_JHA">
          538 894 167 callsubr
          -477 -345 rmoveto
          -37 hlineto
          -56 -46 31 51 24 10 18 17 14 hvcurveto
          -236 84 callgsubr
          619 -34 callgsubr
          -3 0 -77 hlineto
          -132 161 rlineto
          1 5 -60 callsubr
          -81 -88 -47 -102 -114 126 -129 129 vhcurveto
          113 hlineto
          16 -31 31 -26 40 -19 rrcurveto
          -98 31 57 -128 114 hhcurveto
          47 40 30 45 26 -12 24 -19 16 hvcurveto
          -16 -19 -24 -5 -18 hhcurveto
          -53 -39 39 43 -28 hvcurveto
          -5 27 29 -3 30 hhcurveto
          101 71 55 88 28 -7 24 -10 22 hvcurveto
          -9 22 21 -3 19 hhcurveto
          21 17 5 7 13 hvcurveto
          -5 -27 -3 -31 -29 vvcurveto
          -66 23 -62 80 -70 callgsubr
        </CharString>
        <CharString name="dvB_J_YA">
          871 1219 -101 callsubr
          -830 -338 24 callgsubr
          -236 84 callgsubr
          970 72 callsubr
          -78 61 175 -62 75 callsubr
          -18 8 -30 15 -35 vhcurveto
          -21 -37 -31 -26 -33 -18 -108 133 rcurveline
          -51 callgsubr
          88 79 40 59 34 vhcurveto
          -61 49 66 -49 77 271 callgsubr
          87 -1 22 -10 61 -74 rrcurveto
          -63 52 81 -52 82 hhcurveto
          22 callgsubr
          hvcurveto
          55 callgsubr
          -37 28 vhcurveto
          170 -103 callgsubr
        </CharString>
        <CharString name="dvB_JxA">
          540 720 28 -75 callgsubr
          -452 186 8 callgsubr
        </CharString>
        <CharString name="dvB_LA">
          533 268 214 24 callgsubr
          134 324 rmoveto
          -1 hlineto
          -369 -68 callsubr
          367 hlineto
          3 hlineto
          205 callsubr
          -19 -24 -24 -19 -25 -13 -108 133 rcurveline
          -51 callgsubr
          60 55 19 31 37 vhcurveto
          -84 43 72 -63 44 hhcurveto
          113 callgsubr
          hvcurveto
          -96 callgsubr
        </CharString>
        <CharString name="dvB_L_YA">
          865 1213 -101 callsubr
          -824 -338 24 callgsubr
          634 324 rmoveto
          0 -501 0 -369 306 callsubr
          964 273 callgsubr
          -54 -52 -29 -43 -28 vhcurveto
          24 -25 -38 16 -44 39 callsubr
          -99 -63 -68 -102 hvcurveto
          -8 vlineto
          -18 -20 -21 -16 -22 -12 -108 133 rcurveline
          -51 callgsubr
          57 53 18 28 37 vhcurveto
          -82 43 71 -61 43 hhcurveto
          113 callgsubr
          hvcurveto
          46 callgsubr
          3 4 0 3 hhcurveto
          -85 13 124 -114 119 hhcurveto
          22 callgsubr
          hvcurveto
          55 callgsubr
          -37 28 vhcurveto
          170 -103 callgsubr
        </CharString>
        <CharString name="dvB_NA">
          30 267 215 83 callgsubr
          -236 84 callgsubr
          338 hlineto
          -73 callgsubr
          -54 -1 -44 -38 vvcurveto
          -17 -29 -24 -25 -29 -19 -105 129 51 callgsubr
          -79 72 -103 97 -31 vhcurveto
          -60 -24 -39 -31 -32 118 callsubr
          18 -6 22 -11 25 vhcurveto
          53 33 47 27 28 28 rrcurveto
          -6 -15 -4 -17 -19 vvcurveto
          -54 27 -55 73 -105 callsubr
        </CharString>
        <CharString name="dvB_R">
          -217 413 -44 callgsubr
          -369 -68 callsubr
          227 -345 rmoveto
          -1 -10 -10 -1 -10 hhcurveto
          -60 -49 29 55 24 10 18 17 14 hvcurveto
          62 23 121 callsubr
          -81 -88 -47 -102 -86 91 -134 133 9 12 1 3 12 vhcurveto
          -51 -33 -57 -31 -53 -20 rrcurveto
          -51 19 40 -16 35 hhcurveto
          90 172 203 79 36 -17 25 -30 12 hvcurveto
          -22 -48 -36 -33 -39 -20 rrcurveto
          endchar
        </CharString>
        <CharString name="dvB_RA">
          30 270 212 282 callsubr
          -236 84 callgsubr
          257 callgsubr
          -108 133 51 callgsubr
          -85 87 -133 126 6 7 0 1 8 vhcurveto
          -47 -33 -52 -30 -50 -20 rrcurveto
          -51 19 41 -16 35 hhcurveto
          78 88 118 60 39 hvcurveto
          -6 -21 -3 -21 -22 vvcurveto
          -57 35 -39 60 -105 callsubr
        </CharString>
        <CharString name="dvB_SA">
          540 894 -36 callsubr
          -400 -338 24 callgsubr
          -236 84 callgsubr
          531 hlineto
          29 -22 15 -39 -41 callgsubr
          -43 -20 -37 -33 -23 7 -21 11 -18 hvcurveto
          -21 -28 -25 -21 -27 -14 -108 132 rcurveline
          -51 callgsubr
          89 78 41 63 40 vhcurveto
          -97 30 53 -120 96 -87 callgsubr
        </CharString>
        <CharString name="dvB_SHA">
          514 413 -44 callgsubr
          -369 -68 callsubr
          222 -338 24 callgsubr
          62 23 rmoveto
          -51 callgsubr
          99 86 48 70 36 vhcurveto
          0 vlineto
          -40 callgsubr
          34 -13 -30 59 -54 hhcurveto
          -37 -23 -29 -31 -20 6 -18 9 -17 hvcurveto
          -21 -27 -27 -21 -28 -14 rrcurveto
          487 435 -61 callsubr
        </CharString>
        <CharString name="dvB_TA">
          347 268 214 91 callgsubr
          659 232 callsubr
          226 callsubr
          -90 -79 -39 -110 -4 hvcurveto
          -20 -27 -24 -20 -27 192 callgsubr
          60 55 19 31 37 vhcurveto
          -77 37 57 -64 36 210 callgsubr
          102 hlineto
          -2 -77 -2 -50 -54 vvcurveto
          -43 2 -109 104 -102 callgsubr
          163 -103 callgsubr
        </CharString>
        <CharString name="dvB_VA">
          357 268 214 91 callgsubr
          665 -35 callgsubr
          -17 3 -18 7 -18 vhcurveto
          -20 -26 -24 -20 -27 192 callgsubr
          82 73 36 53 30 vhcurveto
          -43 42 57 -31 62 hhcurveto
          39 38 12 24 28 hvcurveto
          -5 -16 -3 -18 -18 vvcurveto
          -54 27 -55 73 -105 callsubr
        </CharString>
        <CharString name="dvB_YA">
          395 743 -101 callsubr
          -354 -338 24 callgsubr
          154 324 rmoveto
          0 vlineto
          -8 -7 0 -6 hhcurveto
          -369 -68 callsubr
          367 0 hlineto
          9 8 227 callsubr
          -15 4 -17 8 -17 vhcurveto
          -20 -28 -26 -21 -28 -15 -108 133 rcurveline
          -51 callgsubr
          91 79 44 61 22 vhcurveto
          -42 48 64 -31 62 hhcurveto
          22 callgsubr
          hvcurveto
          55 callgsubr
          -37 28 vhcurveto
          170 -103 callgsubr
        </CharString>
        <CharString name="dvC">
          -132 497 229 callsubr
          331 -203 rmoveto
          -14 callsubr
          -88 101 -122 130 108 84 67 71 31 -14 37 -46 22 vhcurveto
          283 callsubr
        </CharString>
        <CharString name="dvCA">
          99 -87 -98 callgsubr
          419 hlineto
          -73 callgsubr
          vvcurveto
          -46 0 -39 -1 -35 vhcurveto
          -78 -29 -65 -34 -53 164 callsubr
          41 39 13 25 28 vhcurveto
          -4 -16 -2 -17 -17 vvcurveto
          -52 23 -51 72 -105 callsubr
        </CharString>
        <CharString name="dvCH">
          120 750 -44 callgsubr
          -696 hlineto
          28 callgsubr
          100 -69 111 -109 299 callsubr
          vhcurveto
          159 callgsubr
          endchar
        </CharString>
        <CharString name="dvCHA">
          123 430 552 rmoveto
          -14 callgsubr
          81 -35 78 -60 33 vhcurveto
          -4 25 -8 24 -19 16 rrcurveto
          224 -103 callgsubr
        </CharString>
        <CharString name="dvCH_RA">
          120 349 -3 -20 callgsubr
          81 555 rmoveto
          -14 callgsubr
          81 -35 78 -60 33 vhcurveto
          -4 25 -8 24 -19 16 rrcurveto
          224 -103 callgsubr
        </CharString>
        <CharString name="dvCH_R_YA">
          687 349 -3 -20 callgsubr
          689 555 104 callsubr
          -75 -66 -15 -22 -48 vhcurveto
          31 -30 -40 21 -47 hhcurveto
          299 callsubr
          hvcurveto
          159 callgsubr
          -291 117 rmoveto
          28 callgsubr
          20 -3 21 -5 20 vhcurveto
          20 58 71 14 65 hhcurveto
          18 6 -9 -8 hvcurveto
          -33 -128 -38 -66 vvcurveto
          -66 101 -100 100 212 callsubr
          22 -40 64 -105 callsubr
        </CharString>
        <CharString name="dvCH_YA">
          687 1038 552 104 callsubr
          -72 -64 -14 -21 -49 vhcurveto
          -11 12 -13 11 -14 8 -4 25 -8 24 -19 16 rrcurveto
          -96 hmoveto
          -14 callgsubr
          21 -2 21 -5 20 vhcurveto
          19 58 70 14 65 hhcurveto
          18 6 -9 -8 hvcurveto
          -33 -128 -38 -66 vvcurveto
          -66 101 -100 100 212 callsubr
          22 -40 64 -105 callsubr
        </CharString>
        <CharString name="dvC_CA">
          426 422 349 rmoveto
          18 17 4 6 17 hvcurveto
          -4 -14 -2 -13 -14 vvcurveto
          -10 1 -11 3 -11 vhcurveto
          -46 -42 -60 -24 -48 hhcurveto
          -45 -36 24 40 228 callgsubr
          -417 320 -101 callgsubr
          744 hlineto
          -73 callgsubr
          vvcurveto
          -46 0 -39 -1 -35 vhcurveto
          -78 -29 -65 -34 -53 hhcurveto
          -45 -36 24 40 228 callgsubr
          35 hlineto
          -70 callsubr
          12 -102 callsubr
          -569 85 callsubr
          17 vhcurveto
          217 callgsubr
          -88 101 -122 130 71 60 29 39 33 vhcurveto
          -39 42 56 -29 63 hhcurveto
          41 39 13 25 28 hvcurveto
          -4 -16 -2 -17 -17 vvcurveto
          -52 23 -51 72 -105 callsubr
        </CharString>
        <CharString name="dvC_CHA">
          530 837 62 callsubr
          -27 -23 -5 -9 -21 hvcurveto
          -4 14 -2 14 14 204 callgsubr
          -720 -82 callsubr
          392 hlineto
          19 16 1 2 12 hvcurveto
          -10 -23 -4 -23 -23 vvcurveto
          -47 19 -46 31 -37 vhcurveto
          -59 -60 -39 -81 -93 hhcurveto
          -44 -34 25 39 228 callgsubr
          35 hlineto
          -14 callsubr
          -88 101 -122 130 52 42 21 29 30 vhcurveto
          -83 53 111 -53 109 hhcurveto
          305 callgsubr
          hvcurveto
          -4 25 -8 24 -19 16 rrcurveto
          224 -103 callgsubr
        </CharString>
        <CharString name="dvC_CH_VA">
          512 822 552 rmoveto
          11 -13 5 -21 2 -22 rrcurveto
          -53 -21 -27 -58 -53 vvcurveto
          -83 37 -45 21 -83 vhcurveto
          -18 -40 -44 -9 -40 hhcurveto
          -78 -61 37 58 32 17 22 24 15 hvcurveto
          -4 13 15 -2 14 hhcurveto
          40 40 21 39 41 -44 28 -52 -24 -20 -5 -8 -18 hvcurveto
          -5 14 -2 15 15 204 callgsubr
          266 -357 rmoveto
          -16 34 -13 36 46 vvcurveto
          46 26 38 33 30 11 -29 -21 -63 -29 -50 -42 -37 vhcurveto
          -51 -209 rmoveto
          -66 -26 -51 -52 -69 hhcurveto
          -42 -35 29 39 63 71 20 73 3 hvcurveto
          28 1 26 3 25 6 rrcurveto
          -920 637 -101 callgsubr
          353 hlineto
          33 24 1 2 15 hvcurveto
          -11 -23 -4 -23 -23 vvcurveto
          -48 20 -48 32 -37 vhcurveto
          -58 -55 -38 -79 -88 hhcurveto
          -43 -33 25 39 228 callgsubr
          35 hlineto
          -14 callsubr
          -87 99 -121 127 47 41 19 28 27 vhcurveto
          18 -26 24 -22 29 -17 rrcurveto
          -28 -22 -19 -35 -49 vvcurveto
          -90 104 -132 126 38 36 12 22 27 vhcurveto
          -4 -18 -2 -19 -20 vvcurveto
          -60 24 -58 71 9 13 1 5 11 vhcurveto
          -9 17 -3 46 33 83 4 92 87 vvcurveto
          34 -5 30 -8 25 vhcurveto
          67 47 39 74 98 vvcurveto
          69 -35 83 -60 37 vhcurveto
          -3 26 -8 25 -20 17 rrcurveto
          224 -103 callgsubr
        </CharString>
        <CharString name="dvC_MA">
          496 698 431 -48 callgsubr
          -785 179 callsubr
          515 hlineto
          17 -26 0 -51 -42 vvcurveto
          -14 0 -15 -1 -15 vhcurveto
          -51 -3 -18 -17 -22 -42 rrcurveto
          -71 -38 -46 -40 -70 164 callsubr
          75 66 43 52 31 vhcurveto
          -19 23 27 -13 26 -78 callgsubr
        </CharString>
        <CharString name="dvC_NA">
          100 -87 -98 callgsubr
          419 hlineto
          -73 callgsubr
          vvcurveto
          -46 0 -39 -1 -35 vhcurveto
          -78 -29 -65 -34 -53 hhcurveto
          -45 -36 24 40 228 callgsubr
          35 hlineto
          -14 callsubr
          -60 48 -79 73 -30 vhcurveto
          -72 -33 -53 -39 -37 118 callsubr
          18 -6 21 -10 24 vhcurveto
          69 40 60 27 32 31 rrcurveto
          -5 -19 -3 -22 -22 vvcurveto
          -52 23 -51 72 -102 callgsubr
          168 -106 callsubr
          endchar
        </CharString>
        <CharString name="dvC_R">
          -132 497 229 callsubr
          331 -203 rmoveto
          -14 callsubr
          -64 54 -83 79 -27 vhcurveto
          -60 -25 -62 -21 -55 -10 rrcurveto
          -50 3 39 -42 60 hhcurveto
          93 272 143 115 28 -16 34 -44 20 hvcurveto
          283 callsubr
        </CharString>
        <CharString name="dvC_RA">
          100 -87 -98 callgsubr
          419 hlineto
          -73 callgsubr
          vvcurveto
          -46 0 -39 -1 -35 vhcurveto
          -78 -29 -65 -34 -53 hhcurveto
          -45 -36 24 40 228 callgsubr
          35 hlineto
          -14 callsubr
          -64 54 -83 79 -27 vhcurveto
          -60 -25 -62 -21 -55 -10 161 callsubr
          64 141 86 76 70 252 callgsubr
          -20 vvcurveto
          -52 23 -51 72 -102 callgsubr
          168 -106 callsubr
          endchar
        </CharString>
        <CharString name="dvC_YA">
          477 825 -101 callsubr
          -791 -82 callsubr
          588 273 callgsubr
          -77 -100 -23 -42 -46 vhcurveto
          -55 -50 -7 -107 -111 164 callsubr
          84 62 50 60 29 vhcurveto
          -47 49 69 -36 67 hhcurveto
          22 callgsubr
          hvcurveto
          55 callgsubr
          -37 28 vhcurveto
          170 -103 callgsubr
        </CharString>
        <CharString name="dvCandrabindu">
          -574 -146 913 rmoveto
          71 callsubr
          -173 20 200 callsubr
        </CharString>
        <CharString name="dvD">
          -99 224 -52 -39 callgsubr
          307 604 -47 callgsubr
          -478 -68 callsubr
          176 callgsubr
          -76 -268 14 -189 vvcurveto
          -122 142 -115 134 13 12 1 2 12 vhcurveto
          -57 22 50 -50 63 hhcurveto
          56 25 38 34 36 -18 28 -25 20 hvcurveto
          -23 -14 -20 -16 -27 hhcurveto
          -17 -15 5 8 -12 hvcurveto
          31 19 20 31 44 vvcurveto
          53 -42 53 -50 -42 -33 -31 -46 -13 2 -13 3 -12 vhcurveto
          -6 -16 -19 -2 -19 hhcurveto
          -50 -53 28 56 hvcurveto
          141 273 -28 138 vvcurveto
          25 -17 29 -20 20 vhcurveto
          endchar
        </CharString>
        <CharString name="dvDA">
          -81 -66 -98 callgsubr
          176 callgsubr
          -76 -268 14 -189 vvcurveto
          -122 142 -115 134 14 14 1 2 13 vhcurveto
          -79 callgsubr
        </CharString>
        <CharString name="dvDA_mvR">
          -96 118 callgsubr
          225 305 callsubr
          -22 -25 1 -17 285 callsubr
          -34 15 -37 27 -32 hvcurveto
          -28 -22 -18 -31 -38 vvcurveto
          -121 129 -72 119 103 76 52 68 45 -33 36 -42 8 vhcurveto
          -70 -26 -68 -37 -75 hhcurveto
          -36 -36 19 33 21 11 13 14 9 hvcurveto
          -6 15 16 -4 15 hhcurveto
          41 41 23 41 43 -46 28 -54 -18 -18 -2 -5 -17 hvcurveto
          -3 7 -1 6 7 vvcurveto
          28 16 23 50 vhcurveto
          17 30 -1 18 hhcurveto
          76 36 40 45 31 -15 35 -29 29 hvcurveto
          185 -103 callgsubr
        </CharString>
        <CharString name="dvDD">
          -25 278 -44 -39 callgsubr
          -343 713 -83 callsubr
          181 -106 callsubr
          endchar
        </CharString>
        <CharString name="dvDDA">
          -25 -65 669 -83 callsubr
          181 -106 callsubr
          endchar
        </CharString>
        <CharString name="dvDDH">
          -59 248 -26 -39 callgsubr
          -331 695 -101 callgsubr
          197 callgsubr
          -66 -272 4 -205 -58 callsubr
        </CharString>
        <CharString name="dvDDHA">
          -59 -83 -98 callgsubr
          197 callgsubr
          -66 -272 4 -205 -58 callsubr
        </CharString>
        <CharString name="dvDDH_DDHA">
          -44 -71 callgsubr
          247 hlineto
          7 -7 3 -7 -7 -54 -272 3 -168 vvcurveto
          -87 66 -83 83 -47 vhcurveto
          -71 -23 -76 -52 -90 vvcurveto
          -129 150 -121 134 118 68 58 73 92 -84 73 -83 241 callgsubr
          16 3 12 5 10 vhcurveto
          18 9 15 8 15 249 callsubr
          hvcurveto
          175 357 -61 197 vvcurveto
          81 -85 71 -79 241 callgsubr
          9 1 9 2 7 vhcurveto
          27 7 19 12 18 249 callsubr
          hvcurveto
          130 267 -26 122 vvcurveto
          28 -19 20 -15 11 vhcurveto
          215 -103 callgsubr
        </CharString>
        <CharString name="dvDDH_R">
          -59 431 -242 10 callsubr
          -344 864 -101 callgsubr
          197 callgsubr
          -66 -272 4 -205 -58 callsubr
        </CharString>
        <CharString name="dvDDH_RA">
          -59 250 -16 -20 callgsubr
          -333 685 -101 callgsubr
          197 callgsubr
          -66 -272 4 -205 -58 callsubr
        </CharString>
        <CharString name="dvDDH_YA">
          528 879 156 callgsubr
          -12 -14 2 11 hvcurveto
          34 111 17 81 vvcurveto
          55 -69 101 -113 -118 -90 -107 -55 -37 vhcurveto
          8 -20 -22 5 -21 hhcurveto
          -60 -45 -39 -53 -53 42 -31 40 7 10 1 3 7 hvcurveto
          15 2 13 3 10 vhcurveto
          28 8 17 12 16 hhcurveto
          16 13 -13 -22 -38 -38 -57 -84 -70 -65 45 69 hvcurveto
          162 275 -27 124 vvcurveto
          35 -20 24 -18 15 vhcurveto
          -455 -82 callsubr
          197 callgsubr
          -66 -272 4 -205 vvcurveto
          -142 161 -113 125 105 81 54 91 31 -9 28 -14 25 vhcurveto
          67 46 78 70 81 hhcurveto
          21 7 -7 -5 hvcurveto
          -30 -130 -38 -59 vvcurveto
          -67 106 -102 105 53 41 17 22 30 vhcurveto
          -1 -5 0 -6 -5 vvcurveto
          -50 22 -47 67 -105 callsubr
        </CharString>
        <CharString name="dvDDHxA">
          -59 263 -41 -75 callgsubr
          -346 710 -101 callgsubr
          197 callgsubr
          -66 -272 4 -205 -58 callsubr
        </CharString>
        <CharString name="dvDD_DDA">
          -15 198 callgsubr
          -40 -63 -93 88 -82 101 hvcurveto
          238 callsubr
          -26 28 -33 51 -23 vhcurveto
          -26 -16 -14 -25 -31 vvcurveto
          -86 88 -76 100 vhcurveto
          238 callsubr
          -60 153 -87 171 87 84 40 88 58 -58 99 -116 vhcurveto
          -47 -59 -9 -45 hhcurveto
          -22 -22 9 22 33 65 3 37 hvcurveto
          0 52 -2 44 87 84 40 88 58 -58 99 -116 vhcurveto
          -47 -59 -9 -45 hhcurveto
          -22 -22 9 22 33 65 3 209 callsubr
        </CharString>
        <CharString name="dvDD_DDHA">
          -10 198 callgsubr
          -39 -63 -93 88 -81 101 hvcurveto
          60 58 8 33 hhcurveto
          21 9 -8 -13 -26 -62 -20 -84 -98 -88 29 45 -53 hvcurveto
          -7 -4 -16 -9 -24 vvcurveto
          -34 50 -43 74 -30 vhcurveto
          -56 -25 -37 -41 -66 vvcurveto
          -132 161 -109 120 118 68 58 73 92 -84 73 -83 241 callgsubr
          13 2 10 3 9 vhcurveto
          22 8 18 10 16 249 callsubr
          87 101 30 110 11 hvcurveto
          73 7 73 37 76 vvcurveto
          58 -58 99 -116 vhcurveto
          -47 -59 -9 -45 hhcurveto
          -22 -22 8 22 33 65 2 209 callsubr
        </CharString>
        <CharString name="dvDD_R">
          -25 460 -260 10 callsubr
          -355 882 -83 callsubr
          181 -106 callsubr
          endchar
        </CharString>
        <CharString name="dvDD_RA">
          -25 283 -34 -20 callgsubr
          -348 703 -83 callsubr
          181 -106 callsubr
          endchar
        </CharString>
        <CharString name="dvDD_VA">
          -15 368 -25 rmoveto
          -12 0 -13 -1 -13 vhcurveto
          -50 -31 -54 -26 -46 hhcurveto
          -40 -33 20 41 35 34 37 89 30 27 2 3 25 hvcurveto
          -7 0 -8 -9 vvcurveto
          -433 694 -101 callgsubr
          301 -9 callgsubr
          -91 -50 -45 -72 -103 88 -87 101 hvcurveto
          -29 callsubr
          -34 36 -42 58 -35 vhcurveto
          -35 -19 -26 -33 -49 vvcurveto
          -74 89 -115 113 45 33 15 22 24 vhcurveto
          -4 -14 -2 -14 -14 vvcurveto
          -53 29 -45 59 10 12 1 5 11 vhcurveto
          -10 16 -3 45 32 50 4 57 54 vvcurveto
          31 -1 45 -27 24 vhcurveto
          52 23 27 38 53 vvcurveto
          97 -82 84 -98 vhcurveto
          -45 -56 -9 -43 hhcurveto
          -22 -22 9 22 38 65 2 290 callsubr
          40 49 29 -13 32 -25 26 hvcurveto
          181 -103 callgsubr
        </CharString>
        <CharString name="dvDD_YA">
          558 909 156 callgsubr
          -12 -14 2 11 hvcurveto
          34 111 17 81 vvcurveto
          55 -65 101 -106 -121 -91 -121 -56 -33 vhcurveto
          9 -22 -23 5 -24 -45 -56 -9 -43 hhcurveto
          -22 -22 9 22 38 65 2 37 hvcurveto
          32 16 -1 36 hhcurveto
          74 35 40 49 29 -10 32 -23 26 hvcurveto
          -490 -82 callsubr
          285 hlineto
          12 -9 6 -10 -11 vvcurveto
          -20 -17 -9 -26 vhcurveto
          1 -47 -18 0 -35 243 callsubr
          -29 callsubr
          -67 151 -106 171 107 65 59 84 30 -8 29 -14 26 vhcurveto
          75 45 80 81 84 hhcurveto
          13 4 -7 -5 hvcurveto
          -30 -130 -38 -59 vvcurveto
          -67 106 -102 105 53 41 17 22 30 vhcurveto
          -1 -5 0 -6 -5 vvcurveto
          -50 22 -47 67 -105 callsubr
        </CharString>
        <CharString name="dvDDxA">
          -25 301 -77 -75 callgsubr
          -366 746 -83 callsubr
          181 -106 callsubr
          endchar
        </CharString>
        <CharString name="dvDH">
          -172 262 -44 callgsubr
          -221 121 callgsubr
          -26 -6 -11 -23 316 callgsubr
          10 10 vvcurveto
          56 40 41 60 vhcurveto
          endchar
        </CharString>
        <CharString name="dvDHA">
          57 362 -9 callsubr
          -221 39 callgsubr
          -87 102 -102 132 58 43 18 28 33 vhcurveto
          -4 -17 -3 -18 -18 -7 callsubr
        </CharString>
        <CharString name="dvDH_MA">
          450 652 431 -48 callgsubr
          -328 179 callsubr
          246 callsubr
          -54 -15 -35 hhcurveto
          -45 -39 21 36 172 callgsubr
          -221 39 callgsubr
          -87 107 -102 138 76 70 39 62 36 vhcurveto
          -20 23 28 -14 27 -78 callgsubr
        </CharString>
        <CharString name="dvDH_NA">
          57 362 669 101 callgsubr
          -61 -1 -47 -1 -41 vhcurveto
          -57 -32 -68 -44 -71 89 callsubr
          -23 324 callsubr
          8 8 vvcurveto
          62 38 41 62 vhcurveto
          10 -106 callsubr
          -221 39 callgsubr
          -61 49 -66 74 -26 vhcurveto
          -70 -27 -51 -37 -37 118 callsubr
          17 -5 19 -9 23 vhcurveto
          87 45 58 19 35 34 rrcurveto
          -4 -18 -3 -20 -19 -7 callsubr
        </CharString>
        <CharString name="dvDH_N_YA">
          425 773 -25 callsubr
          -23 316 callgsubr
          10 10 vvcurveto
          56 40 41 60 vhcurveto
          10 hlineto
          -70 callsubr
          14 12 vvcurveto
          85 -90 0 -36 vhcurveto
          -221 39 callgsubr
          -59 47 -67 73 -36 vhcurveto
          -114 -23 -41 -38 -36 118 callsubr
          17 -6 21 -10 24 vhcurveto
          138 18 99 64 36 86 rrcurveto
          -49 50 70 -38 69 hhcurveto
          22 callgsubr
          hvcurveto
          55 callgsubr
          -37 28 vhcurveto
          170 -103 callgsubr
        </CharString>
        <CharString name="dvDH_R">
          -172 262 -44 callgsubr
          -221 39 callgsubr
          -72 71 -84 101 -12 vhcurveto
          -63 -21 -69 -18 -52 -8 rrcurveto
          -48 34 -43 56 124 249 162 115 27 -18 35 -52 7 vhcurveto
          -77 -32 -80 -58 -85 89 callsubr
          -23 324 callsubr
          8 8 vvcurveto
          62 38 41 62 vhcurveto
          endchar
        </CharString>
        <CharString name="dvDH_RA">
          57 362 -9 callsubr
          -221 39 callgsubr
          -67 62 -77 89 -20 vhcurveto
          -57 -23 -60 -20 -46 -8 rrcurveto
          -51 40 -45 65 58 124 71 103 93 vhcurveto
          -4 -19 -3 -20 -20 -7 callsubr
        </CharString>
        <CharString name="dvDH_VA">
          390 321 4 callgsubr
          -221 hlineto
          -3 -6 -2 -13 -8 vvcurveto
          -71 58 -18 51 10 9 1 1 8 vhcurveto
          -8 113 callsubr
        </CharString>
        <CharString name="dvDH_YA">
          425 773 -25 callsubr
          -23 316 callgsubr
          10 10 vvcurveto
          56 40 41 60 vhcurveto
          10 hlineto
          -70 callsubr
          14 12 vvcurveto
          85 -90 0 -36 vhcurveto
          -221 39 callgsubr
          -87 102 -102 132 82 74 52 65 33 vhcurveto
          -48 50 70 -38 68 hhcurveto
          22 callgsubr
          hvcurveto
          55 callgsubr
          -37 28 vhcurveto
          170 -103 callgsubr
        </CharString>
        <CharString name="dvD_BA">
          289 callgsubr
          20 20 2 3 18 hvcurveto
          -3 -48 -24 -35 -31 -23 rrcurveto
          -50 -24 rmoveto
          -4 -15 -15 -2 -15 hhcurveto
          -47 -42 20 40 172 callsubr
          -105 139 -84 88 98 74 58 80 14 vhcurveto
          -22 25 30 -15 36 -45 callgsubr
        </CharString>
        <CharString name="dvD_BHA">
          205 -70 -98 callgsubr
          496 264 callgsubr
          -63 -304 42 -180 vvcurveto
          -78 79 -80 93 -39 vhcurveto
          -29 -9 -31 -11 -36 -14 rrcurveto
          84 -50 -83 77 -91 hhcurveto
          -55 -51 -34 -59 -57 51 -62 57 19 17 7 12 12 hvcurveto
          -23 18 -17 32 29 vvcurveto
          18 12 14 16 28 32 -62 -60 25 vhcurveto
          -27 -14 -32 -23 -34 vvcurveto
          -62 81 -29 49 42 36 20 43 13 -2 14 -4 16 vhcurveto
          218 105 rlineto
          -67 28 48 -62 75 hhcurveto
          56 31 38 40 32 -19 27 -24 13 hvcurveto
          -12 -7 -20 -15 -29 hhcurveto
          -32 -25 17 21 -19 hvcurveto
          31 20 22 33 43 vvcurveto
          51 -35 46 -46 -42 -35 -30 -46 -11 2 -12 4 -11 vhcurveto
          -6 -19 -22 -3 -23 hhcurveto
          -50 -73 18 62 hvcurveto
          118 306 -50 127 44 callsubr
        </CharString>
        <CharString name="dvD_B_RA">
          289 callgsubr
          22 22 2 4 20 hvcurveto
          -3 -51 -23 -38 -34 -23 rrcurveto
          -50 -24 rmoveto
          -4 -14 -15 -2 -15 hhcurveto
          -50 -44 22 43 172 callsubr
          -91 93 -59 78 -1 vhcurveto
          -42 -20 -44 -18 -42 -13 rrcurveto
          -56 5 48 -14 33 hhcurveto
          82 167 100 127 30 hvcurveto
          -26 25 32 -17 39 -45 callgsubr
        </CharString>
        <CharString name="dvD_DA">
          -72 118 callgsubr
          242 305 callsubr
          -28 -31 1 -22 285 callsubr
          -34 16 -36 27 -32 hvcurveto
          -28 -23 -19 -33 -39 vvcurveto
          -93 115 -108 148 27 29 5 10 27 vhcurveto
          -4 0 -4 -3 vvcurveto
          -42 -33 -25 -42 -7 vhcurveto
          -46 8 39 -31 40 hhcurveto
          64 28 44 49 37 -17 37 -29 31 hvcurveto
          20 20 13 27 35 vvcurveto
          49 -38 44 -44 -36 -29 -26 -37 -17 5 -18 10 -14 vhcurveto
          -16 -24 -29 -8 -39 hhcurveto
          -51 -51 23 45 22 13 17 18 11 hvcurveto
          -5 13 14 -2 13 hhcurveto
          41 41 23 41 43 -46 28 -54 -18 -18 -3 -5 -18 hvcurveto
          -2 6 -1 6 6 vvcurveto
          26 17 22 52 vhcurveto
          22 37 -1 23 hhcurveto
          74 35 41 47 31 -15 35 -29 29 hvcurveto
          185 -103 callgsubr
        </CharString>
        <CharString name="dvD_DHA">
          182 493 129 callsubr
          -563 565 231 callgsubr
          -53 38 -54 56 -41 vhcurveto
          -20 -53 -23 -43 -51 hhcurveto
          -30 -20 18 28 hvcurveto
          37 41 34 45 vvcurveto
          55 -42 34 -47 -6 -8 -1 -1 -4 vhcurveto
          3 -8 1 -9 -9 -41 -42 -33 -54 vvcurveto
          -96 94 -84 90 13 13 2 4 13 vhcurveto
          -80 17 112 -62 73 hhcurveto
          98 73 53 73 15 hvcurveto
          -23 25 30 -15 36 -45 callgsubr
        </CharString>
        <CharString name="dvD_GA">
          17 -60 669 173 callsubr
          -91 115 -65 -77 vvcurveto
          -14 -3 -13 -7 -13 269 callsubr
          40 -13 37 -23 34 hvcurveto
          -15 41 41 -8 33 hhcurveto
          21 20 2 4 19 hvcurveto
          -68 28 49 -67 77 hhcurveto
          56 31 38 40 32 -19 27 -24 13 hvcurveto
          -12 -7 -20 -15 -29 hhcurveto
          -32 -26 17 21 -18 hvcurveto
          32 22 21 32 42 vvcurveto
          51 -35 46 -46 -42 -35 -30 -46 -11 2 -12 4 -11 vhcurveto
          -9 -25 -30 -4 -31 hhcurveto
          -52 -77 14 60 hvcurveto
          124 334 -53 134 44 callsubr
        </CharString>
        <CharString name="dvD_GHA">
          182 493 129 callsubr
          -323 5 rmoveto
          -30 -20 18 28 31 26 28 54 42 28 -21 -20 28 hvcurveto
          -21 -54 -23 -43 -51 hhcurveto
          -240 560 231 callgsubr
          -9 1 -9 3 -9 vhcurveto
          9 -23 -26 4 -19 hhcurveto
          -78 -45 -45 -57 -96 94 -84 90 13 13 2 4 13 hvcurveto
          -80 17 112 -62 73 hhcurveto
          98 73 53 73 15 hvcurveto
          -23 25 30 -15 36 -45 callgsubr
        </CharString>
        <CharString name="dvD_G_RA">
          17 -60 669 173 callsubr
          -79 86 -52 -75 vvcurveto
          -19 -4 -15 -8 -11 269 callsubr
          36 -8 31 -12 28 hvcurveto
          28 -12 29 -8 26 -4 rrcurveto
          6 -22 0 -32 -28 vvcurveto
          -35 0 -31 -1 -28 vhcurveto
          -46 -36 -116 -75 -85 -18 rrcurveto
          -39 3 28 -32 45 hhcurveto
          22 66 15 87 93 hvcurveto
          -3 -10 -2 -12 -12 vvcurveto
          -38 17 -40 56 8 11 1 5 11 vhcurveto
          -9 14 -2 39 27 65 2 72 69 vvcurveto
          27 0 39 -21 25 vhcurveto
          10 1 10 2 9 2 rrcurveto
          -69 28 50 -67 77 hhcurveto
          56 31 38 40 32 -19 27 -24 13 hvcurveto
          -12 -7 -20 -15 -29 hhcurveto
          -33 -27 18 23 -19 hvcurveto
          31 21 19 31 41 vvcurveto
          51 -35 46 -46 -42 -35 -30 -46 -11 2 -12 4 -11 vhcurveto
          -9 -25 -30 -4 -31 hhcurveto
          -52 -77 14 60 hvcurveto
          124 334 -53 134 44 callsubr
        </CharString>
        <CharString name="dvD_MA">
          174 537 552 rmoveto
          14 -21 0 -41 -34 vvcurveto
          -126 -2 -83 -1 -70 vhcurveto
          -40 2 -43 2 -37 1 rrcurveto
          85 -31 -76 60 -81 -34 -22 -12 -28 hhcurveto
          -22 -20 7 24 39 65 2 290 callsubr
          39 46 27 -13 30 -24 24 hvcurveto
          -471 -82 callsubr
          265 -9 callgsubr
          -91 -50 -41 -67 -94 83 -81 104 hvcurveto
          35 23 16 31 hhcurveto
          23 4 -17 -28 1 hvcurveto
          -40 -4 -38 -14 -45 vvcurveto
          -55 74 -67 49 35 26 21 53 6 vhcurveto
          104 -11 181 callsubr
        </CharString>
        <CharString name="dvD_NA">
          -76 -66 -98 callgsubr
          176 callgsubr
          -70 -268 12 -174 vvcurveto
          -104 94 -97 124 -16 vhcurveto
          -89 -36 -77 -46 -43 118 callsubr
          17 -5 21 -10 25 vhcurveto
          41 26 42 29 33 30 rrcurveto
          16 -16 6 -21 -17 vvcurveto
          -29 -18 -27 -36 -8 vhcurveto
          -35 16 35 -19 36 hhcurveto
          51 33 38 50 56 -43 47 -53 29 hvcurveto
          19 26 11 28 29 vvcurveto
          47 -29 47 -52 -42 -33 -31 -46 -16 5 -17 7 -14 vhcurveto
          -6 -20 -21 -2 -20 hhcurveto
          -53 -55 31 62 hvcurveto
          131 273 -27 128 -11 callgsubr
        </CharString>
        <CharString name="dvD_R">
          -71 271 -115 -39 callgsubr
          -337 784 -101 callgsubr
          176 callgsubr
          -70 -268 12 -174 -35 callsubr
        </CharString>
        <CharString name="dvD_RA">
          -71 -66 -98 callgsubr
          176 callgsubr
          -70 -268 12 -174 -35 callsubr
        </CharString>
        <CharString name="dvD_VA">
          17 328 129 callsubr
          -388 565 209 callgsubr
          -40 -18 -32 -32 -52 vvcurveto
          -103 134 -82 85 98 73 53 73 15 vhcurveto
          -23 25 30 -15 36 -45 callgsubr
        </CharString>
        <CharString name="dvD_YA">
          62 416 92 callgsubr
          -54 -1 -46 -1 -41 vhcurveto
          -87 -34 -72 -89 -105 hhcurveto
          -35 -28 17 30 21 14 15 20 11 hvcurveto
          -7 17 17 -4 18 hhcurveto
          45 37 25 39 43 -46 28 -54 -25 -23 -3 -5 -20 hvcurveto
          -2 4 -1 4 5 60 148 -31 100 vvcurveto
          23 -11 24 -18 22 vhcurveto
          -346 -82 callsubr
          148 hlineto
          5 -5 4 -6 -6 -38 -152 22 -114 vvcurveto
          -38 19 -31 22 -24 vhcurveto
          -30 -22 -18 -31 -38 vvcurveto
          -83 106 -98 141 64 46 23 37 35 vhcurveto
          -1 -6 0 -5 -6 vvcurveto
          -59 27 -51 70 -103 callsubr
          134 -79 callsubr
          -2 56 -37 28 vhcurveto
          167 -103 callgsubr
        </CharString>
        <CharString name="dvE">
          11 -71 callgsubr
          9 hlineto
          15 -25 0 -48 -39 -55 -2 -41 -37 -177 345 -24 -105 vvcurveto
          -27 -21 -18 -40 vhcurveto
          0 18 -78 86 55 32 41 49 vhcurveto
          174 -342 6 161 42 2 40 40 vvcurveto
          37 -2 56 -37 28 vhcurveto
          221 hlineto
          17 -19 18 -31 -54 vvcurveto
          -66 -46 -29 -49 -12 -12 2 3 -11 vhcurveto
          -68 4 53 -44 63 hhcurveto
          93 26 79 61 45 -16 66 -42 55 hvcurveto
          173 -103 callgsubr
        </CharString>
        <CharString name="dvEcandra">
          11 319 747 70 callgsubr
          -397 -78 -101 callgsubr
          9 hlineto
          15 -25 0 -48 -39 -55 -2 -41 -37 -177 345 -24 -105 vvcurveto
          -27 -21 -18 -40 vhcurveto
          0 18 -78 86 55 32 41 49 vhcurveto
          174 -342 6 161 42 2 40 40 vvcurveto
          37 -2 56 -37 28 vhcurveto
          221 hlineto
          17 -19 18 -31 -54 vvcurveto
          -66 -46 -29 -49 -12 -12 2 3 -11 vhcurveto
          -68 4 53 -44 63 hhcurveto
          93 26 79 61 45 -16 66 -42 55 hvcurveto
          173 -103 callgsubr
        </CharString>
        <CharString name="dvEight">
          -60 402 260 rmoveto
          -96 -54 -72 -30 -46 hhcurveto
          -54 -35 32 48 56 50 64 35 41 hvcurveto
          97 117 67 52 69 vvcurveto
          38 -25 33 -44 11 vhcurveto
          0 -63 -80 -159 -178 vhcurveto
          -48 -54 -21 -59 -55 vvcurveto
          -127 104 -109 148 127 57 73 64 38 -22 35 -42 17 vhcurveto
          endchar
        </CharString>
        <CharString name="dvEyelash">
          -70 -98 callgsubr
          296 -106 callsubr
          149 -221 rmoveto
          -41 -40 -78 -30 -79 268 callgsubr
          126 57 52 57 26 -12 30 -29 20 vhcurveto
          endchar
        </CharString>
        <CharString name="dvEyelash_HA">
          147 -70 -98 callgsubr
          456 79 callgsubr
          -38 -20 1 -30 hhcurveto
          -98 -41 -50 -60 -1 hvcurveto
          -9 -29 -32 -5 -32 268 callgsubr
          28 29 4 7 28 vhcurveto
          8 -10 rlineto
          -49 callsubr
        </CharString>
        <CharString name="dvEyelash_YA">
          260 608 552 -97 callgsubr
          20 110 -37 callsubr
          -557 -82 callsubr
          354 278 callsubr
          -114 -65 -116 -63 -61 16 28 -39 vhcurveto
          -12 -7 -8 -14 -16 vvcurveto
          -53 116 -65 117 19 19 2 3 20 vhcurveto
          -66 22 103 -78 99 hhcurveto
          22 callgsubr
          hvcurveto
          55 callgsubr
          -37 28 vhcurveto
          170 -103 callgsubr
        </CharString>
        <CharString name="dvFive">
          -6 556 66 rmoveto
          -3 -10 -12 -1 -10 hhcurveto
          -72 -31 51 63 -20 hvcurveto
          34 22 23 34 47 vvcurveto
          66 -43 44 -46 -39 -37 -30 -56 -16 3 -19 6 -14 vhcurveto
          -9 -19 -27 -5 -25 hhcurveto
          -52 -34 37 48 118 126 120 104 34 hvcurveto
          17 -18 56 -76 -95 -156 -143 -143 -139 127 -99 135 13 14 1 2 13 vhcurveto
          -95 27 46 -110 86 hhcurveto
          56 20 39 32 18 -4 19 -7 14 hvcurveto
          endchar
        </CharString>
        <CharString name="dvFour">
          -37 245 112 rmoveto
          -36 -32 25 46 37 37 37 49 40 hvcurveto
          33 -34 23 -37 -42 vvcurveto
          -43 -35 -29 -39 vhcurveto
          129 532 rmoveto
          2 -9 1 -8 -8 vvcurveto
          -72 -79 -55 -79 -60 vhcurveto
          -42 33 -31 31 30 vvcurveto
          27 23 12 13 4 vhcurveto
          52 -40 37 -48 -43 -41 -31 -58 -70 74 -57 75 -58 vhcurveto
          -53 -46 -41 -52 -65 vvcurveto
          -90 90 -106 131 84 77 60 85 68 -56 59 -63 51 vhcurveto
          78 61 79 66 75 vvcurveto
          51 -35 44 -59 vhcurveto
          endchar
        </CharString>
        <CharString name="dvG">
          -227 -8 callgsubr
          204 -103 callgsubr
        </CharString>
        <CharString name="dvGA">
          38 -8 callgsubr
          189 hlineto
          -73 callgsubr
          -154 -5 -71 -78 vvcurveto
          -43 2 -109 104 -102 callgsubr
          168 -106 callsubr
          endchar
        </CharString>
        <CharString name="dvGH">
          -187 423 -44 callgsubr
          -382 121 callgsubr
          -27 -6 -12 -24 hvcurveto
          -1 7 -1 7 7 vvcurveto
          60 33 31 28 15 vhcurveto
          endchar
        </CharString>
        <CharString name="dvGHA">
          19 callsubr
          -87 102 -102 132 56 45 17 30 35 vhcurveto
          -6 -21 -3 -19 -17 vvcurveto
          -66 40 -35 57 -105 callsubr
        </CharString>
        <CharString name="dvGH_MA">
          439 641 431 -48 callgsubr
          -218 164 rmoveto
          0 11 vlineto
          246 callsubr
          -43 -15 -46 -3 callgsubr
          100 245 callsubr
          -9 vlineto
          -382 39 callgsubr
          -87 102 -102 132 75 69 46 57 36 vhcurveto
          -21 24 28 -15 28 -78 callgsubr
        </CharString>
        <CharString name="dvGH_NA">
          19 callsubr
          -61 49 -66 74 -26 vhcurveto
          -70 -27 -51 -37 -37 118 callsubr
          17 -5 19 -9 23 vhcurveto
          87 45 58 19 35 33 rrcurveto
          -5 -22 -2 -21 -16 vvcurveto
          -66 40 -35 57 -105 callsubr
        </CharString>
        <CharString name="dvGH_R">
          -187 423 -44 callgsubr
          -382 39 callgsubr
          -73 70 -80 101 -11 vhcurveto
          -63 -23 -69 -20 -52 -8 rrcurveto
          -51 3 40 -44 60 hhcurveto
          70 148 81 87 84 hvcurveto
          37 39 25 39 34 vvcurveto
          27 -18 35 -55 8 vhcurveto
          -76 -31 -81 -59 -85 -3 callgsubr
          endchar
        </CharString>
        <CharString name="dvGH_RA">
          19 callsubr
          -73 70 -80 101 -11 vhcurveto
          -63 -23 -69 -20 -52 -8 161 callsubr
          57 122 69 100 92 hvcurveto
          -4 -21 -2 -20 -16 vvcurveto
          -66 40 -35 57 -105 callsubr
        </CharString>
        <CharString name="dvGH_YA">
          415 763 -101 callsubr
          -82 hmoveto
          29 callgsubr
          vvcurveto
          -52 -48 -30 -44 -29 vhcurveto
          -52 -34 -23 -63 -32 -49 rrcurveto
          -39 -26 -32 -30 -58 -3 callgsubr
          -291 117 rmoveto
          8 callsubr
          -87 102 -102 132 72 74 49 69 32 vhcurveto
          -49 50 71 -38 68 hhcurveto
          22 callgsubr
          hvcurveto
          55 callgsubr
          -37 28 vhcurveto
          170 -103 callgsubr
        </CharString>
        <CharString name="dvG_BA">
          371 608 215 83 callgsubr
          -215 324 164 callgsubr
          523 137 callgsubr
          -104 127 51 callgsubr
          -97 113 -142 136 49 47 13 26 33 vhcurveto
          -4 -13 -3 -13 -14 vvcurveto
          -54 27 -55 73 -105 callsubr
        </CharString>
        <CharString name="dvG_BHA">
          427 644 126 callsubr
          -26 -21 -7 -13 -17 hvcurveto
          20 -29 -43 0 -22 hhcurveto
          -365 -21 callsubr
          138 hlineto
          -55 3 35 -56 55 hhcurveto
          0 callsubr
          161 hlineto
          -2 -47 -1 -37 -39 -99 callgsubr
        </CharString>
        <CharString name="dvG_BH_YA">
          745 1093 -101 callsubr
          -307 254 callgsubr
          -75 -100 -28 -39 -40 vhcurveto
          -34 2 -39 3 -41 285 callgsubr
          -28 -22 -8 -14 -17 hvcurveto
          22 -30 -45 0 -23 hhcurveto
          -365 -21 callsubr
          145 hlineto
          -55 3 35 -56 55 hhcurveto
          0 callsubr
          97 hlineto
          13 11 1 1 9 hvcurveto
          -69 45 94 -66 91 hhcurveto
          22 callgsubr
          hvcurveto
          55 callgsubr
          -37 28 vhcurveto
          170 -103 callgsubr
        </CharString>
        <CharString name="dvG_DA">
          259 -8 callgsubr
          193 290 callgsubr
          -76 -268 14 -189 vvcurveto
          -122 142 -115 134 14 14 1 2 13 vhcurveto
          -79 callgsubr
        </CharString>
        <CharString name="dvG_DHA">
          397 702 -9 callsubr
          -561 -21 callsubr
          190 243 callgsubr
          58 43 18 28 33 vhcurveto
          -4 -17 -3 -18 -18 -7 callsubr
        </CharString>
        <CharString name="dvG_DH_VA">
          729 660 4 callgsubr
          -560 -21 callsubr
          122 hlineto
          30 24 1 2 15 hvcurveto
          -9 113 callsubr
        </CharString>
        <CharString name="dvG_DH_YA">
          773 1121 -25 callsubr
          -23 316 callgsubr
          10 10 vvcurveto
          56 40 41 60 vhcurveto
          10 hlineto
          -70 callsubr
          14 12 vvcurveto
          85 -90 0 -36 vhcurveto
          -569 -21 callsubr
          145 hlineto
          21 20 1 2 13 hvcurveto
          -8 254 callsubr
          82 74 52 65 33 vhcurveto
          -48 50 70 -38 68 hhcurveto
          22 callgsubr
          hvcurveto
          55 callgsubr
          -37 28 vhcurveto
          170 -103 callgsubr
        </CharString>
        <CharString name="dvG_GA">
          388 -8 callgsubr
          191 0 -81 callgsubr
          189 hlineto
          -73 callgsubr
          -154 -5 -71 -78 vvcurveto
          -43 2 -109 104 -102 callgsubr
          168 -106 callsubr
          endchar
        </CharString>
        <CharString name="dvG_GHA">
          407 761 28 callsubr
          -641 117 102 callsubr
          200 243 callgsubr
          56 45 17 30 35 vhcurveto
          -6 -21 -3 -19 -17 vvcurveto
          -66 40 -35 57 -105 callsubr
        </CharString>
        <CharString name="dvG_JA">
          523 312 669 rmoveto
          -1 vlineto
          1 -10 -8 0 -7 hhcurveto
          -365 -21 callsubr
          204 1 hlineto
          -1 11 9 0 7 318 callgsubr
          -321 hlineto
          94 callsubr
          -74 callgsubr
        </CharString>
        <CharString name="dvG_LA">
          510 -8 callgsubr
          191 0 473 hlineto
          15 -23 0 -44 -37 vvcurveto
          -18 vlineto
          15 -24 -28 8 -29 hhcurveto
          -44 -42 -18 -31 -32 hvcurveto
          36 -42 -53 21 -49 hhcurveto
          -99 -63 -68 -102 -143 130 -142 66 19 12 10 13 7 hvcurveto
          -96 callgsubr
        </CharString>
        <CharString name="dvG_MA">
          380 582 431 -48 callgsubr
          -660 281 102 callsubr
          173 0 38 callgsubr
        </CharString>
        <CharString name="dvG_NA">
          38 -78 669 53 callsubr
          176 hlineto
          -73 callgsubr
          vvcurveto
          -76 -2 -56 -1 -47 vhcurveto
          -55 -24 -251 -93 317 callsubr
          18 -5 20 -11 25 vhcurveto
          136 84 rlineto
          -7 -21 -4 -25 -23 vvcurveto
          -58 26 -57 75 -102 callgsubr
          168 -106 callsubr
          endchar
        </CharString>
        <CharString name="dvG_NNA">
          538 645 55 callsubr
          -567 117 102 callsubr
          178 hlineto
          34 callgsubr
          171 14 callgsubr
        </CharString>
        <CharString name="dvG_N_YA">
          365 713 -101 callsubr
          -670 117 53 callsubr
          191 0 104 hlineto
          29 callgsubr
          -93 -155 -21 -62 vvcurveto
          -26 12 -29 19 -28 vhcurveto
          -102 -40 -195 -82 -71 118 callsubr
          18 -5 20 -11 25 vhcurveto
          142 87 12 7 10 8 6 8 rlinecurve
          -39 48 61 -29 60 hhcurveto
          22 callgsubr
          hvcurveto
          55 callgsubr
          -37 28 vhcurveto
          170 -103 callgsubr
        </CharString>
        <CharString name="dvG_R">
          -227 406 -44 callgsubr
          -365 hlineto
          106 callgsubr
          201 -250 87 callsubr
        </CharString>
        <CharString name="dvG_RA">
          38 -78 669 53 callsubr
          176 hlineto
          -73 callgsubr
          vvcurveto
          -62 -1 -49 -1 -41 261 callsubr
          39 -43 59 hhcurveto
          28 83 18 112 121 hvcurveto
          -5 -18 -3 -19 -19 vvcurveto
          -58 26 -57 75 -102 callgsubr
          168 -106 callsubr
          endchar
        </CharString>
        <CharString name="dvG_R_YA">
          365 713 -101 callsubr
          -305 245 callsubr
          -365 vlineto
          106 callgsubr
          295 hlineto
          29 callgsubr
          -93 -155 -21 -62 vvcurveto
          -22 8 -24 15 -24 vhcurveto
          -64 -50 -116 -74 -122 -29 186 callsubr
          78 144 101 74 44 hvcurveto
          -42 49 64 -32 63 hhcurveto
          22 callgsubr
          hvcurveto
          55 callgsubr
          -37 28 vhcurveto
          170 -103 callgsubr
        </CharString>
        <CharString name="dvG_SA">
          527 881 -36 callsubr
          -367 117 rmoveto
          -1 hlineto
          -365 -21 callsubr
          204 hlineto
          3 hlineto
          155 hlineto
          29 -22 15 -39 -39 vvcurveto
          -53 -29 -51 -63 -2 vhcurveto
          48 -15 -21 37 -44 hhcurveto
          -43 -20 -37 -33 -60 45 -45 52 -23 hvcurveto
          -99 29 53 -144 105 -87 callgsubr
        </CharString>
        <CharString name="dvG_VA">
          336 -8 callgsubr
          186 0 302 -35 callgsubr
          -93 108 -137 130 39 38 12 24 28 vhcurveto
          -5 -16 -3 -18 -18 vvcurveto
          -54 27 -55 73 -105 callsubr
        </CharString>
        <CharString name="dvG_YA">
          357 705 -101 callsubr
          -297 117 164 callgsubr
          300 52 callsubr
        </CharString>
        <CharString name="dvGx">
          -227 142 119 -75 callgsubr
          -220 550 102 callsubr
          204 -103 callgsubr
        </CharString>
        <CharString name="dvGxA">
          38 142 119 -75 callgsubr
          -220 550 102 callsubr
          189 hlineto
          -73 callgsubr
          -154 -5 -71 -78 vvcurveto
          -43 2 -109 104 -102 callgsubr
          168 -106 callsubr
          endchar
        </CharString>
        <CharString name="dvGx_R">
          -227 406 -44 callgsubr
          -365 hlineto
          106 callgsubr
          26 -590 -75 callgsubr
          175 340 87 callsubr
        </CharString>
        <CharString name="dvGx_RA">
          38 241 -38 -75 callgsubr
          -319 707 53 callsubr
          176 hlineto
          -73 callgsubr
          vvcurveto
          -62 -1 -49 -1 -41 261 callsubr
          39 -43 59 hhcurveto
          28 83 18 112 121 hvcurveto
          -5 -18 -3 -19 -19 vvcurveto
          -58 26 -57 75 -102 callgsubr
          168 -106 callsubr
          endchar
        </CharString>
        <CharString name="dvH">
          -72 556 -44 callgsubr
          -502 -68 callsubr
          230 157 callgsubr
          -42 21 -46 35 -38 hvcurveto
          -29 -27 -18 -38 -47 237 callsubr
          -89 -93 47 85 64 54 43 79 hvcurveto
          178 hlineto
          83 14 36 24 14 -4 10 0 hvcurveto
          6 -63 -133 11 -130 hhcurveto
          -31 -31 -5 -11 -27 hvcurveto
          -6 11 -4 13 12 184 callgsubr
          30 28 -1 31 hhcurveto
          74 35 287 callgsubr
          37 -32 29 hvcurveto
          endchar
        </CharString>
        <CharString name="dvHA">
          -83 -65 669 rmoveto
          -3 -6 -2 -13 -8 vvcurveto
          -90 90 0 36 vhcurveto
          230 hlineto
          20 -9 12 -19 -15 vvcurveto
          -15 -12 -13 -26 vhcurveto
          -38 -20 1 -30 hhcurveto
          -99 -41 -51 -61 -42 21 -45 34 -38 hvcurveto
          -49 callsubr
        </CharString>
        <CharString name="dvHA_mU">
          167 callgsubr
          -86 60 -77 85 -42 vhcurveto
          -12 -13 -6 -16 -16 vvcurveto
          -31 23 -30 43 -4 vhcurveto
          208 callsubr
          84 67 57 70 vhcurveto
          180 -270 -33 155 129 callgsubr
        </CharString>
        <CharString name="dvHA_mUU">
          167 callgsubr
          -69 38 -63 59 -44 vhcurveto
          -50 -20 -35 -42 -57 vvcurveto
          188 callgsubr
          38 -36 57 -55 49 vhcurveto
          -106 93 -161 15 117 129 callgsubr
        </CharString>
        <CharString name="dvHA_mvR">
          6 -62 callsubr
          255 302 callgsubr
          -9 -11 -26 vhcurveto
          -62 -4 2 -49 285 callsubr
          -43 22 -47 36 -38 hvcurveto
          -30 -32 -19 -43 -53 vvcurveto
          -156 152 -112 136 46 30 296 callsubr
          -101 -99 51 106 92 90 59 81 19 7 -5 -9 hvcurveto
          -25 -48 -41 -51 vvcurveto
          -61 72 -75 105 70 53 48 59 41 -32 35 -47 3 vhcurveto
          -79 -20 -50 -26 -31 hhcurveto
          -14 -8 8 11 hvcurveto
          29 48 33 53 vvcurveto
          70 -81 64 -119 -38 -38 -9 -16 -33 vhcurveto
          -5 11 -3 12 11 184 callgsubr
          49 17 -2 50 272 callgsubr
          235 -103 callgsubr
        </CharString>
        <CharString name="dvH_LA">
          126 -62 callsubr
          439 79 callgsubr
          -129 -66 1 -102 285 callsubr
          -49 29 -55 47 -40 hvcurveto
          -46 -44 -28 -61 -78 vvcurveto
          -177 172 -147 155 51 34 17 33 7 -1 8 -3 9 vhcurveto
          -3 -13 -14 -1 -13 hhcurveto
          -130 -118 98 124 127 98 68 115 100 51 -43 -59 25 hvcurveto
          2 -10 -9 2 -10 hhcurveto
          -28 -22 -10 -15 -18 hvcurveto
          23 -27 -35 13 -35 hhcurveto
          -64 -50 -42 -66 -95 98 -61 50 17 8 9 12 3 hvcurveto
          -41 22 -41 33 50 vvcurveto
          37 26 26 32 10 10 -2 -4 7 vhcurveto
          -11 -20 -3 -16 -20 vvcurveto
          -32 24 -26 27 31 15 28 23 14 -2 14 -4 12 vhcurveto
          22 13 22 11 21 hhcurveto
          4 3 0 -1 4 hvcurveto
          4 -22 1 -24 -23 vvcurveto
          -8 0 -11 1 -11 vhcurveto
          -40 4 16 -53 65 hhcurveto
          9 12 1 4 13 hvcurveto
          -10 16 -3 40 30 vvcurveto
          18 -1 18 -2 17 vhcurveto
          175 -23 -137 130 -181 hhcurveto
          -61 -58 -14 -26 -47 hvcurveto
          -12 16 -9 19 19 184 callgsubr
          102 91 -1 105 hhcurveto
          73 36 25 callsubr
        </CharString>
        <CharString name="dvH_MA">
          204 587 552 rmoveto
          14 -21 0 -41 -34 vvcurveto
          -128 -2 -84 -2 -71 vhcurveto
          -41 3 -45 2 -40 1 rrcurveto
          88 -35 -90 47 -85 hhcurveto
          -34 -33 -7 -13 -29 hvcurveto
          -5 10 -3 11 11 vvcurveto
          26 17 22 49 vhcurveto
          45 52 -2 46 272 callgsubr
          -492 -82 callsubr
          281 302 callgsubr
          -8 -11 -27 vhcurveto
          -56 -41 2 -45 285 callsubr
          -45 22 -43 35 -37 hvcurveto
          -30 -31 -18 -44 -55 237 callsubr
          -88 -93 50 90 83 64 50 77 30 13 -15 -29 5 hvcurveto
          -33 -4 -30 -12 -34 vvcurveto
          -55 74 -67 49 31 21 19 49 5 vhcurveto
          110 -14 181 callsubr
        </CharString>
        <CharString name="dvH_NA">
          35 -62 callsubr
          348 79 callgsubr
          -89 -47 1 -70 285 callsubr
          -47 26 -51 42 -40 hvcurveto
          -36 -36 -23 -52 -66 vvcurveto
          -162 169 -133 151 286 callgsubr
          -109 -105 78 105 97 81 66 102 39 31 -11 -17 22 hvcurveto
          -78 -35 -122 -61 -54 226 callgsubr
          -9 22 vhcurveto
          81 51 rlineto
          -4 vlineto
          131 callsubr
          -78 0 -36 vhcurveto
          endchar
        </CharString>
        <CharString name="dvH_NNA">
          117 388 196 rmoveto
          6 -14 8 -37 -46 vvcurveto
          -69 -5 -37 -27 -32 0 32 54 51 -11 36 -32 15 vhcurveto
          10 26 30 5 33 hhcurveto
          -449 473 -101 callgsubr
          441 79 callgsubr
          -168 -19 1 -112 285 callsubr
          -50 30 -57 49 -41 hvcurveto
          -44 -39 -27 -55 -72 vvcurveto
          -161 172 -130 147 286 callgsubr
          -107 -106 78 108 55 27 48 45 31 hvcurveto
          -1 -35 -4 -34 -31 vvcurveto
          -70 77 -69 78 72 26 54 55 75 -27 53 -18 25 vhcurveto
          61 -23 50 -51 -63 -18 -1 -17 -16 vvcurveto
          -34 2 -86 82 10 11 1 5 12 vhcurveto
          -9 13 -3 40 30 16 1 17 17 vvcurveto
          153 -187 126 -144 -57 -54 -11 -23 -45 vhcurveto
          -14 17 -11 22 21 184 callgsubr
          139 67 -1 94 hhcurveto
          74 35 25 callsubr
        </CharString>
        <CharString name="dvH_RA">
          35 -62 callsubr
          348 79 callgsubr
          -89 -47 1 -70 285 callsubr
          -47 26 -51 42 -40 hvcurveto
          -36 -36 -23 -52 -66 vvcurveto
          -159 169 -131 151 52 26 24 27 9 -3 11 -4 9 vhcurveto
          -4 -18 -20 -2 -19 hhcurveto
          -109 -105 76 102 97 81 66 102 35 28 -9 -14 22 hvcurveto
          -54 -53 -80 -66 -68 -27 rrcurveto
          -37 10 32 -25 44 hhcurveto
          52 87 63 69 26 hvcurveto
          1 -5 0 -4 -5 131 callsubr
          -90 0 -36 vhcurveto
          endchar
        </CharString>
        <CharString name="dvH_VA">
          35 -62 callsubr
          348 79 callgsubr
          -89 -47 1 -70 285 callsubr
          -47 26 -51 42 -40 hvcurveto
          -36 -36 -23 -52 -66 vvcurveto
          -175 169 -143 151 47 29 296 callsubr
          -117 -115 80 127 97 81 66 102 92 51 -55 -58 hvcurveto
          -11 0 -11 -11 vvcurveto
          -45 -26 -45 -39 -55 hhcurveto
          -24 -26 13 27 25 27 15 25 25 14 -7 -3 6 hvcurveto
          7 10 4 16 12 vvcurveto
          42 -43 24 -46 -51 -54 -31 -71 -63 76 -90 90 43 41 16 32 26 vhcurveto
          -2 -9 -1 -8 -8 vvcurveto
          -43 27 -30 47 9 12 1 4 13 vhcurveto
          -10 15 -3 41 30 32 1 38 34 vvcurveto
          152 -166 113 -134 -51 -48 -10 -21 -40 vhcurveto
          -10 15 -6 16 16 vvcurveto
          26 16 24 49 vhcurveto
          70 65 -1 72 hhcurveto
          73 36 287 callgsubr
          35 46 callsubr
        </CharString>
        <CharString name="dvH_YA">
          194 576 552 rmoveto
          15 -22 0 -43 -36 vvcurveto
          -96 -2 -68 -1 -58 vhcurveto
          -79 -34 -62 -76 -85 hhcurveto
          -16 -7 5 7 hvcurveto
          21 99 29 53 vvcurveto
          62 -94 66 -114 -39 -37 -8 -16 -33 vhcurveto
          -5 11 -3 11 11 184 callgsubr
          49 18 -2 50 272 callgsubr
          -466 -82 callsubr
          255 302 callgsubr
          -9 -11 -26 vhcurveto
          -62 -5 2 -49 293 callsubr
          -47 36 -38 hvcurveto
          -28 -30 -17 -41 -50 vvcurveto
          -142 134 -119 151 170 callsubr
          vhcurveto
          234 callgsubr
          -89 -93 54 98 93 88 47 76 18 22 -2 -13 hvcurveto
          -32 -101 -26 -42 vvcurveto
          -53 86 -77 84 64 47 30 38 33 vhcurveto
          -2 -8 -1 -7 -8 vvcurveto
          -50 28 -45 64 11 14 1 6 15 vhcurveto
          -11 17 -4 50 35 123 5 133 129 vvcurveto
          36 -1 54 -35 28 vhcurveto
          164 -103 callgsubr
        </CharString>
        <CharString name="dvI">
          -87 -71 callgsubr
          261 hlineto
          13 -9 5 -11 -11 vvcurveto
          -19 -20 -9 -31 vhcurveto
          -27 -19 1 -20 243 callsubr
          36 36 7 19 hhcurveto
          22 13 -10 -16 -36 -67 -25 222 callgsubr
          -56 40 -45 60 -29 hvcurveto
          -98 31 57 -129 115 hhcurveto
          47 40 30 45 26 -12 24 -19 16 hvcurveto
          -16 -19 -24 -5 -18 hhcurveto
          -53 -40 39 43 -27 hvcurveto
          -5 27 29 -3 30 hhcurveto
          101 71 55 88 104 -89 77 -91 hvcurveto
          -28 -36 -9 -27 hhcurveto
          -21 -25 7 24 40 71 0 31 hvcurveto
          19 23 -1 21 hhcurveto
          74 35 40 49 29 -12 32 -25 26 hvcurveto
          171 -103 callgsubr
        </CharString>
        <CharString name="dvII">
          -87 312 669 rmoveto
          -39 34 -47 44 54 vvcurveto
          30 20 19 26 36 14 215 callgsubr
          53 -43 69 -82 -67 -47 -54 -69 -73 43 -66 43 -33 hvcurveto
          -298 38 callsubr
          endchar
        </CharString>
        <CharString name="dvII_Anusvara">
          -87 250 669 rmoveto
          -29 21 -52 40 62 270 callsubr
          288 callsubr
          1 -70 40 -61 41 -32 rrcurveto
          -235 38 callsubr
          -214 115 143 callsubr
        </CharString>
        <CharString name="dvJ">
          153 callsubr
          139 -100 rmoveto
          94 callsubr
          220 -103 callgsubr
        </CharString>
        <CharString name="dvJA">
          151 52 callgsubr
          292 callgsubr
          -321 hlineto
          94 callsubr
          -74 callgsubr
        </CharString>
        <CharString name="dvJH">
          -26 605 -44 callgsubr
          -564 82 callgsubr
          31 -9 27 -12 24 hvcurveto
          -13 33 38 -7 36 hhcurveto
          72 54 30 52 27 -14 27 -20 12 hvcurveto
          -30 -36 -36 -19 -86 -75 -61 23 -64 160 callsubr
          endchar
        </CharString>
        <CharString name="dvJHA">
          188 544 552 rmoveto
          15 -23 0 -44 -37 -45 -1 -35 -31 vvcurveto
          -25 -22 -35 -17 -51 -58 -49 23 -54 -32 -32 -8 -27 -66 callgsubr
          28 -7 24 -10 22 hvcurveto
          -9 22 21 -3 19 hhcurveto
          21 17 5 7 13 hvcurveto
          -5 -27 -3 -31 -29 vvcurveto
          -66 23 -62 80 -70 callgsubr
        </CharString>
        <CharString name="dvJH_MA">
          566 768 431 -48 callgsubr
          -149 164 rmoveto
          321 callsubr
          -14 vhcurveto
          -41 -4 -22 -14 -20 -14 rrcurveto
          -22 -31 -27 -24 -87 -44 -36 7 -38 -32 -32 -8 -27 -66 callgsubr
          31 -8 26 -13 24 hvcurveto
          -5 17 19 -3 19 hhcurveto
          30 29 9 16 24 hvcurveto
          -34 27 39 -27 38 -78 callgsubr
        </CharString>
        <CharString name="dvJH_NA">
          360 720 92 callgsubr
          -18 0 -16 -1 -15 vhcurveto
          -72 -66 -110 -13 -94 -51 -52 4 -49 -54 -29 -8 -31 -66 callgsubr
          40 -14 32 -18 30 hvcurveto
          -12 43 44 -4 37 hhcurveto
          77 67 29 26 37 hvcurveto
          -2 -18 -1 -19 -1 -20 rrcurveto
          -95 -38 -144 -66 -58 vvcurveto
          -54 76 -45 49 36 28 20 33 17 -5 19 -9 23 vhcurveto
          76 46 rlineto
          -7 -32 -6 -35 -32 vvcurveto
          -61 22 -52 72 -104 callsubr
          132 5 145 139 vvcurveto
          37 -2 56 -37 28 vhcurveto
          166 -103 callgsubr
        </CharString>
        <CharString name="dvJH_R">
          41 671 -44 callgsubr
          -630 82 callgsubr
          40 -14 32 -18 30 hvcurveto
          -12 43 44 -4 37 hhcurveto
          70 54 17 17 34 hvcurveto
          -49 -73 -96 -42 -72 -22 rrcurveto
          -47 10 37 -34 50 hhcurveto
          103 75 110 105 50 -7 53 -34 46 hvcurveto
          -74 -65 -102 -12 -105 -51 -52 4 -49 -54 -29 -8 -31 hhcurveto
          -21 -25 6 24 37 71 0 31 hvcurveto
          22 27 -1 25 hhcurveto
          74 35 40 49 29 -12 32 -25 26 hvcurveto
          endchar
        </CharString>
        <CharString name="dvJH_RA">
          340 696 92 callgsubr
          -19 0 -16 -1 -14 vhcurveto
          -72 -63 -90 -13 -93 -51 -52 4 -49 -54 -29 -8 -31 -66 callgsubr
          40 -14 32 -18 30 hvcurveto
          -12 43 44 -4 37 hhcurveto
          74 55 27 25 31 hvcurveto
          -1 -16 -1 -17 -1 -17 -67 -44 -75 -39 -74 -22 rrcurveto
          -47 10 37 -34 50 hhcurveto
          47 46 32 47 34 hvcurveto
          -2 -10 -1 -11 -10 vvcurveto
          -42 16 -49 72 -71 callsubr
        </CharString>
        <CharString name="dvJH_YA">
          558 906 -101 callsubr
          -82 hmoveto
          29 callgsubr
          vvcurveto
          -59 -57 -29 -45 -29 vhcurveto
          -40 -61 -26 -57 -83 -56 -46 8 -48 -32 -32 -8 -27 -66 callgsubr
          33 -10 28 -13 25 hvcurveto
          -6 19 21 -3 19 hhcurveto
          39 37 11 22 27 hvcurveto
          -57 42 83 -52 80 hhcurveto
          22 callgsubr
          hvcurveto
          55 callgsubr
          -37 28 vhcurveto
          170 -103 callgsubr
        </CharString>
        <CharString name="dvJ_BA">
          487 724 215 83 callgsubr
          -678 84 callgsubr
          780 137 callgsubr
          -104 127 rcurveline
          -68 callgsubr
          -70 -70 -35 -75 -19 vhcurveto
          70 -59 -65 1 -86 hhcurveto
          -86 165 callsubr
          106 -4 -6 -26 80 -98 rrcurveto
          -57 46 70 -46 77 hhcurveto
          49 47 13 26 33 hvcurveto
          -4 -13 -3 -13 -14 vvcurveto
          -54 27 -55 73 -105 callsubr
        </CharString>
        <CharString name="dvJ_DA">
          379 52 callgsubr
          692 311 callsubr
          -16 -10 -15 -18 -11 vhcurveto
          -22 -36 -68 -12 -86 hhcurveto
          -342 hlineto
          94 callsubr
          80 hlineto
          32 25 2 3 21 hvcurveto
          -13 -20 -9 -23 -30 vvcurveto
          -117 139 -110 132 14 14 1 2 13 vhcurveto
          -79 callgsubr
        </CharString>
        <CharString name="dvJ_DDA">
          415 52 callgsubr
          736 -9 callgsubr
          -83 -49 -38 -61 -8 hvcurveto
          57 -64 -61 0 -100 hhcurveto
          -91 59 callsubr
          48 -12 13 vhcurveto
          105 -2 29 -8 66 -70 rrcurveto
          -39 37 50 -29 56 -4 callgsubr
        </CharString>
        <CharString name="dvJ_JA">
          614 -60 669 29 callsubr
        </CharString>
        <CharString name="dvJ_JHA">
          645 1001 167 callsubr
          -917 -82 callsubr
          711 hlineto
          13 -9 5 -11 -11 vvcurveto
          -19 -20 -9 -31 vhcurveto
          -31 -23 1 -23 hhcurveto
          -83 -49 -38 -61 -8 hvcurveto
          56 -69 -59 1 -103 hhcurveto
          -91 59 callsubr
          49 -12 12 vhcurveto
          115 -1 14 -9 97 -87 rrcurveto
          -30 34 43 -17 46 -59 callsubr
          28 -7 24 -10 22 hvcurveto
          -9 22 21 -3 19 hhcurveto
          21 17 5 7 13 hvcurveto
          -5 -27 -3 -31 -29 vvcurveto
          -66 23 -62 80 -70 callgsubr
        </CharString>
        <CharString name="dvJ_J_NYA">
          593 52 callgsubr
          886 hlineto
          14 -22 1 -42 -36 vvcurveto
          -762 hlineto
          94 callsubr
          347 hlineto
          12 -17 6 -20 -21 225 callsubr
          -17 -22 47 callsubr
          40 -17 38 -24 31 hvcurveto
          165 hlineto
          -1 -82 -3 -52 -56 -99 callgsubr
        </CharString>
        <CharString name="dvJ_J_VA">
          925 52 callgsubr
          1218 -15 callsubr
          -58 -60 -28 -64 -21 vhcurveto
          55 -57 -61 0 -89 106 callsubr
          -79 63 279 callsubr
          -321 hlineto
          94 callsubr
          130 hlineto
          -97 37 99 -146 133 271 callgsubr
          89 -1 31 -10 50 -79 rrcurveto
          -70 44 74 -57 86 hhcurveto
          39 38 12 24 28 hvcurveto
          -5 -16 -3 -18 -18 vvcurveto
          -54 27 -55 73 -105 callsubr
        </CharString>
        <CharString name="dvJ_J_YA">
          954 1302 -101 callsubr
          -1241 -82 callsubr
          1038 72 callsubr
          -79 63 279 callsubr
          -321 hlineto
          94 callsubr
          130 hlineto
          -97 37 99 -146 133 271 callgsubr
          87 -1 21 -9 62 -75 rrcurveto
          -63 52 81 -52 82 hhcurveto
          22 callgsubr
          hvcurveto
          55 callgsubr
          -37 28 vhcurveto
          170 -103 callgsubr
        </CharString>
        <CharString name="dvJ_KA">
          678 52 callgsubr
          717 -97 callsubr
          -66 -47 -52 -61 -12 vhcurveto
          78 -67 -51 1 -97 hhcurveto
          -91 165 callsubr
          78 -3 27 -20 80 -102 rrcurveto
          -53 42 61 -35 64 hhcurveto
          43 26 12 19 21 hvcurveto
          -85 callgsubr
        </CharString>
        <CharString name="dvJ_MA">
          519 721 431 -48 callgsubr
          -781 179 callsubr
          511 185 callsubr
          -20 -1 -22 -5 -17 -11 rrcurveto
          80 -65 -64 0 -99 hhcurveto
          -101 59 callsubr
          48 -12 13 vhcurveto
          87 -2 28 -11 54 -78 rrcurveto
          -40 28 43 -33 42 -78 callgsubr
        </CharString>
        <CharString name="dvJ_NA">
          151 52 callgsubr
          445 hlineto
          13 -20 2 -36 -34 vvcurveto
          -321 hlineto
          154 callsubr
          50 197 callsubr
          1 -3 0 -3 -3 vvcurveto
          -27 -17 -27 -39 -91 -56 124 63 -24 75 callsubr
          -58 99 -198 146 225 callgsubr
          29 -7 23 -4 14 vhcurveto
          156 hlineto
          -48 -1 -40 -1 -36 vhcurveto
          -55 -24 -251 -93 317 callsubr
          18 -5 20 -11 25 vhcurveto
          137 84 rlineto
          -5 -16 -2 -15 -13 vvcurveto
          -57 40 -36 56 -71 callsubr
        </CharString>
</ttFont>
